SplineFontDB: 3.0
FontName: Merienda-Regular_0_wt
FullName: Merienda
FamilyName: Merienda
Weight: Book
Copyright: Copyright (c) 2011-2012, Eduardo Tunni (http://www.tipo.net.ar), with Reserved Font Name 'Merienda'
Version: 1.001
ItalicAngle: 0
UnderlinePosition: -50
UnderlineWidth: 50
Ascent: 800
Descent: 200
sfntRevision: 0x00010042
LayerCount: 2
Layer: 0 1 "Back"  1
Layer: 1 1 "Fore"  0
XUID: [1021 978 1515537561 5420449]
FSType: 0
OS2Version: 3
OS2_WeightWidthSlopeOnly: 0
OS2_UseTypoMetrics: 1
CreationTime: 1233875100
ModificationTime: 1351749399
PfmFamily: 17
TTFWeight: 400
TTFWidth: 5
LineGap: 0
VLineGap: 0
Panose: 2 0 5 3 6 0 0 2 0 4
OS2TypoAscent: 1102
OS2TypoAOffset: 0
OS2TypoDescent: -342
OS2TypoDOffset: 0
OS2TypoLinegap: 0
OS2WinAscent: 1102
OS2WinAOffset: 0
OS2WinDescent: 342
OS2WinDOffset: 0
HheadAscent: 1102
HheadAOffset: 0
HheadDescent: -342
HheadDOffset: 0
OS2SubXSize: 650
OS2SubYSize: 600
OS2SubXOff: 0
OS2SubYOff: 75
OS2SupXSize: 650
OS2SupYSize: 600
OS2SupXOff: 0
OS2SupYOff: 350
OS2StrikeYSize: 50
OS2StrikeYPos: 359
OS2Vendor: 'TIPO'
OS2CodePages: 20000001.00000000
OS2UnicodeRanges: 800000af.4000204b.00000000.00000000
Lookup: 4 0 1 "'liga' Standard Ligatures in Latin lookup 0"  {"'liga' Standard Ligatures in Latin lookup 0 subtable"  } ['liga' ('latn' <'dflt' > ) ]
Lookup: 6 0 0 "'liga' Standard Ligatures in Latin lookup 1"  {"'liga' Standard Ligatures in Latin lookup 1 subtable"  } ['liga' ('latn' <'dflt' > ) ]
Lookup: 1 0 0 "Single Substitution lookup 2"  {"Single Substitution lookup 2 subtable"  } []
Lookup: 257 0 0 "'cpsp' Capital Spacing in Latin lookup 0"  {"'cpsp' Capital Spacing in Latin lookup 0 subtable"  } ['cpsp' ('latn' <'dflt' > ) ]
Lookup: 257 0 0 "'case' Case-Sensitive Forms in Latin lookup 1"  {"'case' Case-Sensitive Forms in Latin lookup 1 per glyph data 0"  "'case' Case-Sensitive Forms in Latin lookup 1 per glyph data 1"  } ['case' ('latn' <'dflt' > ) ]

StartChar: exclam
Encoding: 33 33 4
Width: 286
GlyphClass: 2
Flags: W
LayerCount: 2
Fore
SplineSet
275 703 m 0,0,1
 275 672 275 672 258 605 c 0,2,3
 204 400 204 400 204 287 c 0,4,5
 204 237 204 237 212 218 c 1,6,7
 163 236 163 236 142 271 c 128,-1,8
 121 306 121 306 121 365.5 c 128,-1,9
 121 425 121 425 146 550 c 128,-1,10
 171 675 171 675 171 728.5 c 128,-1,11
 171 782 171 782 168 798 c 1,12,13
 201 798 201 798 238 773.5 c 128,-1,14
 275 749 275 749 275 703 c 0,0,1
93 106 m 1,15,16
 120 116 120 116 146 116 c 128,-1,17
 172 116 172 116 190 104 c 128,-1,18
 208 92 208 92 208 71.5 c 128,-1,19
 208 51 208 51 190 -1 c 1,20,21
 163 -11 163 -11 137 -11 c 128,-1,22
 111 -11 111 -11 93 1 c 128,-1,23
 75 13 75 13 75 33.5 c 128,-1,24
 75 54 75 54 93 106 c 1,15,16
EndSplineSet
EndChar

StartChar: quotedbl
Encoding: 34 34 5
Width: 403
GlyphClass: 2
Flags: W
LayerCount: 2
Fore
SplineSet
208 762 m 0,0,1
 208 742 208 742 186 688 c 128,-1,2
 164 634 164 634 164 600.5 c 128,-1,3
 164 567 164 567 170 540 c 1,4,5
 85 540 85 540 85 625 c 0,6,7
 85 654 85 654 101.5 705.5 c 128,-1,8
 118 757 118 757 118 781.5 c 128,-1,9
 118 806 118 806 112 827 c 1,10,11
 208 827 208 827 208 762 c 0,0,1
388 762 m 0,12,13
 388 742 388 742 366 688 c 128,-1,14
 344 634 344 634 344 600.5 c 128,-1,15
 344 567 344 567 350 540 c 1,16,17
 265 540 265 540 265 625 c 0,18,19
 265 654 265 654 281.5 705.5 c 128,-1,20
 298 757 298 757 298 781.5 c 128,-1,21
 298 806 298 806 292 827 c 1,22,23
 388 827 388 827 388 762 c 0,12,13
EndSplineSet
EndChar

StartChar: numbersign
Encoding: 35 35 6
Width: 772
GlyphClass: 2
Flags: W
LayerCount: 2
Fore
SplineSet
697 192 m 1,0,-1
 696 173 l 1,1,2
 612 180 612 180 503 182 c 1,3,4
 451 41 451 41 437 -41 c 1,5,6
 431 -41 431 -41 415 -34 c 128,-1,7
 399 -27 399 -27 390 -18 c 0,8,9
 364 6 364 6 364 44 c 128,-1,10
 364 82 364 82 400 180 c 1,11,12
 252 172 252 172 228 171 c 1,13,14
 177 32 177 32 166 -41 c 1,15,16
 160 -41 160 -41 144 -34 c 128,-1,17
 128 -27 128 -27 118 -18 c 0,18,19
 93 6 93 6 93 41.5 c 128,-1,20
 93 77 93 77 125 170 c 1,21,22
 59 174 59 174 37 197 c 128,-1,23
 15 220 15 220 15 263 c 0,24,25
 15 266 15 266 15.5 272 c 128,-1,26
 16 278 16 278 16 282 c 1,27,28
 95 274 95 274 164 273 c 1,29,30
 175 303 175 303 199 363.5 c 128,-1,31
 223 424 223 424 226 432 c 1,32,-1
 214 432 l 2,33,34
 130 432 130 432 102.5 455 c 128,-1,35
 75 478 75 478 75 525 c 1,36,-1
 76 544 l 1,37,38
 177 535 177 535 264 535 c 1,39,40
 308 656 308 656 320 727 c 1,41,42
 326 727 326 727 342 720 c 128,-1,43
 358 713 358 713 368 704 c 0,44,45
 393 680 393 680 393 646 c 128,-1,46
 393 612 393 612 368 537 c 1,47,48
 392 538 392 538 449 541 c 128,-1,49
 506 544 506 544 539 545 c 1,50,51
 579 660 579 660 591 727 c 1,52,53
 597 727 597 727 613 720 c 128,-1,54
 629 713 629 713 638 704 c 0,55,56
 664 680 664 680 664 645 c 128,-1,57
 664 610 664 610 642 546 c 1,58,59
 711 543 711 543 734 520 c 128,-1,60
 757 497 757 497 757 454 c 1,61,-1
 756 435 l 1,62,63
 688 441 688 441 605 443 c 1,64,65
 598 424 598 424 576.5 370 c 128,-1,66
 555 316 555 316 543 285 c 1,67,-1
 557 285 l 2,68,69
 642 285 642 285 669.5 262 c 128,-1,70
 697 239 697 239 697 192 c 1,0,-1
501 443 m 1,71,72
 485 443 485 443 331 435 c 1,73,74
 291 333 291 333 267 273 c 1,75,76
 298 274 298 274 357.5 277.5 c 128,-1,77
 417 281 417 281 438 282 c 1,78,-1
 501 443 l 1,71,72
EndSplineSet
EndChar

StartChar: dollar
Encoding: 36 36 7
Width: 620
GlyphClass: 2
Flags: W
LayerCount: 2
Fore
SplineSet
440 583 m 0,0,1
 440 618 440 618 412 638 c 128,-1,2
 384 658 384 658 342 658 c 128,-1,3
 300 658 300 658 268 631 c 128,-1,4
 236 604 236 604 236 556.5 c 128,-1,5
 236 509 236 509 266 470.5 c 128,-1,6
 296 432 296 432 338.5 401.5 c 128,-1,7
 381 371 381 371 424 339.5 c 128,-1,8
 467 308 467 308 497 265 c 128,-1,9
 527 222 527 222 527 172 c 0,10,11
 527 95 527 95 468 39 c 128,-1,12
 409 -17 409 -17 313 -24 c 1,13,14
 295 -122 295 -122 295 -190 c 1,15,16
 279 -190 279 -190 257 -182 c 0,17,18
 214 -167 214 -167 214 -113 c 0,19,20
 214 -83 214 -83 227 -20 c 1,21,22
 154 -6 154 -6 115 36.5 c 128,-1,23
 76 79 76 79 76 130 c 128,-1,24
 76 181 76 181 104 213 c 128,-1,25
 132 245 132 245 172 245 c 0,26,27
 188 245 188 245 201 241 c 1,28,29
 182 212 182 212 182 161 c 128,-1,30
 182 110 182 110 212 74 c 128,-1,31
 242 38 242 38 298.5 38 c 128,-1,32
 355 38 355 38 386 66.5 c 128,-1,33
 417 95 417 95 417 146 c 0,34,35
 417 203 417 203 344 257 c 0,36,37
 263 317 263 317 209 368 c 0,38,39
 178 398 178 398 157 441.5 c 128,-1,40
 136 485 136 485 136 534 c 0,41,42
 136 614 136 614 185 663.5 c 128,-1,43
 234 713 234 713 330 718 c 1,44,45
 353 825 353 825 358 875 c 1,46,47
 377 875 377 875 394.5 853 c 128,-1,48
 412 831 412 831 412 799.5 c 128,-1,49
 412 768 412 768 402 715 c 1,50,51
 465 703 465 703 497.5 664.5 c 128,-1,52
 530 626 530 626 530 585 c 128,-1,53
 530 544 530 544 506.5 513 c 128,-1,54
 483 482 483 482 440 482 c 0,55,56
 419 482 419 482 399 489 c 1,57,58
 440 517 440 517 440 583 c 0,0,1
EndSplineSet
EndChar

StartChar: percent
Encoding: 37 37 8
Width: 960
GlyphClass: 2
Flags: W
LayerCount: 2
Fore
SplineSet
625 661 m 128,-1,1
 625 626 625 626 577.5 491 c 128,-1,2
 530 356 530 356 475 188 c 128,-1,3
 420 20 420 20 406 -82 c 1,4,5
 399 -82 399 -82 385 -74 c 128,-1,6
 371 -66 371 -66 362 -57 c 0,7,8
 338 -33 338 -33 338 13 c 128,-1,9
 338 59 338 59 392.5 201.5 c 128,-1,10
 447 344 447 344 510 512 c 128,-1,11
 573 680 573 680 588 768 c 1,12,13
 602 754 602 754 613.5 725 c 128,-1,0
 625 696 625 696 625 661 c 128,-1,1
262 606 m 0,14,15
 217 606 217 606 185.5 547 c 128,-1,16
 154 488 154 488 154 421 c 0,17,18
 154 276 154 276 225 276 c 0,19,20
 271 276 271 276 296 332 c 128,-1,21
 321 388 321 388 321 465 c 0,22,23
 321 606 321 606 262 606 c 0,14,15
290 656 m 0,24,25
 343 656 343 656 374.5 605.5 c 128,-1,26
 406 555 406 555 406 490.5 c 128,-1,27
 406 426 406 426 387 366.5 c 128,-1,28
 368 307 368 307 322.5 264 c 128,-1,29
 277 221 277 221 216 221 c 128,-1,30
 155 221 155 221 112.5 272 c 128,-1,31
 70 323 70 323 70 416.5 c 128,-1,32
 70 510 70 510 110.5 578.5 c 128,-1,33
 151 647 151 647 217 666 c 1,34,35
 240 666 240 666 248 648 c 1,36,37
 268 656 268 656 290 656 c 0,24,25
746 358 m 0,38,39
 701 358 701 358 669.5 299 c 128,-1,40
 638 240 638 240 638 173 c 0,41,42
 638 28 638 28 709 28 c 0,43,44
 755 28 755 28 780 84 c 128,-1,45
 805 140 805 140 805 217 c 0,46,47
 805 358 805 358 746 358 c 0,38,39
774 408 m 0,48,49
 827 408 827 408 858.5 357.5 c 128,-1,50
 890 307 890 307 890 242.5 c 128,-1,51
 890 178 890 178 871 118.5 c 128,-1,52
 852 59 852 59 806.5 16 c 128,-1,53
 761 -27 761 -27 700 -27 c 128,-1,54
 639 -27 639 -27 596.5 24 c 128,-1,55
 554 75 554 75 554 168.5 c 128,-1,56
 554 262 554 262 594.5 330.5 c 128,-1,57
 635 399 635 399 701 418 c 1,58,59
 724 418 724 418 732 400 c 1,60,61
 752 408 752 408 774 408 c 0,48,49
EndSplineSet
EndChar

StartChar: ampersand
Encoding: 38 38 9
Width: 620
GlyphClass: 2
Flags: W
LayerCount: 2
Fore
SplineSet
201 590 m 0,0,1
 201 506 201 506 263 464 c 128,-1,2
 325 422 325 422 441.5 422 c 128,-1,3
 558 422 558 422 667 468 c 1,4,5
 667 406 667 406 650 382 c 0,6,7
 631 356 631 356 592 356 c 2,8,-1
 526 356 l 1,9,10
 522 329 522 329 510 250.5 c 128,-1,11
 498 172 498 172 492 125 c 0,12,13
 473 -9 473 -9 473 -91.5 c 128,-1,14
 473 -174 473 -174 497 -230 c 1,15,16
 435 -208 435 -208 413 -162 c 128,-1,17
 391 -116 391 -116 391 -51.5 c 128,-1,18
 391 13 391 13 396 63 c 1,19,20
 366 14 366 14 317 -9.5 c 128,-1,21
 268 -33 268 -33 219 -33 c 0,22,23
 140 -33 140 -33 82 20 c 128,-1,24
 24 73 24 73 24 168 c 0,25,26
 24 247 24 247 90 312.5 c 128,-1,27
 156 378 156 378 264 395 c 1,28,29
 181 422 181 422 140.5 475 c 128,-1,30
 100 528 100 528 100 587 c 0,31,32
 100 664 100 664 161 722.5 c 128,-1,33
 222 781 222 781 313.5 781 c 128,-1,34
 405 781 405 781 454 741 c 128,-1,35
 503 701 503 701 503 637 c 0,36,37
 503 591 503 591 471 553.5 c 128,-1,38
 439 516 439 516 387 516 c 0,39,40
 366 516 366 516 345 521 c 1,41,42
 400 582 400 582 400 638 c 0,43,44
 400 675 400 675 375.5 695 c 128,-1,45
 351 715 351 715 318 715 c 0,46,47
 266 715 266 715 233.5 677 c 128,-1,48
 201 639 201 639 201 590 c 0,0,1
258 40 m 0,49,50
 355 40 355 40 392 132 c 0,51,52
 411 178 411 178 421 248 c 2,53,-1
 436 357 l 1,54,55
 131 354 131 354 131 173 c 0,56,57
 131 108 131 108 166 74 c 128,-1,58
 201 40 201 40 258 40 c 0,49,50
EndSplineSet
EndChar

StartChar: quotesingle
Encoding: 39 39 10
Width: 223
GlyphClass: 2
Flags: W
LayerCount: 2
Fore
SplineSet
208 762 m 0,0,1
 208 742 208 742 186 688 c 128,-1,2
 164 634 164 634 164 600.5 c 128,-1,3
 164 567 164 567 170 540 c 1,4,5
 85 540 85 540 85 625 c 0,6,7
 85 654 85 654 101.5 705.5 c 128,-1,8
 118 757 118 757 118 781.5 c 128,-1,9
 118 806 118 806 112 827 c 1,10,11
 208 827 208 827 208 762 c 0,0,1
EndSplineSet
EndChar

StartChar: parenleft
Encoding: 40 40 11
Width: 359
GlyphClass: 2
Flags: W
LayerCount: 2
Fore
SplineSet
226.5 555.5 m 128,-1,1
 174 420 174 420 174 281 c 128,-1,2
 174 142 174 142 224.5 32.5 c 128,-1,3
 275 -77 275 -77 332 -121 c 1,4,5
 328 -138 328 -138 310 -143 c 1,6,7
 65 -7 65 -7 65 287 c 0,8,9
 65 455 65 455 139.5 584.5 c 128,-1,10
 214 714 214 714 361 787 c 1,11,12
 379 782 379 782 379 765 c 1,13,0
 279 691 279 691 226.5 555.5 c 128,-1,1
EndSplineSet
Position2: "'case' Case-Sensitive Forms in Latin lookup 1 per glyph data 0" dx=0 dy=80 dh=0 dv=0
EndChar

StartChar: parenright
Encoding: 41 41 12
Width: 359
GlyphClass: 2
Flags: W
LayerCount: 2
Fore
SplineSet
117.5 88.5 m 128,-1,1
 170 224 170 224 170 363 c 128,-1,2
 170 502 170 502 119.5 611.5 c 128,-1,3
 69 721 69 721 12 765 c 1,4,5
 16 782 16 782 34 787 c 1,6,7
 279 651 279 651 279 357 c 0,8,9
 279 189 279 189 204.5 59.5 c 128,-1,10
 130 -70 130 -70 -17 -143 c 1,11,12
 -35 -138 -35 -138 -35 -121 c 1,13,0
 65 -47 65 -47 117.5 88.5 c 128,-1,1
EndSplineSet
Position2: "'case' Case-Sensitive Forms in Latin lookup 1 per glyph data 0" dx=0 dy=80 dh=0 dv=0
EndChar

StartChar: asterisk
Encoding: 42 42 13
Width: 522
GlyphClass: 2
Flags: W
LayerCount: 2
Fore
SplineSet
318 673 m 1,0,-1
 324 614 l 1,1,2
 324 515 324 515 271 515 c 0,3,4
 239 515 239 515 195 556 c 1,5,6
 212 574 212 574 231.5 610 c 128,-1,7
 251 646 251 646 260 671 c 1,8,9
 183 637 183 637 149 637 c 0,10,11
 92 637 92 637 92 691 c 0,12,13
 92 719 92 719 110 754 c 1,14,15
 175 726 175 726 241 726 c 1,16,17
 218 750 218 750 195.5 786.5 c 128,-1,18
 173 823 173 823 173 847 c 0,19,20
 173 895 173 895 245 895 c 0,21,22
 257 895 257 895 277 893 c 1,23,24
 273 866 273 866 273 854 c 0,25,26
 273 797 273 797 288 760 c 1,27,28
 308 796 308 796 340.5 833 c 128,-1,29
 373 870 373 870 392.5 870 c 128,-1,30
 412 870 412 870 431 845.5 c 128,-1,31
 450 821 450 821 458 782 c 1,32,33
 427 776 427 776 389.5 759 c 128,-1,34
 352 742 352 742 332 727 c 1,35,36
 398 709 398 709 434 686 c 128,-1,37
 470 663 470 663 470 645 c 128,-1,38
 470 627 470 627 456 607.5 c 128,-1,39
 442 588 442 588 416 573 c 1,40,41
 406 583 406 583 383 608 c 0,42,43
 338 657 338 657 318 673 c 1,0,-1
EndSplineSet
EndChar

StartChar: plus
Encoding: 43 43 14
Width: 620
GlyphClass: 2
Flags: W
LayerCount: 2
Fore
SplineSet
401 315 m 1,0,-1
 356 314 l 1,1,2
 354 244 354 244 351 199.5 c 128,-1,3
 348 155 348 155 331.5 132 c 128,-1,4
 315 109 315 109 285.5 109 c 128,-1,5
 256 109 256 109 243 111 c 1,6,7
 257 181 257 181 261 307 c 1,8,9
 216 304 216 304 158.5 304 c 128,-1,10
 101 304 101 304 80.5 325 c 128,-1,11
 60 346 60 346 60 388 c 0,12,13
 60 391 60 391 60.5 397 c 128,-1,14
 61 403 61 403 61 406 c 1,15,16
 122 398 122 398 185 398 c 128,-1,17
 248 398 248 398 263 399 c 1,18,19
 263 456 263 456 267 506.5 c 128,-1,20
 271 557 271 557 288 580 c 128,-1,21
 305 603 305 603 335 603 c 128,-1,22
 365 603 365 603 376 601 c 1,23,24
 360 521 360 521 358 405 c 1,25,26
 418 409 418 409 468.5 409 c 128,-1,27
 519 409 519 409 539.5 388 c 128,-1,28
 560 367 560 367 560 325 c 0,29,30
 560 322 560 322 559.5 316 c 128,-1,31
 559 310 559 310 559 307 c 1,32,33
 498 315 498 315 401 315 c 1,0,-1
EndSplineSet
EndChar

StartChar: comma
Encoding: 44 44 15
Width: 209
GlyphClass: 2
Flags: W
LayerCount: 2
Fore
SplineSet
120 146 m 0,0,1
 184 146 184 146 184 85 c 128,-1,2
 184 24 184 24 142 -32 c 128,-1,3
 100 -88 100 -88 20 -132 c 1,4,-1
 -4 -102 l 1,5,6
 70 -31 70 -31 70 60 c 0,7,8
 70 93 70 93 55 135 c 1,9,10
 88 146 88 146 120 146 c 0,0,1
EndSplineSet
EndChar

StartChar: hyphen
Encoding: 45 45 16
Width: 480
GlyphClass: 2
Flags: W
LayerCount: 2
Fore
SplineSet
193 375 m 1,0,-1
 284 372 l 1,1,2
 367 372 367 372 399 404 c 1,3,4
 405 387 405 387 405 355 c 128,-1,5
 405 323 405 323 387 297 c 128,-1,6
 369 271 369 271 331 271 c 0,7,8
 223 271 223 271 173.5 263.5 c 128,-1,9
 124 256 124 256 78 229 c 1,10,11
 74 245 74 245 74 268 c 0,12,13
 74 333 74 333 104 354 c 128,-1,14
 134 375 134 375 193 375 c 1,0,-1
EndSplineSet
Position2: "'case' Case-Sensitive Forms in Latin lookup 1 per glyph data 0" dx=0 dy=80 dh=0 dv=0
EndChar

StartChar: period
Encoding: 46 46 17
Width: 208
GlyphClass: 2
Flags: W
LayerCount: 2
Fore
SplineSet
105 -11 m 0,0,1
 40 -11 40 -11 40 43 c 0,2,3
 40 62 40 62 58 116 c 1,4,5
 88 126 88 126 118 126 c 0,6,7
 183 126 183 126 183 72 c 0,8,9
 183 53 183 53 165 -1 c 1,10,11
 135 -11 135 -11 105 -11 c 0,0,1
EndSplineSet
EndChar

StartChar: slash
Encoding: 47 47 18
Width: 413
GlyphClass: 2
Flags: W
LayerCount: 2
Fore
SplineSet
399.5 822.5 m 128,-1,1
 413 796 413 796 413 761.5 c 128,-1,2
 413 727 413 727 338 541 c 128,-1,3
 263 355 263 355 180.5 137.5 c 128,-1,4
 98 -80 98 -80 84 -182 c 1,5,6
 76 -182 76 -182 58 -174 c 128,-1,7
 40 -166 40 -166 29 -157 c 128,-1,8
 18 -148 18 -148 9 -129 c 128,-1,9
 0 -110 0 -110 0 -86 c 0,10,11
 0 -41 0 -41 83 151.5 c 128,-1,12
 166 344 166 344 257.5 561.5 c 128,-1,13
 349 779 349 779 364 868 c 1,14,15
 369 864 369 864 377.5 856.5 c 128,-1,0
 386 849 386 849 399.5 822.5 c 128,-1,1
EndSplineSet
EndChar

StartChar: zero
Encoding: 48 48 19
Width: 644
GlyphClass: 2
Flags: W
LayerCount: 2
Fore
SplineSet
360 632 m 0,0,1
 281 632 281 632 222.5 527.5 c 128,-1,2
 164 423 164 423 164 306.5 c 128,-1,3
 164 190 164 190 199 118 c 128,-1,4
 234 46 234 46 301 46 c 0,5,6
 356 46 356 46 397 96 c 0,7,8
 477 194 477 194 477 380 c 0,9,10
 477 511 477 511 444 571.5 c 128,-1,11
 411 632 411 632 360 632 c 0,0,1
417 693 m 0,12,13
 497 693 497 693 540.5 619 c 128,-1,14
 584 545 584 545 584 429 c 0,15,16
 584 259 584 259 512 126 c 1,17,18
 477 59 477 59 416.5 18 c 128,-1,19
 356 -23 356 -23 273 -23 c 128,-1,20
 190 -23 190 -23 125 60 c 128,-1,21
 60 143 60 143 60 298.5 c 128,-1,22
 60 454 60 454 123.5 566.5 c 128,-1,23
 187 679 187 679 292 710 c 1,24,25
 316 710 316 710 318 668 c 1,26,27
 372 693 372 693 417 693 c 0,12,13
EndSplineSet
EndChar

StartChar: one
Encoding: 49 49 20
Width: 531
GlyphClass: 2
Flags: W
LayerCount: 2
Fore
SplineSet
174 88 m 2,0,-1
 221 87 l 1,1,2
 225 142 225 142 245.5 307 c 128,-1,3
 266 472 266 472 274 558 c 1,4,5
 166 493 166 493 140.5 493 c 128,-1,6
 115 493 115 493 97.5 531.5 c 128,-1,7
 80 570 80 570 80 597 c 1,8,9
 129 607 129 607 220 636.5 c 128,-1,10
 311 666 311 666 386 702 c 1,11,12
 386 648 386 648 360 432 c 128,-1,13
 334 216 334 216 328 84 c 1,14,15
 421 86 421 86 481 110 c 1,16,17
 477 40 477 40 456 10.5 c 128,-1,18
 435 -19 435 -19 381 -19 c 0,19,20
 362 -19 362 -19 298 -10 c 128,-1,21
 234 -1 234 -1 166.5 -1 c 128,-1,22
 99 -1 99 -1 40 -21 c 1,23,24
 40 -7 40 -7 49 14.5 c 128,-1,25
 58 36 58 36 71 50.5 c 128,-1,26
 84 65 84 65 111 76.5 c 128,-1,27
 138 88 138 88 174 88 c 2,0,-1
EndSplineSet
EndChar

StartChar: two
Encoding: 50 50 21
Width: 569
GlyphClass: 2
Flags: W
LayerCount: 2
Fore
SplineSet
194 450 m 0,0,1
 142 450 142 450 112 480.5 c 128,-1,2
 82 511 82 511 82 554 c 0,3,4
 82 619 82 619 136.5 669 c 128,-1,5
 191 719 191 719 286.5 719 c 128,-1,6
 382 719 382 719 445.5 671.5 c 128,-1,7
 509 624 509 624 509 526.5 c 128,-1,8
 509 429 509 429 420 310.5 c 128,-1,9
 331 192 331 192 167 88 c 1,10,-1
 194 88 l 2,11,12
 424 88 424 88 505 120 c 1,13,14
 501 54 501 54 468.5 17.5 c 128,-1,15
 436 -19 436 -19 386 -19 c 0,16,17
 372 -19 372 -19 292 -10 c 128,-1,18
 212 -1 212 -1 131 -1 c 128,-1,19
 50 -1 50 -1 -20 -21 c 1,20,21
 -20 1 -20 1 -5 23 c 0,22,23
 22 63 22 63 69 79 c 1,24,25
 110 114 110 114 125.5 127 c 128,-1,26
 141 140 141 140 184 179.5 c 128,-1,27
 227 219 227 219 248 242.5 c 128,-1,28
 269 266 269 266 302.5 306 c 128,-1,29
 336 346 336 346 352 378 c 0,30,31
 396 461 396 461 396 521.5 c 128,-1,32
 396 582 396 582 364 615 c 128,-1,33
 332 648 332 648 288.5 648 c 128,-1,34
 245 648 245 648 216 621.5 c 128,-1,35
 187 595 187 595 187 546 c 128,-1,36
 187 497 187 497 225 453 c 1,37,38
 210 450 210 450 194 450 c 0,0,1
EndSplineSet
EndChar

StartChar: three
Encoding: 51 51 22
Width: 550
GlyphClass: 2
Flags: W
LayerCount: 2
Fore
SplineSet
371 548 m 0,0,1
 371 591 371 591 347.5 618 c 128,-1,2
 324 645 324 645 280.5 645 c 128,-1,3
 237 645 237 645 213 621.5 c 128,-1,4
 189 598 189 598 189 556.5 c 128,-1,5
 189 515 189 515 224 475 c 1,6,7
 206 470 206 470 190 470 c 0,8,9
 145 470 145 470 119 497 c 128,-1,10
 93 524 93 524 93 563 c 0,11,12
 93 630 93 630 144.5 673.5 c 128,-1,13
 196 717 196 717 284 717 c 128,-1,14
 372 717 372 717 421.5 667.5 c 128,-1,15
 471 618 471 618 471 549 c 0,16,17
 471 497 471 497 438 450.5 c 128,-1,18
 405 404 405 404 337 373 c 1,19,20
 400 363 400 363 440 312.5 c 128,-1,21
 480 262 480 262 480 194 c 0,22,23
 480 103 480 103 413 35 c 128,-1,24
 346 -33 346 -33 225 -33 c 0,25,26
 128 -33 128 -33 74 14 c 128,-1,27
 20 61 20 61 20 123 c 0,28,29
 20 171 20 171 50.5 205.5 c 128,-1,30
 81 240 81 240 135 240 c 0,31,32
 152 240 152 240 173 233 c 1,33,34
 152 218 152 218 139 190 c 128,-1,35
 126 162 126 162 126 135 c 0,36,37
 126 38 126 38 232 38 c 0,38,39
 287 38 287 38 327 76.5 c 128,-1,40
 367 115 367 115 367 176 c 128,-1,41
 367 237 367 237 329.5 282.5 c 128,-1,42
 292 328 292 328 227 339 c 1,43,44
 211 336 211 336 184 332 c 1,45,-1
 179 366 l 1,46,47
 271 381 271 381 321 435 c 128,-1,48
 371 489 371 489 371 548 c 0,0,1
EndSplineSet
EndChar

StartChar: four
Encoding: 52 52 23
Width: 562
GlyphClass: 2
Flags: W
LayerCount: 2
Fore
SplineSet
15 220 m 0,0,1
 15 228 15 228 18 232 c 0,2,3
 238 583 238 583 275 757 c 1,4,5
 282 755 282 755 299.5 743 c 128,-1,6
 317 731 317 731 328 720 c 0,7,8
 355 693 355 693 355 656 c 128,-1,9
 355 619 355 619 318.5 555.5 c 128,-1,10
 282 492 282 492 215.5 393 c 128,-1,11
 149 294 149 294 113 230 c 1,12,13
 192 231 192 231 346 242 c 1,14,15
 359 335 359 335 359 377.5 c 128,-1,16
 359 420 359 420 357 454 c 1,17,18
 373 456 373 456 384 456 c 0,19,20
 420 456 420 456 438 434 c 128,-1,21
 456 412 456 412 456 373.5 c 128,-1,22
 456 335 456 335 443 251 c 1,23,-1
 505 258 l 1,24,25
 512 233 512 233 512 205 c 0,26,27
 512 145 512 145 436 145 c 2,28,-1
 430 145 l 1,29,30
 427 108 427 108 427 50.5 c 128,-1,31
 427 -7 427 -7 433 -35 c 1,32,33
 413 -37 413 -37 401 -37 c 0,34,35
 356 -37 356 -37 334 -11.5 c 128,-1,36
 312 14 312 14 312 53 c 0,37,38
 312 67 312 67 328 147 c 1,39,-1
 40 158 l 1,40,41
 15 174 15 174 15 220 c 0,0,1
EndSplineSet
EndChar

StartChar: five
Encoding: 53 53 24
Width: 563
GlyphClass: 2
Flags: W
LayerCount: 2
Fore
SplineSet
513 654 m 0,0,1
 513 589 513 589 461 589 c 0,2,3
 394 589 394 589 221 619 c 1,4,-1
 190 420 l 1,5,6
 219 425 219 425 256 425 c 0,7,8
 371 425 371 425 439 364 c 128,-1,9
 507 303 507 303 507 207.5 c 128,-1,10
 507 112 507 112 437 39.5 c 128,-1,11
 367 -33 367 -33 251 -33 c 0,12,13
 166 -33 166 -33 108 7.5 c 128,-1,14
 50 48 50 48 50 119 c 0,15,16
 50 169 50 169 79.5 202.5 c 128,-1,17
 109 236 109 236 156 236 c 0,18,19
 180 236 180 236 195 233 c 1,20,21
 156 190 156 190 156 141.5 c 128,-1,22
 156 93 156 93 182 65.5 c 128,-1,23
 208 38 208 38 261.5 38 c 128,-1,24
 315 38 315 38 354.5 79.5 c 128,-1,25
 394 121 394 121 394 192.5 c 128,-1,26
 394 264 394 264 346.5 315 c 128,-1,27
 299 366 299 366 204 366 c 0,28,29
 156 366 156 366 99 353 c 1,30,-1
 148 638 l 1,31,32
 120 656 120 656 116 700 c 1,33,34
 169 693 169 693 240 693 c 0,35,36
 378 693 378 693 470 704 c 2,37,-1
 504 708 l 1,38,39
 513 690 513 690 513 654 c 0,0,1
EndSplineSet
EndChar

StartChar: six
Encoding: 54 54 25
Width: 593
GlyphClass: 2
Flags: W
LayerCount: 2
Fore
SplineSet
402.5 628.5 m 128,-1,1
 383 652 383 652 340 652 c 128,-1,2
 297 652 297 652 258 606 c 0,3,4
 188 525 188 525 168 357 c 1,5,6
 247 392 247 392 327 392 c 128,-1,7
 407 392 407 392 463.5 338.5 c 128,-1,8
 520 285 520 285 520 203 c 0,9,10
 520 95 520 95 449 30.5 c 128,-1,11
 378 -34 378 -34 283 -34 c 128,-1,12
 188 -34 188 -34 119 43 c 128,-1,13
 50 120 50 120 50 270 c 0,14,15
 50 441 50 441 120 573 c 0,16,17
 155 639 155 639 215 679 c 128,-1,18
 275 719 275 719 352.5 719 c 128,-1,19
 430 719 430 719 476.5 675 c 128,-1,20
 523 631 523 631 523 577 c 0,21,22
 523 540 523 540 499.5 514.5 c 128,-1,23
 476 489 476 489 431 489 c 0,24,25
 410 489 410 489 391 499 c 1,26,27
 422 521 422 521 422 572 c 0,28,0
 422 605 422 605 402.5 628.5 c 128,-1,1
379.5 281.5 m 128,-1,30
 348 318 348 318 286 318 c 128,-1,31
 224 318 224 318 163 295 c 1,32,-1
 163 269 l 2,33,34
 163 103 163 103 218 59 c 0,35,36
 246 37 246 37 287 37 c 0,37,38
 343 37 343 37 377 83.5 c 128,-1,39
 411 130 411 130 411 187.5 c 128,-1,29
 411 245 411 245 379.5 281.5 c 128,-1,30
EndSplineSet
EndChar

StartChar: seven
Encoding: 55 55 26
Width: 496
GlyphClass: 2
Flags: W
LayerCount: 2
Fore
SplineSet
506 708 m 128,-1,1
 506 677 506 677 459 579.5 c 128,-1,2
 412 482 412 482 354.5 375 c 128,-1,3
 297 268 297 268 242.5 141 c 128,-1,4
 188 14 188 14 177 -67 c 1,5,6
 169 -67 169 -67 148.5 -59 c 128,-1,7
 128 -51 128 -51 115.5 -42 c 128,-1,8
 103 -33 103 -33 93 -14 c 128,-1,9
 83 5 83 5 83 35 c 128,-1,10
 83 65 83 65 132 158.5 c 128,-1,11
 181 252 181 252 262.5 393.5 c 128,-1,12
 344 535 344 535 385 619 c 1,13,14
 148 582 148 582 96.5 582 c 128,-1,15
 45 582 45 582 45 653 c 0,16,17
 45 690 45 690 54 708 c 1,18,19
 176 693 176 693 280 693 c 128,-1,20
 384 693 384 693 420 696 c 1,21,22
 448 764 448 764 457 811 c 1,23,24
 462 807 462 807 470.5 799.5 c 128,-1,25
 479 792 479 792 492.5 765.5 c 128,-1,0
 506 739 506 739 506 708 c 128,-1,1
EndSplineSet
EndChar

StartChar: eight
Encoding: 56 56 27
Width: 577
GlyphClass: 2
Flags: W
LayerCount: 2
Fore
SplineSet
106.5 17 m 128,-1,1
 50 67 50 67 50 132.5 c 128,-1,2
 50 198 50 198 95 251.5 c 128,-1,3
 140 305 140 305 220 336 c 1,4,5
 110 431 110 431 110 530 c 0,6,7
 110 616 110 616 173.5 667.5 c 128,-1,8
 237 719 237 719 336.5 719 c 128,-1,9
 436 719 436 719 481.5 676 c 128,-1,10
 527 633 527 633 527 567.5 c 128,-1,11
 527 502 527 502 486.5 446 c 128,-1,12
 446 390 446 390 375 359 c 1,13,14
 439 310 439 310 474.5 263 c 128,-1,15
 510 216 510 216 510 154 c 0,16,17
 510 72 510 72 444 19.5 c 128,-1,18
 378 -33 378 -33 270.5 -33 c 128,-1,0
 163 -33 163 -33 106.5 17 c 128,-1,1
398 148 m 0,19,20
 398 168 398 168 390.5 181 c 128,-1,21
 383 194 383 194 378.5 201.5 c 128,-1,22
 374 209 374 209 363.5 219 c 128,-1,23
 353 229 353 229 347.5 235 c 128,-1,24
 342 241 342 241 328 252 c 128,-1,25
 314 263 314 263 307.5 268 c 128,-1,26
 301 273 301 273 284.5 285.5 c 128,-1,27
 268 298 268 298 262 303 c 1,28,29
 157 218 157 218 157 142 c 0,30,31
 157 92 157 92 185 60.5 c 128,-1,32
 213 29 213 29 263 29 c 128,-1,33
 313 29 313 29 355.5 61 c 128,-1,34
 398 93 398 93 398 148 c 0,19,20
253.5 624.5 m 128,-1,36
 221 593 221 593 221 547 c 128,-1,37
 221 501 221 501 249 467.5 c 128,-1,38
 277 434 277 434 332 392 c 1,39,40
 432 472 432 472 432 557 c 0,41,42
 432 599 432 599 408 627.5 c 128,-1,43
 384 656 384 656 335 656 c 128,-1,35
 286 656 286 656 253.5 624.5 c 128,-1,36
EndSplineSet
EndChar

StartChar: nine
Encoding: 57 57 28
Width: 585
GlyphClass: 2
Flags: W
LayerCount: 2
Fore
SplineSet
161 116 m 0,0,1
 161 84 161 84 181 59 c 128,-1,2
 201 34 201 34 240 34 c 0,3,4
 321 34 321 34 365.5 119 c 128,-1,5
 410 204 410 204 421 343 c 1,6,7
 357 285 357 285 275 285 c 128,-1,8
 193 285 193 285 135 339 c 128,-1,9
 77 393 77 393 77 485.5 c 128,-1,10
 77 578 77 578 140.5 648.5 c 128,-1,11
 204 719 204 719 323 719 c 0,12,13
 399 719 399 719 464 654 c 0,14,15
 496 622 496 622 515.5 566 c 128,-1,16
 535 510 535 510 535 431.5 c 128,-1,17
 535 353 535 353 517.5 272.5 c 128,-1,18
 500 192 500 192 465 122 c 128,-1,19
 430 52 430 52 368.5 9.5 c 128,-1,20
 307 -33 307 -33 228 -33 c 128,-1,21
 149 -33 149 -33 104.5 9.5 c 128,-1,22
 60 52 60 52 60 103.5 c 128,-1,23
 60 155 60 155 90.5 189.5 c 128,-1,24
 121 224 121 224 175 224 c 0,25,26
 192 224 192 224 213 217 c 1,27,28
 161 180 161 180 161 116 c 0,0,1
424 409 m 1,29,-1
 425 440 l 1,30,31
 425 533 425 533 398 590.5 c 128,-1,32
 371 648 371 648 312 648 c 128,-1,33
 253 648 253 648 219.5 598.5 c 128,-1,34
 186 549 186 549 186 491 c 128,-1,35
 186 433 186 433 211.5 396 c 128,-1,36
 237 359 237 359 287 359 c 0,37,38
 361 359 361 359 424 409 c 1,29,-1
EndSplineSet
EndChar

StartChar: colon
Encoding: 58 58 29
Width: 286
GlyphClass: 2
Flags: W
LayerCount: 2
Fore
SplineSet
135 -11 m 0,0,1
 70 -11 70 -11 70 43 c 0,2,3
 70 60 70 60 88 116 c 1,4,5
 118 126 118 126 148 126 c 0,6,7
 213 126 213 126 213 72 c 0,8,9
 213 55 213 55 195 -1 c 1,10,11
 165 -11 165 -11 135 -11 c 0,0,1
169 417 m 0,12,13
 104 417 104 417 104 471 c 0,14,15
 104 488 104 488 122 544 c 1,16,17
 152 554 152 554 182 554 c 0,18,19
 247 554 247 554 247 500 c 0,20,21
 247 483 247 483 229 427 c 1,22,23
 199 417 199 417 169 417 c 0,12,13
EndSplineSet
EndChar

StartChar: semicolon
Encoding: 59 59 30
Width: 287
GlyphClass: 2
Flags: W
LayerCount: 2
Fore
SplineSet
169 417 m 0,0,1
 104 417 104 417 104 471 c 0,2,3
 104 488 104 488 122 544 c 1,4,5
 152 554 152 554 182 554 c 0,6,7
 247 554 247 554 247 500 c 0,8,9
 247 483 247 483 229 427 c 1,10,11
 199 417 199 417 169 417 c 0,0,1
150 146 m 0,12,13
 214 146 214 146 214 85 c 128,-1,14
 214 24 214 24 172 -32 c 128,-1,15
 130 -88 130 -88 50 -132 c 1,16,-1
 26 -102 l 1,17,18
 100 -31 100 -31 100 60 c 0,19,20
 100 93 100 93 85 135 c 1,21,22
 118 146 118 146 150 146 c 0,12,13
EndSplineSet
EndChar

StartChar: less
Encoding: 60 60 31
Width: 620
GlyphClass: 2
Flags: W
LayerCount: 2
Fore
SplineSet
85 365 m 128,-1,1
 85 393 85 393 104 420 c 1,2,3
 172 452 172 452 251.5 506.5 c 128,-1,4
 331 561 331 561 385 593 c 128,-1,5
 439 625 439 625 478 625 c 128,-1,6
 517 625 517 625 535 551 c 1,7,8
 471 527 471 527 347.5 452.5 c 128,-1,9
 224 378 224 378 205 368 c 1,10,11
 225 357 225 357 347 283.5 c 128,-1,12
 469 210 469 210 535 185 c 1,13,14
 517 111 517 111 478 111 c 128,-1,15
 439 111 439 111 385 143 c 128,-1,16
 331 175 331 175 251.5 229.5 c 128,-1,17
 172 284 172 284 104 316 c 1,18,0
 85 337 85 337 85 365 c 128,-1,1
EndSplineSet
EndChar

StartChar: equal
Encoding: 61 61 32
Width: 620
GlyphClass: 2
Flags: W
LayerCount: 2
Fore
SplineSet
331 522.5 m 128,-1,1
 408 528 408 528 463.5 528 c 128,-1,2
 519 528 519 528 539.5 507 c 128,-1,3
 560 486 560 486 560 444 c 0,4,5
 560 441 560 441 559.5 435 c 128,-1,6
 559 429 559 429 559 426 c 1,7,8
 498 434 498 434 432 434 c 128,-1,9
 366 434 366 434 289 428.5 c 128,-1,10
 212 423 212 423 156.5 423 c 128,-1,11
 101 423 101 423 80.5 444 c 128,-1,12
 60 465 60 465 60 507 c 0,13,14
 60 510 60 510 60.5 516 c 128,-1,15
 61 522 61 522 61 525 c 1,16,17
 122 517 122 517 188 517 c 128,-1,0
 254 517 254 517 331 522.5 c 128,-1,1
331 284.5 m 128,-1,19
 408 290 408 290 463.5 290 c 128,-1,20
 519 290 519 290 539.5 269 c 128,-1,21
 560 248 560 248 560 206 c 0,22,23
 560 203 560 203 559.5 197 c 128,-1,24
 559 191 559 191 559 188 c 1,25,26
 498 196 498 196 432 196 c 128,-1,27
 366 196 366 196 289 190.5 c 128,-1,28
 212 185 212 185 156.5 185 c 128,-1,29
 101 185 101 185 80.5 206 c 128,-1,30
 60 227 60 227 60 269 c 0,31,32
 60 272 60 272 60.5 278 c 128,-1,33
 61 284 61 284 61 287 c 1,34,35
 122 279 122 279 188 279 c 128,-1,18
 254 279 254 279 331 284.5 c 128,-1,19
EndSplineSet
EndChar

StartChar: greater
Encoding: 62 62 33
Width: 620
GlyphClass: 2
Flags: W
LayerCount: 2
Fore
SplineSet
535 371 m 128,-1,1
 535 343 535 343 516 316 c 1,2,3
 448 284 448 284 368.5 229.5 c 128,-1,4
 289 175 289 175 235 143 c 128,-1,5
 181 111 181 111 142 111 c 128,-1,6
 103 111 103 111 85 185 c 1,7,8
 149 209 149 209 272.5 283.5 c 128,-1,9
 396 358 396 358 415 368 c 1,10,11
 395 379 395 379 273 452.5 c 128,-1,12
 151 526 151 526 85 551 c 1,13,14
 103 625 103 625 142 625 c 128,-1,15
 181 625 181 625 235 593 c 128,-1,16
 289 561 289 561 368.5 506.5 c 128,-1,17
 448 452 448 452 516 420 c 1,18,0
 535 399 535 399 535 371 c 128,-1,1
EndSplineSet
EndChar

StartChar: question
Encoding: 63 63 34
Width: 453
GlyphClass: 2
Flags: W
LayerCount: 2
Fore
SplineSet
149 250.5 m 128,-1,1
 130 277 130 277 130 314.5 c 128,-1,2
 130 352 130 352 153.5 384 c 128,-1,3
 177 416 177 416 210.5 442.5 c 128,-1,4
 244 469 244 469 277.5 496 c 128,-1,5
 311 523 311 523 334.5 558.5 c 128,-1,6
 358 594 358 594 358 634.5 c 128,-1,7
 358 675 358 675 331 698 c 128,-1,8
 304 721 304 721 260.5 721 c 128,-1,9
 217 721 217 721 191 694 c 128,-1,10
 165 667 165 667 165 628.5 c 128,-1,11
 165 590 165 590 190 560 c 1,12,13
 173 552 173 552 146.5 552 c 128,-1,14
 120 552 120 552 97.5 574 c 128,-1,15
 75 596 75 596 75 632 c 0,16,17
 75 696 75 696 135 736 c 128,-1,18
 195 776 195 776 273 776 c 128,-1,19
 351 776 351 776 404.5 737.5 c 128,-1,20
 458 699 458 699 458 616 c 0,21,22
 458 577 458 577 439.5 542.5 c 128,-1,23
 421 508 421 508 394 484 c 128,-1,24
 367 460 367 460 334.5 433.5 c 128,-1,25
 302 407 302 407 275 385 c 128,-1,26
 248 363 248 363 229.5 332 c 128,-1,27
 211 301 211 301 211 266.5 c 128,-1,28
 211 232 211 232 222 206 c 1,29,0
 168 224 168 224 149 250.5 c 128,-1,1
129 106 m 1,30,31
 156 116 156 116 182 116 c 128,-1,32
 208 116 208 116 226 104 c 128,-1,33
 244 92 244 92 244 71.5 c 128,-1,34
 244 51 244 51 226 -1 c 1,35,36
 199 -11 199 -11 173 -11 c 128,-1,37
 147 -11 147 -11 129 1 c 128,-1,38
 111 13 111 13 111 33.5 c 128,-1,39
 111 54 111 54 129 106 c 1,30,31
EndSplineSet
EndChar

StartChar: at
Encoding: 64 64 35
Width: 1027
GlyphClass: 2
Flags: W
LayerCount: 2
Fore
SplineSet
418 -75 m 0,0,1
 498 -75 498 -75 565 -22 c 1,2,3
 572 -46 572 -46 572 -65 c 0,4,5
 572 -114 572 -114 526 -141.5 c 128,-1,6
 480 -169 480 -169 413.5 -169 c 128,-1,7
 347 -169 347 -169 287 -144.5 c 128,-1,8
 227 -120 227 -120 176.5 -74 c 128,-1,9
 126 -28 126 -28 95.5 48 c 128,-1,10
 65 124 65 124 65 217.5 c 128,-1,11
 65 311 65 311 101.5 400 c 128,-1,12
 138 489 138 489 204 561 c 128,-1,13
 270 633 270 633 374 676.5 c 128,-1,14
 478 720 478 720 602 720 c 0,15,16
 738 720 738 720 844 643 c 0,17,18
 897 604 897 604 929.5 533 c 128,-1,19
 962 462 962 462 962 373 c 128,-1,20
 962 284 962 284 935.5 211.5 c 128,-1,21
 909 139 909 139 869 94.5 c 128,-1,22
 829 50 829 50 784.5 25 c 128,-1,23
 740 0 740 0 701 0 c 0,24,25
 641 0 641 0 614.5 45 c 128,-1,26
 588 90 588 90 588 184 c 0,27,28
 588 217 588 217 589 236 c 1,29,-1
 582 236 l 1,30,31
 552 163 552 163 506 126 c 128,-1,32
 460 89 460 89 414 89 c 128,-1,33
 368 89 368 89 339 128.5 c 128,-1,34
 310 168 310 168 310 239.5 c 128,-1,35
 310 311 310 311 333 373.5 c 128,-1,36
 356 436 356 436 407.5 481.5 c 128,-1,37
 459 527 459 527 527 527 c 0,38,39
 564 527 564 527 598 509 c 1,40,-1
 594 535 l 1,41,-1
 631 535 l 2,42,43
 664 535 664 535 679 520 c 128,-1,44
 694 505 694 505 694 473 c 128,-1,45
 694 441 694 441 676.5 341 c 128,-1,46
 659 241 659 241 659 167 c 0,47,48
 659 67 659 67 720 67 c 0,49,50
 767 67 767 67 812.5 146.5 c 128,-1,51
 858 226 858 226 858 365 c 0,52,53
 858 445 858 445 835.5 504.5 c 128,-1,54
 813 564 813 564 774 598 c 0,55,56
 698 663 698 663 594 663 c 128,-1,57
 490 663 490 663 406.5 624.5 c 128,-1,58
 323 586 323 586 272 522 c 0,59,60
 167 392 167 392 167 230 c 128,-1,61
 167 68 167 68 240 -3.5 c 128,-1,62
 313 -75 313 -75 418 -75 c 0,0,1
406 245 m 0,63,64
 406 210 406 210 422 188 c 128,-1,65
 438 166 438 166 468 166 c 0,66,67
 519 166 519 166 561 252.5 c 128,-1,68
 603 339 603 339 603 440 c 0,69,70
 603 467 603 467 599 491 c 1,71,72
 517 483 517 483 461.5 415 c 128,-1,73
 406 347 406 347 406 245 c 0,63,64
EndSplineSet
EndChar

StartChar: A
Encoding: 65 65 36
Width: 645
GlyphClass: 2
Flags: W
LayerCount: 2
Fore
SplineSet
-5 44 m 0,0,1
 -5 63 -5 63 50 185.5 c 128,-1,2
 105 308 105 308 177.5 466.5 c 128,-1,3
 250 625 250 625 276 693 c 2,4,-1
 298 750 l 1,5,6
 282 774 282 774 263 793 c 1,7,8
 294 805 294 805 322 805 c 0,9,10
 385 805 385 805 420 725 c 0,11,12
 442 674 442 674 479 497 c 0,13,14
 480 495 480 495 482 484 c 128,-1,15
 484 473 484 473 502.5 382.5 c 128,-1,16
 521 292 521 292 528 262.5 c 128,-1,17
 535 233 535 233 552 172 c 0,18,19
 579 69 579 69 620 12 c 1,20,21
 573 -16 573 -16 542.5 -16 c 128,-1,22
 512 -16 512 -16 498.5 2.5 c 128,-1,23
 485 21 485 21 473.5 59.5 c 128,-1,24
 462 98 462 98 425 274 c 1,25,26
 403 240 403 240 337 238 c 2,27,-1
 159 231 l 1,28,29
 102 77 102 77 76 -33 c 1,30,31
 -5 1 -5 1 -5 44 c 0,0,1
333 661 m 1,32,33
 218 388 218 388 186 306 c 1,34,-1
 418 306 l 1,35,36
 371 535 371 535 333 661 c 1,32,33
EndSplineSet
Position2: "'cpsp' Capital Spacing in Latin lookup 0 subtable" dx=7 dy=0 dh=20 dv=0
EndChar

StartChar: B
Encoding: 66 66 37
Width: 679
GlyphClass: 2
Flags: W
LayerCount: 2
Fore
SplineSet
144.5 472 m 128,-1,1
 156 602 156 602 156 708 c 128,-1,2
 156 814 156 814 142 847 c 1,3,4
 225 819 225 819 246 759 c 1,5,6
 324 802 324 802 406 802 c 128,-1,7
 488 802 488 802 549.5 757 c 128,-1,8
 611 712 611 712 610.5 636 c 128,-1,9
 610 560 610 560 561 504 c 128,-1,10
 512 448 512 448 422 418 c 1,11,12
 492 403 492 403 549 350.5 c 128,-1,13
 606 298 606 298 606 221 c 0,14,15
 606 103 606 103 523.5 39.5 c 128,-1,16
 441 -24 441 -24 316.5 -24 c 128,-1,17
 192 -24 192 -24 90 53 c 1,18,19
 91 61 91 61 112 201.5 c 128,-1,0
 133 342 133 342 144.5 472 c 128,-1,1
472 694.5 m 128,-1,21
 436 728 436 728 374 728 c 128,-1,22
 312 728 312 728 258 702 c 1,23,24
 258 639 258 639 231.5 387.5 c 128,-1,25
 205 136 205 136 205 65 c 1,26,27
 256 47 256 47 305 47 c 0,28,29
 391 47 391 47 447 96.5 c 128,-1,30
 503 146 503 146 503 230 c 0,31,32
 503 293 503 293 445.5 340.5 c 128,-1,33
 388 388 388 388 286 392 c 1,34,-1
 283 428 l 1,35,36
 389 441 389 441 448.5 495.5 c 128,-1,37
 508 550 508 550 508 605.5 c 128,-1,20
 508 661 508 661 472 694.5 c 128,-1,21
EndSplineSet
Position2: "'cpsp' Capital Spacing in Latin lookup 0 subtable" dx=7 dy=0 dh=20 dv=0
EndChar

StartChar: C
Encoding: 67 67 38
Width: 687
GlyphClass: 2
Flags: W
LayerCount: 2
Fore
SplineSet
323 -15 m 0,0,1
 212 -15 212 -15 136 75 c 128,-1,2
 60 165 60 165 60 337 c 0,3,4
 60 464 60 464 101 568.5 c 128,-1,5
 142 673 142 673 229.5 739.5 c 128,-1,6
 317 806 317 806 427 806 c 128,-1,7
 537 806 537 806 587 752.5 c 128,-1,8
 637 699 637 699 637 630 c 128,-1,9
 637 561 637 561 602 519.5 c 128,-1,10
 567 478 567 478 511 478 c 0,11,12
 493 478 493 478 467 486 c 1,13,14
 490 510 490 510 507.5 553.5 c 128,-1,15
 525 597 525 597 525 641 c 128,-1,16
 525 685 525 685 501.5 716.5 c 128,-1,17
 478 748 478 748 427 748 c 0,18,19
 350 748 350 748 289.5 684.5 c 128,-1,20
 229 621 229 621 198.5 528.5 c 128,-1,21
 168 436 168 436 168 338 c 0,22,23
 168 200 168 200 221 131.5 c 128,-1,24
 274 63 274 63 358 63 c 0,25,26
 414 63 414 63 473 97 c 128,-1,27
 532 131 532 131 570 195 c 1,28,29
 585 195 585 195 598 186 c 128,-1,30
 611 177 611 177 611 168 c 1,31,32
 555 62 555 62 470 21 c 0,33,34
 396 -15 396 -15 323 -15 c 0,0,1
EndSplineSet
Position2: "'cpsp' Capital Spacing in Latin lookup 0 subtable" dx=7 dy=0 dh=20 dv=0
EndChar

StartChar: D
Encoding: 68 68 39
Width: 760
GlyphClass: 2
Flags: W
LayerCount: 2
Fore
SplineSet
413 802 m 0,0,1
 551 802 551 802 630 693 c 128,-1,2
 709 584 709 584 709 419 c 0,3,4
 709 251 709 251 618 123 c 0,5,6
 574 60 574 60 499.5 22.5 c 128,-1,7
 425 -15 425 -15 345.5 -15 c 128,-1,8
 266 -15 266 -15 205.5 2 c 128,-1,9
 145 19 145 19 118 36 c 2,10,-1
 90 53 l 1,11,12
 91 61 91 61 112 202 c 0,13,14
 156 496 156 496 156 735 c 0,15,16
 156 814 156 814 142 847 c 1,17,18
 225 819 225 819 246 759 c 1,19,20
 335 802 335 802 413 802 c 0,0,1
206 70 m 1,21,22
 250 55 250 55 313 55 c 128,-1,23
 376 55 376 55 435 87.5 c 128,-1,24
 494 120 494 120 530 174 c 0,25,26
 604 283 604 283 604 420 c 128,-1,27
 604 557 604 557 543 641 c 128,-1,28
 482 725 482 725 379 725 c 0,29,30
 310 725 310 725 259 702 c 1,31,32
 259 640 259 640 232.5 390 c 128,-1,33
 206 140 206 140 206 70 c 1,21,22
EndSplineSet
Position2: "'cpsp' Capital Spacing in Latin lookup 0 subtable" dx=7 dy=0 dh=20 dv=0
EndChar

StartChar: E
Encoding: 69 69 40
Width: 631
GlyphClass: 2
Flags: W
LayerCount: 2
Fore
SplineSet
400 340 m 2,0,-1
 311 341 l 2,1,2
 262 341 262 341 236 339 c 1,3,4
 220 197 220 197 220 84 c 1,5,6
 451 84 451 84 554 114 c 1,7,8
 547 56 547 56 514.5 24 c 128,-1,9
 482 -8 482 -8 433 -8 c 0,10,11
 419 -8 419 -8 346.5 -1.5 c 128,-1,12
 274 5 274 5 206 5 c 128,-1,13
 138 5 138 5 70 -8 c 1,14,15
 78 25 78 25 108 49 c 1,16,17
 107 55 107 55 107 87 c 128,-1,18
 107 119 107 119 136 324 c 1,19,20
 108 317 108 317 88 309 c 1,21,22
 86 327 86 327 86 338 c 0,23,24
 86 399 86 399 148 414 c 1,25,26
 171 582 171 582 173 682 c 1,27,28
 147 684 147 684 136.5 695 c 128,-1,29
 126 706 126 706 126 734.5 c 128,-1,30
 126 763 126 763 134 785 c 1,31,32
 237 771 237 771 358 771 c 128,-1,33
 479 771 479 771 589 793 c 1,34,35
 583 755 583 755 561.5 731.5 c 128,-1,36
 540 708 540 708 493 698 c 128,-1,37
 446 688 446 688 415 686 c 0,38,39
 359 681 359 681 277 681 c 1,40,41
 276 645 276 645 246 418 c 1,42,43
 308 416 308 416 336 416 c 0,44,45
 424 416 424 416 461 445 c 1,46,47
 463 429 463 429 463 419 c 0,48,49
 463 340 463 340 400 340 c 2,0,-1
EndSplineSet
Position2: "'cpsp' Capital Spacing in Latin lookup 0 subtable" dx=7 dy=0 dh=20 dv=0
EndChar

StartChar: F
Encoding: 70 70 41
Width: 520
GlyphClass: 2
Flags: W
LayerCount: 2
Fore
SplineSet
399 340 m 2,0,-1
 310 341 l 2,1,2
 261 341 261 341 235 339 c 1,3,4
 219 195 219 195 219 107.5 c 128,-1,5
 219 20 219 20 225 -15 c 1,6,7
 199 -17 199 -17 197 -17 c 0,8,9
 151 -17 151 -17 128.5 3 c 128,-1,10
 106 23 106 23 106 71 c 128,-1,11
 106 119 106 119 135 324 c 1,12,13
 107 317 107 317 87 309 c 1,14,15
 85 327 85 327 85 338 c 0,16,17
 85 399 85 399 147 414 c 1,18,19
 170 582 170 582 172 681 c 1,20,21
 133 681 133 681 119 691.5 c 128,-1,22
 105 702 105 702 105 732.5 c 128,-1,23
 105 763 105 763 113 785 c 1,24,25
 216 771 216 771 337 771 c 128,-1,26
 458 771 458 771 568 793 c 1,27,28
 555 712 555 712 455 696 c 0,29,30
 396 686 396 686 276 682 c 1,31,32
 276 635 276 635 245 418 c 1,33,34
 307 416 307 416 335 416 c 0,35,36
 423 416 423 416 460 445 c 1,37,38
 462 429 462 429 462 419 c 0,39,40
 462 340 462 340 399 340 c 2,0,-1
EndSplineSet
PairPos2: "'kern' Horizontal Kerning in Latin lookup 2 per glyph data 1" oe dx=0 dy=0 dh=-30 dv=0 dx=0 dy=0 dh=0 dv=0
PairPos2: "'kern' Horizontal Kerning in Latin lookup 2 per glyph data 1" oslash dx=0 dy=0 dh=-30 dv=0 dx=0 dy=0 dh=0 dv=0
PairPos2: "'kern' Horizontal Kerning in Latin lookup 2 per glyph data 1" odieresis dx=0 dy=0 dh=-30 dv=0 dx=0 dy=0 dh=0 dv=0
PairPos2: "'kern' Horizontal Kerning in Latin lookup 2 per glyph data 1" otilde dx=0 dy=0 dh=-30 dv=0 dx=0 dy=0 dh=0 dv=0
PairPos2: "'kern' Horizontal Kerning in Latin lookup 2 per glyph data 1" ocircumflex dx=0 dy=0 dh=-30 dv=0 dx=0 dy=0 dh=0 dv=0
PairPos2: "'kern' Horizontal Kerning in Latin lookup 2 per glyph data 1" oacute dx=0 dy=0 dh=-30 dv=0 dx=0 dy=0 dh=0 dv=0
PairPos2: "'kern' Horizontal Kerning in Latin lookup 2 per glyph data 1" ograve dx=0 dy=0 dh=-30 dv=0 dx=0 dy=0 dh=0 dv=0
PairPos2: "'kern' Horizontal Kerning in Latin lookup 2 per glyph data 1" eth dx=0 dy=0 dh=-30 dv=0 dx=0 dy=0 dh=0 dv=0
PairPos2: "'kern' Horizontal Kerning in Latin lookup 2 per glyph data 1" edieresis dx=0 dy=0 dh=-30 dv=0 dx=0 dy=0 dh=0 dv=0
PairPos2: "'kern' Horizontal Kerning in Latin lookup 2 per glyph data 1" ecircumflex dx=0 dy=0 dh=-30 dv=0 dx=0 dy=0 dh=0 dv=0
PairPos2: "'kern' Horizontal Kerning in Latin lookup 2 per glyph data 1" eacute dx=0 dy=0 dh=-30 dv=0 dx=0 dy=0 dh=0 dv=0
PairPos2: "'kern' Horizontal Kerning in Latin lookup 2 per glyph data 1" egrave dx=0 dy=0 dh=-30 dv=0 dx=0 dy=0 dh=0 dv=0
PairPos2: "'kern' Horizontal Kerning in Latin lookup 2 per glyph data 1" ccedilla dx=0 dy=0 dh=-30 dv=0 dx=0 dy=0 dh=0 dv=0
PairPos2: "'kern' Horizontal Kerning in Latin lookup 2 per glyph data 1" ae dx=0 dy=0 dh=-30 dv=0 dx=0 dy=0 dh=0 dv=0
PairPos2: "'kern' Horizontal Kerning in Latin lookup 2 per glyph data 1" aring dx=0 dy=0 dh=-30 dv=0 dx=0 dy=0 dh=0 dv=0
PairPos2: "'kern' Horizontal Kerning in Latin lookup 2 per glyph data 1" adieresis dx=0 dy=0 dh=-30 dv=0 dx=0 dy=0 dh=0 dv=0
PairPos2: "'kern' Horizontal Kerning in Latin lookup 2 per glyph data 1" atilde dx=0 dy=0 dh=-30 dv=0 dx=0 dy=0 dh=0 dv=0
PairPos2: "'kern' Horizontal Kerning in Latin lookup 2 per glyph data 1" acircumflex dx=0 dy=0 dh=-30 dv=0 dx=0 dy=0 dh=0 dv=0
PairPos2: "'kern' Horizontal Kerning in Latin lookup 2 per glyph data 1" aacute dx=0 dy=0 dh=-30 dv=0 dx=0 dy=0 dh=0 dv=0
PairPos2: "'kern' Horizontal Kerning in Latin lookup 2 per glyph data 1" agrave dx=0 dy=0 dh=-30 dv=0 dx=0 dy=0 dh=0 dv=0
PairPos2: "'kern' Horizontal Kerning in Latin lookup 2 per glyph data 1" AE dx=0 dy=0 dh=-90 dv=0 dx=0 dy=0 dh=0 dv=0
PairPos2: "'kern' Horizontal Kerning in Latin lookup 2 per glyph data 1" Aring dx=0 dy=0 dh=-40 dv=0 dx=0 dy=0 dh=0 dv=0
PairPos2: "'kern' Horizontal Kerning in Latin lookup 2 per glyph data 1" Adieresis dx=0 dy=0 dh=-40 dv=0 dx=0 dy=0 dh=0 dv=0
PairPos2: "'kern' Horizontal Kerning in Latin lookup 2 per glyph data 1" Atilde dx=0 dy=0 dh=-40 dv=0 dx=0 dy=0 dh=0 dv=0
PairPos2: "'kern' Horizontal Kerning in Latin lookup 2 per glyph data 1" Acircumflex dx=0 dy=0 dh=-40 dv=0 dx=0 dy=0 dh=0 dv=0
PairPos2: "'kern' Horizontal Kerning in Latin lookup 2 per glyph data 1" Aacute dx=0 dy=0 dh=-40 dv=0 dx=0 dy=0 dh=0 dv=0
PairPos2: "'kern' Horizontal Kerning in Latin lookup 2 per glyph data 1" Agrave dx=0 dy=0 dh=-40 dv=0 dx=0 dy=0 dh=0 dv=0
PairPos2: "'kern' Horizontal Kerning in Latin lookup 2 per glyph data 1" brokenbar dx=0 dy=0 dh=50 dv=0 dx=0 dy=0 dh=0 dv=0
PairPos2: "'kern' Horizontal Kerning in Latin lookup 2 per glyph data 1" braceright dx=0 dy=0 dh=50 dv=0 dx=0 dy=0 dh=0 dv=0
PairPos2: "'kern' Horizontal Kerning in Latin lookup 2 per glyph data 1" bar dx=0 dy=0 dh=50 dv=0 dx=0 dy=0 dh=0 dv=0
PairPos2: "'kern' Horizontal Kerning in Latin lookup 2 per glyph data 1" q dx=0 dy=0 dh=-30 dv=0 dx=0 dy=0 dh=0 dv=0
PairPos2: "'kern' Horizontal Kerning in Latin lookup 2 per glyph data 1" o dx=0 dy=0 dh=-30 dv=0 dx=0 dy=0 dh=0 dv=0
PairPos2: "'kern' Horizontal Kerning in Latin lookup 2 per glyph data 1" g dx=0 dy=0 dh=-30 dv=0 dx=0 dy=0 dh=0 dv=0
PairPos2: "'kern' Horizontal Kerning in Latin lookup 2 per glyph data 1" e dx=0 dy=0 dh=-30 dv=0 dx=0 dy=0 dh=0 dv=0
PairPos2: "'kern' Horizontal Kerning in Latin lookup 2 per glyph data 1" d dx=0 dy=0 dh=-30 dv=0 dx=0 dy=0 dh=0 dv=0
PairPos2: "'kern' Horizontal Kerning in Latin lookup 2 per glyph data 1" c dx=0 dy=0 dh=-30 dv=0 dx=0 dy=0 dh=0 dv=0
PairPos2: "'kern' Horizontal Kerning in Latin lookup 2 per glyph data 1" a dx=0 dy=0 dh=-30 dv=0 dx=0 dy=0 dh=0 dv=0
PairPos2: "'kern' Horizontal Kerning in Latin lookup 2 per glyph data 1" bracketright dx=0 dy=0 dh=50 dv=0 dx=0 dy=0 dh=0 dv=0
PairPos2: "'kern' Horizontal Kerning in Latin lookup 2 per glyph data 1" A dx=0 dy=0 dh=-40 dv=0 dx=0 dy=0 dh=0 dv=0
PairPos2: "'kern' Horizontal Kerning in Latin lookup 2 per glyph data 1" parenright dx=0 dy=0 dh=50 dv=0 dx=0 dy=0 dh=0 dv=0
Position2: "'cpsp' Capital Spacing in Latin lookup 0 subtable" dx=7 dy=0 dh=20 dv=0
EndChar

StartChar: G
Encoding: 71 71 42
Width: 687
GlyphClass: 2
Flags: W
LayerCount: 2
Fore
SplineSet
480 314 m 1,0,-1
 479 339 l 1,1,-1
 477 364 l 1,2,3
 495 366 495 366 514 366 c 0,4,5
 560 366 560 366 578 346.5 c 128,-1,6
 596 327 596 327 596 280 c 0,7,8
 596 -25 596 -25 493 -196 c 0,9,10
 457 -255 457 -255 399.5 -292 c 128,-1,11
 342 -329 342 -329 269 -329 c 0,12,13
 170 -329 170 -329 120 -275.5 c 128,-1,14
 70 -222 70 -222 70 -156.5 c 128,-1,15
 70 -91 70 -91 99.5 -53.5 c 128,-1,16
 129 -16 129 -16 173 -16 c 0,17,18
 201 -16 201 -16 225 -33 c 1,19,20
 182 -92 182 -92 182 -150 c 0,21,22
 182 -271 182 -271 279 -271 c 128,-1,23
 376 -271 376 -271 426 -157 c 128,-1,24
 476 -43 476 -43 485 161 c 1,25,26
 449 96 449 96 395 62.5 c 128,-1,27
 341 29 341 29 282 29 c 0,28,29
 188 29 188 29 121.5 107 c 128,-1,30
 55 185 55 185 55 324 c 0,31,32
 55 516 55 516 148 656 c 0,33,34
 194 725 194 725 266.5 765.5 c 128,-1,35
 339 806 339 806 432 806 c 128,-1,36
 525 806 525 806 573.5 755.5 c 128,-1,37
 622 705 622 705 622 633.5 c 128,-1,38
 622 562 622 562 580.5 521.5 c 128,-1,39
 539 481 539 481 482 481 c 0,40,41
 399 481 399 481 357 539 c 1,42,43
 384 532 384 532 408 532 c 0,44,45
 465 532 465 532 497.5 566 c 128,-1,46
 530 600 530 600 530 644.5 c 128,-1,47
 530 689 530 689 500 718.5 c 128,-1,48
 470 748 470 748 415 748 c 0,49,50
 342 748 342 748 282.5 681 c 128,-1,51
 223 614 223 614 192.5 519 c 128,-1,52
 162 424 162 424 162 320.5 c 128,-1,53
 162 217 162 217 206.5 158 c 128,-1,54
 251 99 251 99 316 99 c 128,-1,55
 381 99 381 99 430.5 157.5 c 128,-1,56
 480 216 480 216 480 314 c 1,0,-1
EndSplineSet
Position2: "'cpsp' Capital Spacing in Latin lookup 0 subtable" dx=7 dy=0 dh=20 dv=0
EndChar

StartChar: H
Encoding: 72 72 43
Width: 791
GlyphClass: 2
Flags: W
LayerCount: 2
Fore
SplineSet
480 354 m 1,0,-1
 335 356 l 2,1,2
 289 356 289 356 244 353 c 1,3,4
 219 174 219 174 219 88 c 128,-1,5
 219 2 219 2 233 -31 c 1,6,7
 171 -9 171 -9 145.5 28.5 c 128,-1,8
 120 66 120 66 120 116.5 c 128,-1,9
 120 167 120 167 130.5 246.5 c 128,-1,10
 141 326 141 326 143 338 c 1,11,12
 109 330 109 330 92 324 c 1,13,14
 90 342 90 342 90 362 c 0,15,16
 90 419 90 419 156 429 c 1,17,18
 178 599 178 599 178 720 c 0,19,20
 178 750 178 750 174 802 c 1,21,22
 250 798 250 798 269 766 c 0,23,24
 279 748 279 748 282 731.5 c 128,-1,25
 285 715 285 715 285 675 c 128,-1,26
 285 635 285 635 270.5 538 c 128,-1,27
 256 441 256 441 255 432 c 1,28,29
 433 432 433 432 575 435 c 1,30,31
 597 602 597 602 597 720 c 0,32,33
 597 750 597 750 593 802 c 1,34,35
 669 798 669 798 688 766 c 0,36,37
 698 748 698 748 701 731.5 c 128,-1,38
 704 715 704 715 704 675 c 128,-1,39
 704 635 704 635 671 409 c 128,-1,40
 638 183 638 183 638 92.5 c 128,-1,41
 638 2 638 2 652 -31 c 1,42,43
 590 -9 590 -9 564.5 28.5 c 128,-1,44
 539 66 539 66 539 116.5 c 128,-1,45
 539 167 539 167 560 322 c 2,46,-1
 574 424 l 1,47,48
 559 354 559 354 480 354 c 1,0,-1
EndSplineSet
Position2: "'cpsp' Capital Spacing in Latin lookup 0 subtable" dx=7 dy=0 dh=20 dv=0
EndChar

StartChar: I
Encoding: 73 73 44
Width: 344
GlyphClass: 2
Flags: W
LayerCount: 2
Fore
SplineSet
254 731.5 m 128,-1,1
 257 715 257 715 257 675 c 128,-1,2
 257 635 257 635 224 409 c 128,-1,3
 191 183 191 183 191 92.5 c 128,-1,4
 191 2 191 2 205 -31 c 1,5,6
 143 -9 143 -9 117.5 28.5 c 128,-1,7
 92 66 92 66 92 116.5 c 128,-1,8
 92 167 92 167 113 322 c 1,9,10
 150 579 150 579 150 720 c 0,11,12
 150 750 150 750 146 802 c 1,13,14
 222 798 222 798 241 766 c 0,15,0
 251 748 251 748 254 731.5 c 128,-1,1
EndSplineSet
Position2: "'cpsp' Capital Spacing in Latin lookup 0 subtable" dx=7 dy=0 dh=20 dv=0
EndChar

StartChar: J
Encoding: 74 74 45
Width: 518
GlyphClass: 2
Flags: W
LayerCount: 2
Fore
SplineSet
78 46 m 128,-1,1
 97 21 97 21 128.5 21 c 128,-1,2
 160 21 160 21 180.5 30.5 c 128,-1,3
 201 40 201 40 215 60.5 c 128,-1,4
 229 81 229 81 239 106 c 128,-1,5
 249 131 249 131 255 169.5 c 128,-1,6
 261 208 261 208 264.5 246 c 128,-1,7
 268 284 268 284 270.5 337.5 c 128,-1,8
 273 391 273 391 274 438 c 0,9,10
 279 572 279 572 286 672 c 1,11,12
 242 670 242 670 230 670 c 0,13,14
 173 670 173 670 173 728 c 0,15,16
 173 752 173 752 179 776 c 1,17,18
 248 760 248 760 338.5 760 c 128,-1,19
 429 760 429 760 534 792 c 1,20,21
 529 744 529 744 496.5 717.5 c 128,-1,22
 464 691 464 691 431 686 c 1,23,24
 412 682 412 682 396 681 c 1,25,26
 375 472 375 472 366.5 344 c 128,-1,27
 358 216 358 216 337 142.5 c 128,-1,28
 316 69 316 69 283 31.5 c 128,-1,29
 250 -6 250 -6 214.5 -21 c 128,-1,30
 179 -36 179 -36 135 -36 c 0,31,32
 47 -36 47 -36 2 13.5 c 128,-1,33
 -43 63 -43 63 -43 132 c 0,34,35
 -43 180 -43 180 -14.5 215.5 c 128,-1,36
 14 251 14 251 65 251 c 0,37,38
 91 251 91 251 114 235 c 1,39,40
 88 213 88 213 73.5 178 c 128,-1,41
 59 143 59 143 59 107 c 128,-1,0
 59 71 59 71 78 46 c 128,-1,1
EndSplineSet
Position2: "'cpsp' Capital Spacing in Latin lookup 0 subtable" dx=7 dy=0 dh=20 dv=0
EndChar

StartChar: K
Encoding: 75 75 46
Width: 671
GlyphClass: 2
Flags: W
LayerCount: 2
Fore
SplineSet
254 731.5 m 128,-1,1
 257 715 257 715 257 675 c 128,-1,2
 257 635 257 635 232 464 c 2,3,-1
 219 374 l 1,4,5
 526 625 526 625 599 799 c 1,6,7
 622 753 622 753 622 695.5 c 128,-1,8
 622 638 622 638 563 576 c 128,-1,9
 504 514 504 514 389 432 c 1,10,11
 445 257 445 257 500 162.5 c 128,-1,12
 555 68 555 68 641 -23 c 1,13,14
 621 -33 621 -33 588 -33 c 128,-1,15
 555 -33 555 -33 516.5 -9 c 128,-1,16
 478 15 478 15 448.5 51 c 128,-1,17
 419 87 419 87 389 144 c 0,18,19
 343 230 343 230 294 365 c 1,20,21
 289 361 289 361 257.5 339.5 c 128,-1,22
 226 318 226 318 210 306 c 1,23,24
 191 161 191 161 191 81.5 c 128,-1,25
 191 2 191 2 205 -31 c 1,26,27
 143 -9 143 -9 117.5 28.5 c 128,-1,28
 92 66 92 66 92 116.5 c 128,-1,29
 92 167 92 167 113 322 c 1,30,31
 150 579 150 579 150 720 c 0,32,33
 150 750 150 750 146 802 c 1,34,35
 222 798 222 798 241 766 c 0,36,0
 251 748 251 748 254 731.5 c 128,-1,1
EndSplineSet
Position2: "'cpsp' Capital Spacing in Latin lookup 0 subtable" dx=7 dy=0 dh=20 dv=0
EndChar

StartChar: L
Encoding: 76 76 47
Width: 547
GlyphClass: 2
Flags: W
LayerCount: 2
Fore
SplineSet
110 60 m 1,0,1
 101 84 101 84 101 127 c 128,-1,2
 101 170 101 170 130 381 c 128,-1,3
 159 592 159 592 159 720 c 0,4,5
 159 750 159 750 155 802 c 1,6,7
 231 798 231 798 250 766 c 0,8,9
 260 748 260 748 263 731.5 c 128,-1,10
 266 715 266 715 266 679.5 c 128,-1,11
 266 644 266 644 233.5 412.5 c 128,-1,12
 201 181 201 181 200 83 c 1,13,14
 205 84 205 84 218 84 c 0,15,16
 434 84 434 84 540 114 c 1,17,18
 533 56 533 56 500.5 24 c 128,-1,19
 468 -8 468 -8 419 -8 c 0,20,21
 405 -8 405 -8 332.5 -1.5 c 128,-1,22
 260 5 260 5 192 5 c 128,-1,23
 124 5 124 5 56 -8 c 1,24,25
 69 36 69 36 110 60 c 1,0,1
EndSplineSet
Position2: "'cpsp' Capital Spacing in Latin lookup 0 subtable" dx=7 dy=0 dh=20 dv=0
EndChar

StartChar: M
Encoding: 77 77 48
Width: 927
GlyphClass: 2
Flags: W
LayerCount: 2
Fore
SplineSet
818 767.5 m 128,-1,1
 842 738 842 738 842 686.5 c 128,-1,2
 842 635 842 635 809 409 c 128,-1,3
 776 183 776 183 776 92.5 c 128,-1,4
 776 2 776 2 790 -31 c 1,5,6
 724 -9 724 -9 698.5 28 c 128,-1,7
 673 65 673 65 673 116 c 128,-1,8
 673 167 673 167 695.5 331 c 128,-1,9
 718 495 718 495 725 581 c 1,10,11
 684 502 684 502 588.5 357 c 128,-1,12
 493 212 493 212 478 188 c 1,13,14
 454 174 454 174 428 174 c 0,15,16
 381 174 381 174 375 191 c 0,17,18
 364 219 364 219 340.5 280.5 c 128,-1,19
 317 342 317 342 302 381 c 0,20,21
 258 491 258 491 223 566 c 1,22,23
 222 559 222 559 198.5 373.5 c 128,-1,24
 175 188 175 188 175 78 c 0,25,26
 175 47 175 47 179 -5 c 1,27,28
 75 -5 75 -5 75 58 c 0,29,30
 75 67 75 67 113.5 329.5 c 128,-1,31
 152 592 152 592 152 695 c 2,32,-1
 152 700 l 1,33,34
 123 747 123 747 91 777 c 1,35,36
 115 803 115 803 150 803 c 0,37,38
 218 803 218 803 259.5 726.5 c 128,-1,39
 301 650 301 650 444 273 c 0,40,41
 447 267 447 267 448 264 c 1,42,43
 457 278 457 278 497 336 c 128,-1,44
 537 394 537 394 557.5 425.5 c 128,-1,45
 578 457 578 457 614 515.5 c 128,-1,46
 650 574 650 574 670 616 c 0,47,48
 726 730 726 730 738 802 c 1,49,0
 794 797 794 797 818 767.5 c 128,-1,1
EndSplineSet
Position2: "'cpsp' Capital Spacing in Latin lookup 0 subtable" dx=7 dy=0 dh=20 dv=0
EndChar

StartChar: N
Encoding: 78 78 49
Width: 821
GlyphClass: 2
Flags: W
LayerCount: 2
Fore
SplineSet
185 78 m 0,0,1
 185 47 185 47 189 -5 c 1,2,3
 85 -5 85 -5 85 58 c 0,4,5
 85 68 85 68 123.5 330 c 128,-1,6
 162 592 162 592 162 694 c 1,7,-1
 156 703 l 2,8,9
 138 730 138 730 121.5 742 c 128,-1,10
 105 754 105 754 91 762.5 c 128,-1,11
 77 771 77 771 75 773 c 1,12,13
 116 802 116 802 155 802 c 0,14,15
 225 802 225 802 265 742 c 0,16,17
 322 655 322 655 458 375 c 0,18,19
 546 194 546 194 593 125 c 1,20,21
 595 187 595 187 621 393 c 128,-1,22
 647 599 647 599 647 720 c 0,23,24
 647 751 647 751 643 801 c 1,25,26
 746 801 746 801 746 740 c 0,27,28
 746 729 746 729 708 461 c 128,-1,29
 670 193 670 193 670 90 c 0,30,31
 670 53 670 53 672 36 c 1,32,33
 680 29 680 29 698 19 c 1,34,35
 646 -21 646 -21 602 -21 c 128,-1,36
 558 -21 558 -21 524 38 c 1,37,38
 507 63 507 63 459 154 c 0,39,40
 290 477 290 477 234 575 c 1,41,42
 232 551 232 551 208.5 370 c 128,-1,43
 185 189 185 189 185 78 c 0,0,1
EndSplineSet
Position2: "'cpsp' Capital Spacing in Latin lookup 0 subtable" dx=7 dy=0 dh=20 dv=0
EndChar

StartChar: O
Encoding: 79 79 50
Width: 802
GlyphClass: 2
Flags: W
LayerCount: 2
Fore
SplineSet
579 664 m 128,-1,1
 534 731 534 731 457 731 c 128,-1,2
 380 731 380 731 315 670 c 128,-1,3
 250 609 250 609 216 517.5 c 128,-1,4
 182 426 182 426 182 330 c 0,5,6
 182 201 182 201 229.5 118 c 128,-1,7
 277 35 277 35 372 35 c 0,8,9
 449 35 449 35 508 98 c 128,-1,10
 567 161 567 161 595.5 254 c 128,-1,11
 624 347 624 347 624 450 c 0,12,0
 624 597 624 597 579 664 c 128,-1,1
502.5 5 m 128,-1,14
 438 -25 438 -25 361.5 -25 c 128,-1,15
 285 -25 285 -25 226.5 11 c 128,-1,16
 168 47 168 47 134 107 c 0,17,18
 65 229 65 229 65 386 c 128,-1,19
 65 543 65 543 142 665.5 c 128,-1,20
 219 788 219 788 342 827 c 1,21,22
 359 823 359 823 361 811 c 1,23,24
 291 768 291 768 246.5 710 c 128,-1,25
 202 652 202 652 185 553 c 1,26,27
 227 670 227 670 316 737 c 128,-1,28
 405 804 405 804 502.5 804 c 128,-1,29
 600 804 600 804 668.5 720.5 c 128,-1,30
 737 637 737 637 737 479 c 0,31,32
 737 325 737 325 682 200 c 0,33,34
 653 134 653 134 610 84.5 c 128,-1,13
 567 35 567 35 502.5 5 c 128,-1,14
EndSplineSet
Position2: "'cpsp' Capital Spacing in Latin lookup 0 subtable" dx=7 dy=0 dh=20 dv=0
EndChar

StartChar: P
Encoding: 80 80 51
Width: 621
GlyphClass: 2
Flags: W
LayerCount: 2
Fore
SplineSet
262 695 m 1,0,-1
 263 683 l 1,1,2
 263 645 263 645 234.5 434.5 c 128,-1,3
 206 224 206 224 206 83 c 0,4,5
 206 20 206 20 212 -15 c 1,6,7
 188 -17 188 -17 186 -17 c 0,8,9
 141 -17 141 -17 119 3.5 c 128,-1,10
 97 24 97 24 97 70.5 c 128,-1,11
 97 117 97 117 130.5 354.5 c 128,-1,12
 164 592 164 592 164 693.5 c 128,-1,13
 164 795 164 795 150 826 c 1,14,15
 182 822 182 822 209.5 801.5 c 128,-1,16
 237 781 237 781 251 747 c 1,17,18
 327 788 327 788 420.5 788 c 128,-1,19
 514 788 514 788 567.5 730.5 c 128,-1,20
 621 673 621 673 621 589 c 0,21,22
 621 482 621 482 543 396.5 c 128,-1,23
 465 311 465 311 333 311 c 0,24,25
 303 311 303 311 278 315 c 1,26,-1
 275 347 l 1,27,28
 342 347 342 347 392 367 c 128,-1,29
 442 387 442 387 468 420 c 0,30,31
 519 484 519 484 519 570 c 0,32,33
 519 632 519 632 479.5 673.5 c 128,-1,34
 440 715 440 715 365 715 c 0,35,36
 320 715 320 715 262 695 c 1,0,-1
EndSplineSet
PairPos2: "'kern' Horizontal Kerning in Latin lookup 2 per glyph data 1" quotedblright dx=0 dy=0 dh=30 dv=0 dx=0 dy=0 dh=0 dv=0
PairPos2: "'kern' Horizontal Kerning in Latin lookup 2 per glyph data 1" quotedblleft dx=0 dy=0 dh=30 dv=0 dx=0 dy=0 dh=0 dv=0
PairPos2: "'kern' Horizontal Kerning in Latin lookup 2 per glyph data 1" quoteright dx=0 dy=0 dh=30 dv=0 dx=0 dy=0 dh=0 dv=0
PairPos2: "'kern' Horizontal Kerning in Latin lookup 2 per glyph data 1" quoteleft dx=0 dy=0 dh=30 dv=0 dx=0 dy=0 dh=0 dv=0
PairPos2: "'kern' Horizontal Kerning in Latin lookup 2 per glyph data 1" oe dx=0 dy=0 dh=-30 dv=0 dx=0 dy=0 dh=0 dv=0
PairPos2: "'kern' Horizontal Kerning in Latin lookup 2 per glyph data 1" oslash dx=0 dy=0 dh=-30 dv=0 dx=0 dy=0 dh=0 dv=0
PairPos2: "'kern' Horizontal Kerning in Latin lookup 2 per glyph data 1" odieresis dx=0 dy=0 dh=-30 dv=0 dx=0 dy=0 dh=0 dv=0
PairPos2: "'kern' Horizontal Kerning in Latin lookup 2 per glyph data 1" otilde dx=0 dy=0 dh=-30 dv=0 dx=0 dy=0 dh=0 dv=0
PairPos2: "'kern' Horizontal Kerning in Latin lookup 2 per glyph data 1" ocircumflex dx=0 dy=0 dh=-30 dv=0 dx=0 dy=0 dh=0 dv=0
PairPos2: "'kern' Horizontal Kerning in Latin lookup 2 per glyph data 1" oacute dx=0 dy=0 dh=-30 dv=0 dx=0 dy=0 dh=0 dv=0
PairPos2: "'kern' Horizontal Kerning in Latin lookup 2 per glyph data 1" ograve dx=0 dy=0 dh=-30 dv=0 dx=0 dy=0 dh=0 dv=0
PairPos2: "'kern' Horizontal Kerning in Latin lookup 2 per glyph data 1" eth dx=0 dy=0 dh=-30 dv=0 dx=0 dy=0 dh=0 dv=0
PairPos2: "'kern' Horizontal Kerning in Latin lookup 2 per glyph data 1" edieresis dx=0 dy=0 dh=-30 dv=0 dx=0 dy=0 dh=0 dv=0
PairPos2: "'kern' Horizontal Kerning in Latin lookup 2 per glyph data 1" ecircumflex dx=0 dy=0 dh=-30 dv=0 dx=0 dy=0 dh=0 dv=0
PairPos2: "'kern' Horizontal Kerning in Latin lookup 2 per glyph data 1" eacute dx=0 dy=0 dh=-30 dv=0 dx=0 dy=0 dh=0 dv=0
PairPos2: "'kern' Horizontal Kerning in Latin lookup 2 per glyph data 1" egrave dx=0 dy=0 dh=-30 dv=0 dx=0 dy=0 dh=0 dv=0
PairPos2: "'kern' Horizontal Kerning in Latin lookup 2 per glyph data 1" ccedilla dx=0 dy=0 dh=-30 dv=0 dx=0 dy=0 dh=0 dv=0
PairPos2: "'kern' Horizontal Kerning in Latin lookup 2 per glyph data 1" AE dx=0 dy=0 dh=-80 dv=0 dx=0 dy=0 dh=0 dv=0
PairPos2: "'kern' Horizontal Kerning in Latin lookup 2 per glyph data 1" Aring dx=0 dy=0 dh=-50 dv=0 dx=0 dy=0 dh=0 dv=0
PairPos2: "'kern' Horizontal Kerning in Latin lookup 2 per glyph data 1" Adieresis dx=0 dy=0 dh=-50 dv=0 dx=0 dy=0 dh=0 dv=0
PairPos2: "'kern' Horizontal Kerning in Latin lookup 2 per glyph data 1" Atilde dx=0 dy=0 dh=-50 dv=0 dx=0 dy=0 dh=0 dv=0
PairPos2: "'kern' Horizontal Kerning in Latin lookup 2 per glyph data 1" Acircumflex dx=0 dy=0 dh=-50 dv=0 dx=0 dy=0 dh=0 dv=0
PairPos2: "'kern' Horizontal Kerning in Latin lookup 2 per glyph data 1" Aacute dx=0 dy=0 dh=-50 dv=0 dx=0 dy=0 dh=0 dv=0
PairPos2: "'kern' Horizontal Kerning in Latin lookup 2 per glyph data 1" Agrave dx=0 dy=0 dh=-50 dv=0 dx=0 dy=0 dh=0 dv=0
PairPos2: "'kern' Horizontal Kerning in Latin lookup 2 per glyph data 1" q dx=0 dy=0 dh=-30 dv=0 dx=0 dy=0 dh=0 dv=0
PairPos2: "'kern' Horizontal Kerning in Latin lookup 2 per glyph data 1" o dx=0 dy=0 dh=-30 dv=0 dx=0 dy=0 dh=0 dv=0
PairPos2: "'kern' Horizontal Kerning in Latin lookup 2 per glyph data 1" g dx=0 dy=0 dh=-30 dv=0 dx=0 dy=0 dh=0 dv=0
PairPos2: "'kern' Horizontal Kerning in Latin lookup 2 per glyph data 1" e dx=0 dy=0 dh=-30 dv=0 dx=0 dy=0 dh=0 dv=0
PairPos2: "'kern' Horizontal Kerning in Latin lookup 2 per glyph data 1" d dx=0 dy=0 dh=-30 dv=0 dx=0 dy=0 dh=0 dv=0
PairPos2: "'kern' Horizontal Kerning in Latin lookup 2 per glyph data 1" c dx=0 dy=0 dh=-30 dv=0 dx=0 dy=0 dh=0 dv=0
PairPos2: "'kern' Horizontal Kerning in Latin lookup 2 per glyph data 1" A dx=0 dy=0 dh=-50 dv=0 dx=0 dy=0 dh=0 dv=0
PairPos2: "'kern' Horizontal Kerning in Latin lookup 2 per glyph data 1" quotesingle dx=0 dy=0 dh=30 dv=0 dx=0 dy=0 dh=0 dv=0
PairPos2: "'kern' Horizontal Kerning in Latin lookup 2 per glyph data 1" quotedbl dx=0 dy=0 dh=30 dv=0 dx=0 dy=0 dh=0 dv=0
Position2: "'cpsp' Capital Spacing in Latin lookup 0 subtable" dx=7 dy=0 dh=20 dv=0
EndChar

StartChar: Q
Encoding: 81 81 52
Width: 787
GlyphClass: 2
Flags: W
LayerCount: 2
Fore
SplineSet
586 649 m 128,-1,1
 538 732 538 732 442 732 c 0,2,3
 371 732 371 732 310 673 c 128,-1,4
 249 614 249 614 215.5 524 c 128,-1,5
 182 434 182 434 182 341 c 0,6,7
 182 143 182 143 285 143 c 0,8,9
 379 143 379 143 379 259 c 0,10,11
 379 295 379 295 366.5 324.5 c 128,-1,12
 354 354 354 354 342 366 c 1,13,-1
 329 377 l 1,14,15
 354 389 354 389 388.5 389 c 128,-1,16
 423 389 423 389 455.5 362 c 128,-1,17
 488 335 488 335 488 279 c 0,18,19
 488 183 488 183 429.5 131 c 128,-1,20
 371 79 371 79 289.5 79 c 128,-1,21
 208 79 208 79 145 147 c 128,-1,22
 82 215 82 215 82 346 c 0,23,24
 82 473 82 473 142 588 c 0,25,26
 173 648 173 648 218.5 695 c 128,-1,27
 264 742 264 742 334 771 c 128,-1,28
 404 800 404 800 487 800 c 0,29,30
 592 800 592 800 664.5 716 c 128,-1,31
 737 632 737 632 737 475 c 0,32,33
 737 333 737 333 680 213 c 0,34,35
 649 146 649 146 600.5 91 c 128,-1,36
 552 36 552 36 474 -9 c 128,-1,37
 396 -54 396 -54 297 -77 c 1,38,39
 315 -83 315 -83 372 -104.5 c 128,-1,40
 429 -126 429 -126 453 -135 c 128,-1,41
 477 -144 477 -144 528 -160.5 c 128,-1,42
 579 -177 579 -177 612 -185 c 0,43,44
 700 -206 700 -206 774 -210 c 1,45,46
 753 -259 753 -259 720.5 -285.5 c 128,-1,47
 688 -312 688 -312 650.5 -312 c 128,-1,48
 613 -312 613 -312 463 -237.5 c 128,-1,49
 313 -163 313 -163 257 -144 c 0,50,51
 148 -106 148 -106 78 -104 c 1,52,53
 119 -46 119 -46 187 -46 c 1,54,55
 288 -35 288 -35 368 2 c 128,-1,56
 448 39 448 39 497 88.5 c 128,-1,57
 546 138 546 138 578 200 c 0,58,59
 634 310 634 310 634 438 c 128,-1,0
 634 566 634 566 586 649 c 128,-1,1
EndSplineSet
Position2: "'cpsp' Capital Spacing in Latin lookup 0 subtable" dx=7 dy=0 dh=20 dv=0
EndChar

StartChar: R
Encoding: 82 82 53
Width: 675
GlyphClass: 2
Flags: W
LayerCount: 2
Fore
SplineSet
114 3.5 m 128,-1,1
 92 24 92 24 92 70.5 c 128,-1,2
 92 117 92 117 125.5 354.5 c 128,-1,3
 159 592 159 592 159 693.5 c 128,-1,4
 159 795 159 795 145 826 c 1,5,6
 225 818 225 818 249 747 c 1,7,8
 323 787 323 787 411 787 c 128,-1,9
 499 787 499 787 554 730.5 c 128,-1,10
 609 674 609 674 609 599.5 c 128,-1,11
 609 525 609 525 564.5 461.5 c 128,-1,12
 520 398 520 398 429 368 c 1,13,-1
 443 325 l 2,14,15
 479 216 479 216 547 108.5 c 128,-1,16
 615 1 615 1 658 -38 c 1,17,18
 637 -48 637 -48 597.5 -48 c 128,-1,19
 558 -48 558 -48 515.5 -13 c 128,-1,20
 473 22 473 22 438 86 c 0,21,22
 378 198 378 198 330 348 c 1,23,24
 294 346 294 346 275 346 c 1,25,-1
 272 382 l 1,26,27
 384 386 384 386 445.5 447 c 128,-1,28
 507 508 507 508 507 591 c 0,29,30
 507 644 507 644 471.5 679 c 128,-1,31
 436 714 436 714 376 714 c 128,-1,32
 316 714 316 714 258 693 c 1,33,34
 258 654 258 654 229.5 440 c 128,-1,35
 201 226 201 226 201 83 c 0,36,37
 201 20 201 20 207 -15 c 1,38,39
 183 -17 183 -17 181 -17 c 0,40,0
 136 -17 136 -17 114 3.5 c 128,-1,1
EndSplineSet
Position2: "'cpsp' Capital Spacing in Latin lookup 0 subtable" dx=7 dy=0 dh=20 dv=0
EndChar

StartChar: S
Encoding: 83 83 54
Width: 629
GlyphClass: 2
Flags: W
LayerCount: 2
Fore
SplineSet
272 496 m 0,0,1
 302 469 302 469 338.5 442.5 c 128,-1,2
 375 416 375 416 411.5 389 c 128,-1,3
 448 362 448 362 478 334 c 0,4,5
 546 271 546 271 546 195 c 0,6,7
 546 101 546 101 474.5 38 c 128,-1,8
 403 -25 403 -25 286 -25 c 128,-1,9
 169 -25 169 -25 106 28 c 128,-1,10
 43 81 43 81 43 154 c 0,11,12
 43 208 43 208 75 241.5 c 128,-1,13
 107 275 107 275 158 275 c 0,14,15
 172 275 172 275 185 271 c 1,16,17
 154 224 154 224 154 170.5 c 128,-1,18
 154 117 154 117 191 79 c 128,-1,19
 228 41 228 41 302 41 c 0,20,21
 355 41 355 41 396.5 73.5 c 128,-1,22
 438 106 438 106 438 164 c 0,23,24
 438 202 438 202 413 238.5 c 128,-1,25
 388 275 388 275 351 303 c 128,-1,26
 314 331 314 331 270 365.5 c 128,-1,27
 226 400 226 400 189 432 c 128,-1,28
 152 464 152 464 127 510 c 128,-1,29
 102 556 102 556 102 606 c 0,30,31
 102 701 102 701 166.5 756.5 c 128,-1,32
 231 812 231 812 353 812 c 0,33,34
 452 812 452 812 508.5 759.5 c 128,-1,35
 565 707 565 707 565 650.5 c 128,-1,36
 565 594 565 594 534.5 558 c 128,-1,37
 504 522 504 522 451 522 c 0,38,39
 433 522 433 522 416 526 c 1,40,41
 465 578 465 578 465 636 c 128,-1,42
 465 694 465 694 429 723.5 c 128,-1,43
 393 753 393 753 337.5 753 c 128,-1,44
 282 753 282 753 243 721 c 128,-1,45
 204 689 204 689 204 624 c 128,-1,46
 204 559 204 559 272 496 c 0,0,1
EndSplineSet
Position2: "'cpsp' Capital Spacing in Latin lookup 0 subtable" dx=7 dy=0 dh=20 dv=0
EndChar

StartChar: T
Encoding: 84 84 55
Width: 543
GlyphClass: 2
Flags: W
LayerCount: 2
Fore
SplineSet
49 729 m 0,0,1
 49 751 49 751 56 772 c 1,2,3
 161 759 161 759 296 759 c 128,-1,4
 431 759 431 759 574 785 c 1,5,6
 560 692 560 692 458 684 c 0,7,8
 405 679 405 679 351 676 c 1,9,10
 350 637 350 637 317.5 406 c 128,-1,11
 285 175 285 175 285 88.5 c 128,-1,12
 285 2 285 2 299 -31 c 1,13,14
 237 -9 237 -9 211.5 28.5 c 128,-1,15
 186 66 186 66 186 118.5 c 128,-1,16
 186 171 186 171 212.5 362.5 c 128,-1,17
 239 554 239 554 243 671 c 1,18,19
 156 668 156 668 93 668 c 0,20,21
 49 668 49 668 49 729 c 0,0,1
EndSplineSet
PairPos2: "'kern' Horizontal Kerning in Latin lookup 2 per glyph data 1" ellipsis dx=0 dy=0 dh=-70 dv=0 dx=0 dy=0 dh=0 dv=0
PairPos2: "'kern' Horizontal Kerning in Latin lookup 2 per glyph data 1" quotedblbase dx=0 dy=0 dh=-70 dv=0 dx=0 dy=0 dh=0 dv=0
PairPos2: "'kern' Horizontal Kerning in Latin lookup 2 per glyph data 1" quotesinglbase dx=0 dy=0 dh=-70 dv=0 dx=0 dy=0 dh=0 dv=0
PairPos2: "'kern' Horizontal Kerning in Latin lookup 2 per glyph data 1" scaron dx=0 dy=0 dh=-60 dv=0 dx=0 dy=0 dh=0 dv=0
PairPos2: "'kern' Horizontal Kerning in Latin lookup 2 per glyph data 1" oe dx=0 dy=0 dh=-100 dv=0 dx=0 dy=0 dh=0 dv=0
PairPos2: "'kern' Horizontal Kerning in Latin lookup 2 per glyph data 1" dotlessi dx=0 dy=0 dh=-60 dv=0 dx=0 dy=0 dh=0 dv=0
PairPos2: "'kern' Horizontal Kerning in Latin lookup 2 per glyph data 1" ydieresis dx=0 dy=0 dh=-80 dv=0 dx=0 dy=0 dh=0 dv=0
PairPos2: "'kern' Horizontal Kerning in Latin lookup 2 per glyph data 1" yacute dx=0 dy=0 dh=-80 dv=0 dx=0 dy=0 dh=0 dv=0
PairPos2: "'kern' Horizontal Kerning in Latin lookup 2 per glyph data 1" udieresis dx=0 dy=0 dh=-60 dv=0 dx=0 dy=0 dh=0 dv=0
PairPos2: "'kern' Horizontal Kerning in Latin lookup 2 per glyph data 1" ucircumflex dx=0 dy=0 dh=-60 dv=0 dx=0 dy=0 dh=0 dv=0
PairPos2: "'kern' Horizontal Kerning in Latin lookup 2 per glyph data 1" uacute dx=0 dy=0 dh=-60 dv=0 dx=0 dy=0 dh=0 dv=0
PairPos2: "'kern' Horizontal Kerning in Latin lookup 2 per glyph data 1" ugrave dx=0 dy=0 dh=-60 dv=0 dx=0 dy=0 dh=0 dv=0
PairPos2: "'kern' Horizontal Kerning in Latin lookup 2 per glyph data 1" oslash dx=0 dy=0 dh=-100 dv=0 dx=0 dy=0 dh=0 dv=0
PairPos2: "'kern' Horizontal Kerning in Latin lookup 2 per glyph data 1" odieresis dx=0 dy=0 dh=-100 dv=0 dx=0 dy=0 dh=0 dv=0
PairPos2: "'kern' Horizontal Kerning in Latin lookup 2 per glyph data 1" otilde dx=0 dy=0 dh=-100 dv=0 dx=0 dy=0 dh=0 dv=0
PairPos2: "'kern' Horizontal Kerning in Latin lookup 2 per glyph data 1" ocircumflex dx=0 dy=0 dh=-100 dv=0 dx=0 dy=0 dh=0 dv=0
PairPos2: "'kern' Horizontal Kerning in Latin lookup 2 per glyph data 1" oacute dx=0 dy=0 dh=-100 dv=0 dx=0 dy=0 dh=0 dv=0
PairPos2: "'kern' Horizontal Kerning in Latin lookup 2 per glyph data 1" ograve dx=0 dy=0 dh=-100 dv=0 dx=0 dy=0 dh=0 dv=0
PairPos2: "'kern' Horizontal Kerning in Latin lookup 2 per glyph data 1" ntilde dx=0 dy=0 dh=-60 dv=0 dx=0 dy=0 dh=0 dv=0
PairPos2: "'kern' Horizontal Kerning in Latin lookup 2 per glyph data 1" eth dx=0 dy=0 dh=-100 dv=0 dx=0 dy=0 dh=0 dv=0
PairPos2: "'kern' Horizontal Kerning in Latin lookup 2 per glyph data 1" edieresis dx=0 dy=0 dh=-100 dv=0 dx=0 dy=0 dh=0 dv=0
PairPos2: "'kern' Horizontal Kerning in Latin lookup 2 per glyph data 1" ecircumflex dx=0 dy=0 dh=-100 dv=0 dx=0 dy=0 dh=0 dv=0
PairPos2: "'kern' Horizontal Kerning in Latin lookup 2 per glyph data 1" eacute dx=0 dy=0 dh=-100 dv=0 dx=0 dy=0 dh=0 dv=0
PairPos2: "'kern' Horizontal Kerning in Latin lookup 2 per glyph data 1" egrave dx=0 dy=0 dh=-100 dv=0 dx=0 dy=0 dh=0 dv=0
PairPos2: "'kern' Horizontal Kerning in Latin lookup 2 per glyph data 1" ccedilla dx=0 dy=0 dh=-100 dv=0 dx=0 dy=0 dh=0 dv=0
PairPos2: "'kern' Horizontal Kerning in Latin lookup 2 per glyph data 1" ae dx=0 dy=0 dh=-90 dv=0 dx=0 dy=0 dh=0 dv=0
PairPos2: "'kern' Horizontal Kerning in Latin lookup 2 per glyph data 1" aring dx=0 dy=0 dh=-90 dv=0 dx=0 dy=0 dh=0 dv=0
PairPos2: "'kern' Horizontal Kerning in Latin lookup 2 per glyph data 1" adieresis dx=0 dy=0 dh=-90 dv=0 dx=0 dy=0 dh=0 dv=0
PairPos2: "'kern' Horizontal Kerning in Latin lookup 2 per glyph data 1" atilde dx=0 dy=0 dh=-90 dv=0 dx=0 dy=0 dh=0 dv=0
PairPos2: "'kern' Horizontal Kerning in Latin lookup 2 per glyph data 1" acircumflex dx=0 dy=0 dh=-90 dv=0 dx=0 dy=0 dh=0 dv=0
PairPos2: "'kern' Horizontal Kerning in Latin lookup 2 per glyph data 1" aacute dx=0 dy=0 dh=-90 dv=0 dx=0 dy=0 dh=0 dv=0
PairPos2: "'kern' Horizontal Kerning in Latin lookup 2 per glyph data 1" agrave dx=0 dy=0 dh=-90 dv=0 dx=0 dy=0 dh=0 dv=0
PairPos2: "'kern' Horizontal Kerning in Latin lookup 2 per glyph data 1" AE dx=0 dy=0 dh=-90 dv=0 dx=0 dy=0 dh=0 dv=0
PairPos2: "'kern' Horizontal Kerning in Latin lookup 2 per glyph data 1" Aring dx=0 dy=0 dh=-50 dv=0 dx=0 dy=0 dh=0 dv=0
PairPos2: "'kern' Horizontal Kerning in Latin lookup 2 per glyph data 1" Adieresis dx=0 dy=0 dh=-50 dv=0 dx=0 dy=0 dh=0 dv=0
PairPos2: "'kern' Horizontal Kerning in Latin lookup 2 per glyph data 1" Atilde dx=0 dy=0 dh=-50 dv=0 dx=0 dy=0 dh=0 dv=0
PairPos2: "'kern' Horizontal Kerning in Latin lookup 2 per glyph data 1" Acircumflex dx=0 dy=0 dh=-50 dv=0 dx=0 dy=0 dh=0 dv=0
PairPos2: "'kern' Horizontal Kerning in Latin lookup 2 per glyph data 1" Aacute dx=0 dy=0 dh=-50 dv=0 dx=0 dy=0 dh=0 dv=0
PairPos2: "'kern' Horizontal Kerning in Latin lookup 2 per glyph data 1" Agrave dx=0 dy=0 dh=-50 dv=0 dx=0 dy=0 dh=0 dv=0
PairPos2: "'kern' Horizontal Kerning in Latin lookup 2 per glyph data 1" mu dx=0 dy=0 dh=-60 dv=0 dx=0 dy=0 dh=0 dv=0
PairPos2: "'kern' Horizontal Kerning in Latin lookup 2 per glyph data 1" brokenbar dx=0 dy=0 dh=30 dv=0 dx=0 dy=0 dh=0 dv=0
PairPos2: "'kern' Horizontal Kerning in Latin lookup 2 per glyph data 1" braceright dx=0 dy=0 dh=30 dv=0 dx=0 dy=0 dh=0 dv=0
PairPos2: "'kern' Horizontal Kerning in Latin lookup 2 per glyph data 1" bar dx=0 dy=0 dh=30 dv=0 dx=0 dy=0 dh=0 dv=0
PairPos2: "'kern' Horizontal Kerning in Latin lookup 2 per glyph data 1" z dx=0 dy=0 dh=-60 dv=0 dx=0 dy=0 dh=0 dv=0
PairPos2: "'kern' Horizontal Kerning in Latin lookup 2 per glyph data 1" y dx=0 dy=0 dh=-80 dv=0 dx=0 dy=0 dh=0 dv=0
PairPos2: "'kern' Horizontal Kerning in Latin lookup 2 per glyph data 1" w dx=0 dy=0 dh=-80 dv=0 dx=0 dy=0 dh=0 dv=0
PairPos2: "'kern' Horizontal Kerning in Latin lookup 2 per glyph data 1" v dx=0 dy=0 dh=-80 dv=0 dx=0 dy=0 dh=0 dv=0
PairPos2: "'kern' Horizontal Kerning in Latin lookup 2 per glyph data 1" u dx=0 dy=0 dh=-60 dv=0 dx=0 dy=0 dh=0 dv=0
PairPos2: "'kern' Horizontal Kerning in Latin lookup 2 per glyph data 1" t dx=0 dy=0 dh=-60 dv=0 dx=0 dy=0 dh=0 dv=0
PairPos2: "'kern' Horizontal Kerning in Latin lookup 2 per glyph data 1" s dx=0 dy=0 dh=-60 dv=0 dx=0 dy=0 dh=0 dv=0
PairPos2: "'kern' Horizontal Kerning in Latin lookup 2 per glyph data 1" r dx=0 dy=0 dh=-60 dv=0 dx=0 dy=0 dh=0 dv=0
PairPos2: "'kern' Horizontal Kerning in Latin lookup 2 per glyph data 1" q dx=0 dy=0 dh=-100 dv=0 dx=0 dy=0 dh=0 dv=0
PairPos2: "'kern' Horizontal Kerning in Latin lookup 2 per glyph data 1" p dx=0 dy=0 dh=-60 dv=0 dx=0 dy=0 dh=0 dv=0
PairPos2: "'kern' Horizontal Kerning in Latin lookup 2 per glyph data 1" o dx=0 dy=0 dh=-100 dv=0 dx=0 dy=0 dh=0 dv=0
PairPos2: "'kern' Horizontal Kerning in Latin lookup 2 per glyph data 1" n dx=0 dy=0 dh=-60 dv=0 dx=0 dy=0 dh=0 dv=0
PairPos2: "'kern' Horizontal Kerning in Latin lookup 2 per glyph data 1" m dx=0 dy=0 dh=-60 dv=0 dx=0 dy=0 dh=0 dv=0
PairPos2: "'kern' Horizontal Kerning in Latin lookup 2 per glyph data 1" g dx=0 dy=0 dh=-100 dv=0 dx=0 dy=0 dh=0 dv=0
PairPos2: "'kern' Horizontal Kerning in Latin lookup 2 per glyph data 1" f dx=0 dy=0 dh=-20 dv=0 dx=0 dy=0 dh=0 dv=0
PairPos2: "'kern' Horizontal Kerning in Latin lookup 2 per glyph data 1" e dx=0 dy=0 dh=-100 dv=0 dx=0 dy=0 dh=0 dv=0
PairPos2: "'kern' Horizontal Kerning in Latin lookup 2 per glyph data 1" d dx=0 dy=0 dh=-100 dv=0 dx=0 dy=0 dh=0 dv=0
PairPos2: "'kern' Horizontal Kerning in Latin lookup 2 per glyph data 1" c dx=0 dy=0 dh=-100 dv=0 dx=0 dy=0 dh=0 dv=0
PairPos2: "'kern' Horizontal Kerning in Latin lookup 2 per glyph data 1" a dx=0 dy=0 dh=-90 dv=0 dx=0 dy=0 dh=0 dv=0
PairPos2: "'kern' Horizontal Kerning in Latin lookup 2 per glyph data 1" bracketright dx=0 dy=0 dh=30 dv=0 dx=0 dy=0 dh=0 dv=0
PairPos2: "'kern' Horizontal Kerning in Latin lookup 2 per glyph data 1" A dx=0 dy=0 dh=-50 dv=0 dx=0 dy=0 dh=0 dv=0
PairPos2: "'kern' Horizontal Kerning in Latin lookup 2 per glyph data 1" period dx=0 dy=0 dh=-70 dv=0 dx=0 dy=0 dh=0 dv=0
PairPos2: "'kern' Horizontal Kerning in Latin lookup 2 per glyph data 1" comma dx=0 dy=0 dh=-70 dv=0 dx=0 dy=0 dh=0 dv=0
PairPos2: "'kern' Horizontal Kerning in Latin lookup 2 per glyph data 1" parenright dx=0 dy=0 dh=30 dv=0 dx=0 dy=0 dh=0 dv=0
Position2: "'cpsp' Capital Spacing in Latin lookup 0 subtable" dx=7 dy=0 dh=20 dv=0
EndChar

StartChar: U
Encoding: 85 85 56
Width: 755
GlyphClass: 2
Flags: W
LayerCount: 2
Fore
SplineSet
665 731.5 m 128,-1,1
 668 715 668 715 668 675 c 128,-1,2
 668 635 668 635 635 409 c 128,-1,3
 602 183 602 183 602 92.5 c 128,-1,4
 602 2 602 2 616 -31 c 1,5,6
 554 -9 554 -9 528.5 28.5 c 128,-1,7
 503 66 503 66 503 129 c 0,8,9
 503 160 503 160 505 179 c 1,10,11
 420 -20 420 -20 254 -20 c 0,12,13
 171 -20 171 -20 129 37.5 c 128,-1,14
 87 95 87 95 87 220 c 0,15,16
 87 291 87 291 109.5 476 c 128,-1,17
 132 661 132 661 132 716.5 c 128,-1,18
 132 772 132 772 121 802 c 1,19,20
 181 780 181 780 207 745 c 128,-1,21
 233 710 233 710 233 648.5 c 128,-1,22
 233 587 233 587 211.5 450.5 c 128,-1,23
 190 314 190 314 190 226 c 128,-1,24
 190 138 190 138 218 100 c 128,-1,25
 246 62 246 62 298 62 c 0,26,27
 352 62 352 62 404 108 c 0,28,29
 470 167 470 167 510 300 c 0,30,31
 533 376 533 376 545 474 c 0,32,33
 545 477 545 477 547.5 477 c 128,-1,34
 550 477 550 477 560.5 464 c 128,-1,35
 571 451 571 451 573 451 c 1,36,-1
 564 388 l 1,37,38
 541 263 541 263 505 179 c 1,39,40
 509 219 509 219 524 322 c 0,41,42
 561 579 561 579 561 720 c 0,43,44
 561 750 561 750 557 802 c 1,45,46
 633 798 633 798 652 766 c 0,47,0
 662 748 662 748 665 731.5 c 128,-1,1
574 455 m 2,48,-1
 573 451 l 2,49,50
 574 451 574 451 574 455 c 2,48,-1
EndSplineSet
Position2: "'cpsp' Capital Spacing in Latin lookup 0 subtable" dx=7 dy=0 dh=20 dv=0
EndChar

StartChar: V
Encoding: 86 86 57
Width: 661
GlyphClass: 2
Flags: W
LayerCount: 2
Fore
SplineSet
296.5 -8.5 m 128,-1,1
 272 -14 272 -14 251.5 -14 c 128,-1,2
 231 -14 231 -14 228 1 c 1,3,4
 210 63 210 63 174 243.5 c 128,-1,5
 138 424 138 424 101.5 571 c 128,-1,6
 65 718 65 718 31 766 c 1,7,8
 73 792 73 792 101 792 c 0,9,10
 153 792 153 792 173.5 733 c 128,-1,11
 194 674 194 674 241 411 c 1,12,13
 244 387 244 387 270.5 260.5 c 128,-1,14
 297 134 297 134 303 101 c 1,15,16
 369 247 369 247 450 490.5 c 128,-1,17
 531 734 531 734 531 807 c 1,18,19
 629 789 629 789 629 733 c 0,20,21
 629 692 629 692 572.5 559.5 c 128,-1,22
 516 427 516 427 436.5 254.5 c 128,-1,23
 357 82 357 82 327 0 c 1,24,0
 321 -3 321 -3 296.5 -8.5 c 128,-1,1
EndSplineSet
PairPos2: "'kern' Horizontal Kerning in Latin lookup 2 per glyph data 1" ellipsis dx=0 dy=0 dh=-90 dv=0 dx=0 dy=0 dh=0 dv=0
PairPos2: "'kern' Horizontal Kerning in Latin lookup 2 per glyph data 1" quotedblbase dx=0 dy=0 dh=-90 dv=0 dx=0 dy=0 dh=0 dv=0
PairPos2: "'kern' Horizontal Kerning in Latin lookup 2 per glyph data 1" quotesinglbase dx=0 dy=0 dh=-90 dv=0 dx=0 dy=0 dh=0 dv=0
PairPos2: "'kern' Horizontal Kerning in Latin lookup 2 per glyph data 1" scaron dx=0 dy=0 dh=-65 dv=0 dx=0 dy=0 dh=0 dv=0
PairPos2: "'kern' Horizontal Kerning in Latin lookup 2 per glyph data 1" oe dx=0 dy=0 dh=-75 dv=0 dx=0 dy=0 dh=0 dv=0
PairPos2: "'kern' Horizontal Kerning in Latin lookup 2 per glyph data 1" oslash dx=0 dy=0 dh=-75 dv=0 dx=0 dy=0 dh=0 dv=0
PairPos2: "'kern' Horizontal Kerning in Latin lookup 2 per glyph data 1" odieresis dx=0 dy=0 dh=-75 dv=0 dx=0 dy=0 dh=0 dv=0
PairPos2: "'kern' Horizontal Kerning in Latin lookup 2 per glyph data 1" otilde dx=0 dy=0 dh=-75 dv=0 dx=0 dy=0 dh=0 dv=0
PairPos2: "'kern' Horizontal Kerning in Latin lookup 2 per glyph data 1" ocircumflex dx=0 dy=0 dh=-75 dv=0 dx=0 dy=0 dh=0 dv=0
PairPos2: "'kern' Horizontal Kerning in Latin lookup 2 per glyph data 1" oacute dx=0 dy=0 dh=-75 dv=0 dx=0 dy=0 dh=0 dv=0
PairPos2: "'kern' Horizontal Kerning in Latin lookup 2 per glyph data 1" ograve dx=0 dy=0 dh=-75 dv=0 dx=0 dy=0 dh=0 dv=0
PairPos2: "'kern' Horizontal Kerning in Latin lookup 2 per glyph data 1" eth dx=0 dy=0 dh=-75 dv=0 dx=0 dy=0 dh=0 dv=0
PairPos2: "'kern' Horizontal Kerning in Latin lookup 2 per glyph data 1" edieresis dx=0 dy=0 dh=-75 dv=0 dx=0 dy=0 dh=0 dv=0
PairPos2: "'kern' Horizontal Kerning in Latin lookup 2 per glyph data 1" ecircumflex dx=0 dy=0 dh=-75 dv=0 dx=0 dy=0 dh=0 dv=0
PairPos2: "'kern' Horizontal Kerning in Latin lookup 2 per glyph data 1" eacute dx=0 dy=0 dh=-75 dv=0 dx=0 dy=0 dh=0 dv=0
PairPos2: "'kern' Horizontal Kerning in Latin lookup 2 per glyph data 1" egrave dx=0 dy=0 dh=-75 dv=0 dx=0 dy=0 dh=0 dv=0
PairPos2: "'kern' Horizontal Kerning in Latin lookup 2 per glyph data 1" ccedilla dx=0 dy=0 dh=-75 dv=0 dx=0 dy=0 dh=0 dv=0
PairPos2: "'kern' Horizontal Kerning in Latin lookup 2 per glyph data 1" ae dx=0 dy=0 dh=-65 dv=0 dx=0 dy=0 dh=0 dv=0
PairPos2: "'kern' Horizontal Kerning in Latin lookup 2 per glyph data 1" aring dx=0 dy=0 dh=-65 dv=0 dx=0 dy=0 dh=0 dv=0
PairPos2: "'kern' Horizontal Kerning in Latin lookup 2 per glyph data 1" adieresis dx=0 dy=0 dh=-65 dv=0 dx=0 dy=0 dh=0 dv=0
PairPos2: "'kern' Horizontal Kerning in Latin lookup 2 per glyph data 1" atilde dx=0 dy=0 dh=-65 dv=0 dx=0 dy=0 dh=0 dv=0
PairPos2: "'kern' Horizontal Kerning in Latin lookup 2 per glyph data 1" acircumflex dx=0 dy=0 dh=-65 dv=0 dx=0 dy=0 dh=0 dv=0
PairPos2: "'kern' Horizontal Kerning in Latin lookup 2 per glyph data 1" aacute dx=0 dy=0 dh=-65 dv=0 dx=0 dy=0 dh=0 dv=0
PairPos2: "'kern' Horizontal Kerning in Latin lookup 2 per glyph data 1" agrave dx=0 dy=0 dh=-65 dv=0 dx=0 dy=0 dh=0 dv=0
PairPos2: "'kern' Horizontal Kerning in Latin lookup 2 per glyph data 1" AE dx=0 dy=0 dh=-80 dv=0 dx=0 dy=0 dh=0 dv=0
PairPos2: "'kern' Horizontal Kerning in Latin lookup 2 per glyph data 1" Aring dx=0 dy=0 dh=-40 dv=0 dx=0 dy=0 dh=0 dv=0
PairPos2: "'kern' Horizontal Kerning in Latin lookup 2 per glyph data 1" Adieresis dx=0 dy=0 dh=-40 dv=0 dx=0 dy=0 dh=0 dv=0
PairPos2: "'kern' Horizontal Kerning in Latin lookup 2 per glyph data 1" Atilde dx=0 dy=0 dh=-40 dv=0 dx=0 dy=0 dh=0 dv=0
PairPos2: "'kern' Horizontal Kerning in Latin lookup 2 per glyph data 1" Acircumflex dx=0 dy=0 dh=-40 dv=0 dx=0 dy=0 dh=0 dv=0
PairPos2: "'kern' Horizontal Kerning in Latin lookup 2 per glyph data 1" Aacute dx=0 dy=0 dh=-40 dv=0 dx=0 dy=0 dh=0 dv=0
PairPos2: "'kern' Horizontal Kerning in Latin lookup 2 per glyph data 1" Agrave dx=0 dy=0 dh=-40 dv=0 dx=0 dy=0 dh=0 dv=0
PairPos2: "'kern' Horizontal Kerning in Latin lookup 2 per glyph data 1" s dx=0 dy=0 dh=-65 dv=0 dx=0 dy=0 dh=0 dv=0
PairPos2: "'kern' Horizontal Kerning in Latin lookup 2 per glyph data 1" q dx=0 dy=0 dh=-75 dv=0 dx=0 dy=0 dh=0 dv=0
PairPos2: "'kern' Horizontal Kerning in Latin lookup 2 per glyph data 1" o dx=0 dy=0 dh=-75 dv=0 dx=0 dy=0 dh=0 dv=0
PairPos2: "'kern' Horizontal Kerning in Latin lookup 2 per glyph data 1" g dx=0 dy=0 dh=-75 dv=0 dx=0 dy=0 dh=0 dv=0
PairPos2: "'kern' Horizontal Kerning in Latin lookup 2 per glyph data 1" e dx=0 dy=0 dh=-75 dv=0 dx=0 dy=0 dh=0 dv=0
PairPos2: "'kern' Horizontal Kerning in Latin lookup 2 per glyph data 1" d dx=0 dy=0 dh=-75 dv=0 dx=0 dy=0 dh=0 dv=0
PairPos2: "'kern' Horizontal Kerning in Latin lookup 2 per glyph data 1" c dx=0 dy=0 dh=-75 dv=0 dx=0 dy=0 dh=0 dv=0
PairPos2: "'kern' Horizontal Kerning in Latin lookup 2 per glyph data 1" a dx=0 dy=0 dh=-65 dv=0 dx=0 dy=0 dh=0 dv=0
PairPos2: "'kern' Horizontal Kerning in Latin lookup 2 per glyph data 1" A dx=0 dy=0 dh=-40 dv=0 dx=0 dy=0 dh=0 dv=0
PairPos2: "'kern' Horizontal Kerning in Latin lookup 2 per glyph data 1" period dx=0 dy=0 dh=-90 dv=0 dx=0 dy=0 dh=0 dv=0
PairPos2: "'kern' Horizontal Kerning in Latin lookup 2 per glyph data 1" comma dx=0 dy=0 dh=-90 dv=0 dx=0 dy=0 dh=0 dv=0
Position2: "'cpsp' Capital Spacing in Latin lookup 0 subtable" dx=7 dy=0 dh=20 dv=0
EndChar

StartChar: W
Encoding: 87 87 58
Width: 983
GlyphClass: 2
Flags: W
LayerCount: 2
Fore
SplineSet
626 -8.5 m 128,-1,1
 602 -14 602 -14 581 -14 c 128,-1,2
 560 -14 560 -14 560 1 c 1,3,4
 546 60 546 60 522.5 213.5 c 128,-1,5
 499 367 499 367 489 424 c 1,6,7
 461 360 461 360 417 262 c 0,8,9
 319 45 319 45 302 0 c 1,10,11
 297 -3 297 -3 273 -8.5 c 128,-1,12
 249 -14 249 -14 228 -14 c 128,-1,13
 207 -14 207 -14 207 1 c 1,14,15
 192 64 192 64 165 244 c 128,-1,16
 138 424 138 424 109 571 c 128,-1,17
 80 718 80 718 49 766 c 1,18,19
 91 792 91 792 119 792 c 0,20,21
 173 792 173 792 191 728.5 c 128,-1,22
 209 665 209 665 243 384 c 0,23,24
 245 369 245 369 262 254 c 128,-1,25
 279 139 279 139 284 101 c 1,26,27
 390 379 390 379 458 594 c 1,28,29
 430 721 430 721 402 766 c 1,30,31
 444 792 444 792 472 792 c 0,32,33
 526 792 526 792 544 728.5 c 128,-1,34
 562 665 562 665 596 384 c 0,35,36
 598 369 598 369 615 254 c 128,-1,37
 632 139 632 139 637 101 c 1,38,39
 857 686 857 686 864 807 c 1,40,41
 907 797 907 797 932 778.5 c 128,-1,42
 957 760 957 760 957 737 c 0,43,44
 957 672 957 672 752 220 c 0,45,46
 671 43 671 43 655 0 c 1,47,0
 650 -3 650 -3 626 -8.5 c 128,-1,1
EndSplineSet
PairPos2: "'kern' Horizontal Kerning in Latin lookup 2 per glyph data 1" ellipsis dx=0 dy=0 dh=-80 dv=0 dx=0 dy=0 dh=0 dv=0
PairPos2: "'kern' Horizontal Kerning in Latin lookup 2 per glyph data 1" quotedblbase dx=0 dy=0 dh=-80 dv=0 dx=0 dy=0 dh=0 dv=0
PairPos2: "'kern' Horizontal Kerning in Latin lookup 2 per glyph data 1" quotesinglbase dx=0 dy=0 dh=-80 dv=0 dx=0 dy=0 dh=0 dv=0
PairPos2: "'kern' Horizontal Kerning in Latin lookup 2 per glyph data 1" scaron dx=0 dy=0 dh=-30 dv=0 dx=0 dy=0 dh=0 dv=0
PairPos2: "'kern' Horizontal Kerning in Latin lookup 2 per glyph data 1" oe dx=0 dy=0 dh=-50 dv=0 dx=0 dy=0 dh=0 dv=0
PairPos2: "'kern' Horizontal Kerning in Latin lookup 2 per glyph data 1" oslash dx=0 dy=0 dh=-50 dv=0 dx=0 dy=0 dh=0 dv=0
PairPos2: "'kern' Horizontal Kerning in Latin lookup 2 per glyph data 1" odieresis dx=0 dy=0 dh=-50 dv=0 dx=0 dy=0 dh=0 dv=0
PairPos2: "'kern' Horizontal Kerning in Latin lookup 2 per glyph data 1" otilde dx=0 dy=0 dh=-50 dv=0 dx=0 dy=0 dh=0 dv=0
PairPos2: "'kern' Horizontal Kerning in Latin lookup 2 per glyph data 1" ocircumflex dx=0 dy=0 dh=-50 dv=0 dx=0 dy=0 dh=0 dv=0
PairPos2: "'kern' Horizontal Kerning in Latin lookup 2 per glyph data 1" oacute dx=0 dy=0 dh=-50 dv=0 dx=0 dy=0 dh=0 dv=0
PairPos2: "'kern' Horizontal Kerning in Latin lookup 2 per glyph data 1" ograve dx=0 dy=0 dh=-50 dv=0 dx=0 dy=0 dh=0 dv=0
PairPos2: "'kern' Horizontal Kerning in Latin lookup 2 per glyph data 1" eth dx=0 dy=0 dh=-50 dv=0 dx=0 dy=0 dh=0 dv=0
PairPos2: "'kern' Horizontal Kerning in Latin lookup 2 per glyph data 1" edieresis dx=0 dy=0 dh=-50 dv=0 dx=0 dy=0 dh=0 dv=0
PairPos2: "'kern' Horizontal Kerning in Latin lookup 2 per glyph data 1" ecircumflex dx=0 dy=0 dh=-50 dv=0 dx=0 dy=0 dh=0 dv=0
PairPos2: "'kern' Horizontal Kerning in Latin lookup 2 per glyph data 1" eacute dx=0 dy=0 dh=-50 dv=0 dx=0 dy=0 dh=0 dv=0
PairPos2: "'kern' Horizontal Kerning in Latin lookup 2 per glyph data 1" egrave dx=0 dy=0 dh=-50 dv=0 dx=0 dy=0 dh=0 dv=0
PairPos2: "'kern' Horizontal Kerning in Latin lookup 2 per glyph data 1" ccedilla dx=0 dy=0 dh=-50 dv=0 dx=0 dy=0 dh=0 dv=0
PairPos2: "'kern' Horizontal Kerning in Latin lookup 2 per glyph data 1" ae dx=0 dy=0 dh=-65 dv=0 dx=0 dy=0 dh=0 dv=0
PairPos2: "'kern' Horizontal Kerning in Latin lookup 2 per glyph data 1" aring dx=0 dy=0 dh=-65 dv=0 dx=0 dy=0 dh=0 dv=0
PairPos2: "'kern' Horizontal Kerning in Latin lookup 2 per glyph data 1" adieresis dx=0 dy=0 dh=-65 dv=0 dx=0 dy=0 dh=0 dv=0
PairPos2: "'kern' Horizontal Kerning in Latin lookup 2 per glyph data 1" atilde dx=0 dy=0 dh=-65 dv=0 dx=0 dy=0 dh=0 dv=0
PairPos2: "'kern' Horizontal Kerning in Latin lookup 2 per glyph data 1" acircumflex dx=0 dy=0 dh=-65 dv=0 dx=0 dy=0 dh=0 dv=0
PairPos2: "'kern' Horizontal Kerning in Latin lookup 2 per glyph data 1" aacute dx=0 dy=0 dh=-65 dv=0 dx=0 dy=0 dh=0 dv=0
PairPos2: "'kern' Horizontal Kerning in Latin lookup 2 per glyph data 1" agrave dx=0 dy=0 dh=-65 dv=0 dx=0 dy=0 dh=0 dv=0
PairPos2: "'kern' Horizontal Kerning in Latin lookup 2 per glyph data 1" AE dx=0 dy=0 dh=-70 dv=0 dx=0 dy=0 dh=0 dv=0
PairPos2: "'kern' Horizontal Kerning in Latin lookup 2 per glyph data 1" Aring dx=0 dy=0 dh=-20 dv=0 dx=0 dy=0 dh=0 dv=0
PairPos2: "'kern' Horizontal Kerning in Latin lookup 2 per glyph data 1" Adieresis dx=0 dy=0 dh=-20 dv=0 dx=0 dy=0 dh=0 dv=0
PairPos2: "'kern' Horizontal Kerning in Latin lookup 2 per glyph data 1" Atilde dx=0 dy=0 dh=-20 dv=0 dx=0 dy=0 dh=0 dv=0
PairPos2: "'kern' Horizontal Kerning in Latin lookup 2 per glyph data 1" Acircumflex dx=0 dy=0 dh=-20 dv=0 dx=0 dy=0 dh=0 dv=0
PairPos2: "'kern' Horizontal Kerning in Latin lookup 2 per glyph data 1" Aacute dx=0 dy=0 dh=-20 dv=0 dx=0 dy=0 dh=0 dv=0
PairPos2: "'kern' Horizontal Kerning in Latin lookup 2 per glyph data 1" Agrave dx=0 dy=0 dh=-20 dv=0 dx=0 dy=0 dh=0 dv=0
PairPos2: "'kern' Horizontal Kerning in Latin lookup 2 per glyph data 1" s dx=0 dy=0 dh=-30 dv=0 dx=0 dy=0 dh=0 dv=0
PairPos2: "'kern' Horizontal Kerning in Latin lookup 2 per glyph data 1" q dx=0 dy=0 dh=-50 dv=0 dx=0 dy=0 dh=0 dv=0
PairPos2: "'kern' Horizontal Kerning in Latin lookup 2 per glyph data 1" o dx=0 dy=0 dh=-50 dv=0 dx=0 dy=0 dh=0 dv=0
PairPos2: "'kern' Horizontal Kerning in Latin lookup 2 per glyph data 1" g dx=0 dy=0 dh=-50 dv=0 dx=0 dy=0 dh=0 dv=0
PairPos2: "'kern' Horizontal Kerning in Latin lookup 2 per glyph data 1" e dx=0 dy=0 dh=-50 dv=0 dx=0 dy=0 dh=0 dv=0
PairPos2: "'kern' Horizontal Kerning in Latin lookup 2 per glyph data 1" d dx=0 dy=0 dh=-50 dv=0 dx=0 dy=0 dh=0 dv=0
PairPos2: "'kern' Horizontal Kerning in Latin lookup 2 per glyph data 1" c dx=0 dy=0 dh=-50 dv=0 dx=0 dy=0 dh=0 dv=0
PairPos2: "'kern' Horizontal Kerning in Latin lookup 2 per glyph data 1" a dx=0 dy=0 dh=-65 dv=0 dx=0 dy=0 dh=0 dv=0
PairPos2: "'kern' Horizontal Kerning in Latin lookup 2 per glyph data 1" A dx=0 dy=0 dh=-20 dv=0 dx=0 dy=0 dh=0 dv=0
PairPos2: "'kern' Horizontal Kerning in Latin lookup 2 per glyph data 1" period dx=0 dy=0 dh=-80 dv=0 dx=0 dy=0 dh=0 dv=0
PairPos2: "'kern' Horizontal Kerning in Latin lookup 2 per glyph data 1" comma dx=0 dy=0 dh=-80 dv=0 dx=0 dy=0 dh=0 dv=0
Position2: "'cpsp' Capital Spacing in Latin lookup 0 subtable" dx=7 dy=0 dh=20 dv=0
EndChar

StartChar: X
Encoding: 88 88 59
Width: 671
GlyphClass: 2
Flags: W
LayerCount: 2
Fore
SplineSet
581 -33 m 0,0,1
 491 -33 491 -33 420 73 c 0,2,3
 359 163 359 163 297 317 c 1,4,5
 143 146 143 146 84 -31 c 1,6,7
 30 23 30 23 30 80.5 c 128,-1,8
 30 138 30 138 90 212 c 128,-1,9
 150 286 150 286 266 396 c 1,10,11
 263 405 263 405 249.5 438.5 c 128,-1,12
 236 472 236 472 232 482.5 c 128,-1,13
 228 493 228 493 216 523 c 128,-1,14
 204 553 204 553 198.5 565.5 c 128,-1,15
 193 578 193 578 182 604.5 c 128,-1,16
 171 631 171 631 164 644.5 c 128,-1,17
 157 658 157 658 146.5 679.5 c 128,-1,18
 136 701 136 701 128 716 c 0,19,20
 110 748 110 748 90 776 c 1,21,22
 130 803 130 803 159.5 803 c 128,-1,23
 189 803 189 803 212.5 780 c 128,-1,24
 236 757 236 757 256 716 c 0,25,26
 286 656 286 656 315.5 572.5 c 128,-1,27
 345 489 345 489 350 476 c 1,28,29
 461 583 461 583 523.5 662.5 c 128,-1,30
 586 742 586 742 590 809 c 1,31,32
 615 792 615 792 627.5 765 c 128,-1,33
 640 738 640 738 640 713.5 c 128,-1,34
 640 689 640 689 627.5 661.5 c 128,-1,35
 615 634 615 634 585.5 601 c 128,-1,36
 556 568 556 568 530.5 543 c 128,-1,37
 505 518 505 518 456 473 c 128,-1,38
 407 428 407 428 378 400 c 1,39,40
 490 110 490 110 620 -28 c 1,41,42
 604 -33 604 -33 581 -33 c 0,0,1
EndSplineSet
Position2: "'cpsp' Capital Spacing in Latin lookup 0 subtable" dx=7 dy=0 dh=20 dv=0
EndChar

StartChar: Y
Encoding: 89 89 60
Width: 565
GlyphClass: 2
Flags: W
LayerCount: 2
Fore
SplineSet
312 283 m 1,0,1
 296 148 296 148 296 75 c 128,-1,2
 296 2 296 2 310 -31 c 1,3,4
 243 -17 243 -17 218 22 c 128,-1,5
 193 61 193 61 193 129 c 0,6,7
 193 165 193 165 206 286 c 1,8,9
 103 658 103 658 23 777 c 1,10,11
 52 803 52 803 82.5 803 c 128,-1,12
 113 803 113 803 131 794.5 c 128,-1,13
 149 786 149 786 166 765.5 c 128,-1,14
 183 745 183 745 198 697 c 0,15,16
 227 604 227 604 266 404 c 1,17,-1
 278 335 l 1,18,19
 374 487 374 487 434.5 622.5 c 128,-1,20
 495 758 495 758 505 833 c 1,21,22
 565 791 565 791 565 719.5 c 128,-1,23
 565 648 565 648 312 283 c 1,0,1
EndSplineSet
Position2: "'cpsp' Capital Spacing in Latin lookup 0 subtable" dx=7 dy=0 dh=20 dv=0
EndChar

StartChar: Z
Encoding: 90 90 61
Width: 573
GlyphClass: 2
Flags: W
LayerCount: 2
Fore
SplineSet
83 726 m 0,0,1
 83 755 83 755 91 777 c 1,2,3
 217 763 217 763 324 763 c 128,-1,4
 431 763 431 763 484 767 c 1,5,6
 498 800 498 800 507 838 c 1,7,8
 553 778 553 778 553 706 c 0,9,10
 553 663 553 663 510 592 c 128,-1,11
 467 521 467 521 410 452 c 0,12,13
 215 211 215 211 137 89 c 1,14,15
 165 87 165 87 181 87 c 0,16,17
 397 87 397 87 505 117 c 1,18,19
 497 59 497 59 464.5 27 c 128,-1,20
 432 -5 432 -5 383 -5 c 0,21,22
 357 -5 357 -5 277.5 3.5 c 128,-1,23
 198 12 198 12 114 12 c 128,-1,24
 30 12 30 12 -40 -3 c 1,25,26
 -24 45 -24 45 20 68 c 1,27,28
 318 429 318 429 452 698 c 1,29,30
 201 654 201 654 129 654 c 0,31,32
 83 654 83 654 83 726 c 0,0,1
EndSplineSet
Position2: "'cpsp' Capital Spacing in Latin lookup 0 subtable" dx=7 dy=0 dh=20 dv=0
EndChar

StartChar: bracketleft
Encoding: 91 91 62
Width: 379
GlyphClass: 2
Flags: W
LayerCount: 2
Fore
SplineSet
312 783 m 2,0,-1
 382 783 l 2,1,2
 418 783 418 783 422 709 c 1,3,4
 364 714 364 714 301 715 c 1,5,6
 267 484 267 484 255 321 c 1,7,8
 246 173 246 173 246 -61 c 2,9,-1
 246 -71 l 1,10,11
 301 -70 301 -70 355 -65 c 1,12,13
 351 -139 351 -139 315 -139 c 2,14,-1
 247 -139 l 2,15,16
 132 -139 132 -139 132 -74 c 0,17,18
 132 -54 132 -54 137 -4 c 0,19,20
 160 228 160 228 165.5 311 c 128,-1,21
 171 394 171 394 189 713 c 0,22,23
 191 750 191 750 219.5 766.5 c 128,-1,24
 248 783 248 783 312 783 c 2,0,-1
EndSplineSet
Position2: "'case' Case-Sensitive Forms in Latin lookup 1 per glyph data 0" dx=0 dy=80 dh=0 dv=0
EndChar

StartChar: backslash
Encoding: 92 92 63
Width: 413
GlyphClass: 2
Flags: W
LayerCount: 2
Fore
SplineSet
330 151.5 m 128,-1,1
 413 -41 413 -41 413 -82.5 c 128,-1,2
 413 -124 413 -124 392 -148 c 128,-1,3
 371 -172 371 -172 350 -177 c 2,4,-1
 329 -182 l 1,5,6
 315 -80 315 -80 232.5 137.5 c 128,-1,7
 150 355 150 355 75 541 c 128,-1,8
 0 727 0 727 0 765 c 0,9,10
 0 813 0 813 32 852 c 0,11,12
 39 860 39 860 49 868 c 1,13,14
 64 779 64 779 155.5 561.5 c 128,-1,0
 247 344 247 344 330 151.5 c 128,-1,1
EndSplineSet
EndChar

StartChar: bracketright
Encoding: 93 93 64
Width: 379
GlyphClass: 2
Flags: W
LayerCount: 2
Fore
SplineSet
67 -139 m 2,0,-1
 -3 -139 l 2,1,2
 -39 -139 -39 -139 -43 -65 c 1,3,4
 15 -70 15 -70 78 -71 c 1,5,6
 112 160 112 160 124 323 c 1,7,8
 133 471 133 471 133 705 c 2,9,-1
 133 715 l 1,10,11
 78 714 78 714 24 709 c 1,12,13
 28 783 28 783 64 783 c 2,14,-1
 132 783 l 2,15,16
 247 783 247 783 247 718 c 0,17,18
 247 698 247 698 242 648 c 0,19,20
 219 416 219 416 213.5 333 c 128,-1,21
 208 250 208 250 190 -69 c 0,22,23
 188 -106 188 -106 159.5 -122.5 c 128,-1,24
 131 -139 131 -139 67 -139 c 2,0,-1
EndSplineSet
Position2: "'case' Case-Sensitive Forms in Latin lookup 1 per glyph data 0" dx=0 dy=80 dh=0 dv=0
EndChar

StartChar: asciicircum
Encoding: 94 94 65
Width: 620
GlyphClass: 2
Flags: W
LayerCount: 2
Fore
SplineSet
311 759 m 1,0,1
 342 776 342 776 378 776 c 128,-1,2
 414 776 414 776 418 758 c 0,3,4
 449 613 449 613 478.5 527.5 c 128,-1,5
 508 442 508 442 559 352 c 1,6,7
 540 327 540 327 489.5 327 c 128,-1,8
 439 327 439 327 407 408.5 c 128,-1,9
 375 490 375 490 342 708 c 1,10,11
 216 511 216 511 139 328 c 1,12,13
 81 351 81 351 81 404 c 0,14,15
 81 442 81 442 139.5 528.5 c 128,-1,16
 198 615 198 615 311 759 c 1,0,1
EndSplineSet
EndChar

StartChar: underscore
Encoding: 95 95 66
Width: 463
GlyphClass: 2
Flags: W
LayerCount: 2
Fore
SplineSet
249.5 1.5 m 128,-1,1
 317 7 317 7 365 7 c 128,-1,2
 413 7 413 7 430.5 -14 c 128,-1,3
 448 -35 448 -35 448 -77 c 0,4,5
 448 -80 448 -80 447.5 -86 c 128,-1,6
 447 -92 447 -92 447 -95 c 1,7,8
 383 -87 383 -87 332 -87 c 128,-1,9
 281 -87 281 -87 213.5 -92.5 c 128,-1,10
 146 -98 146 -98 98 -98 c 128,-1,11
 50 -98 50 -98 32.5 -77 c 128,-1,12
 15 -56 15 -56 15 -14 c 0,13,14
 15 -11 15 -11 15.5 -5 c 128,-1,15
 16 1 16 1 16 4 c 1,16,17
 80 -4 80 -4 131 -4 c 128,-1,0
 182 -4 182 -4 249.5 1.5 c 128,-1,1
EndSplineSet
EndChar

StartChar: grave
Encoding: 96 96 67
Width: 372
GlyphClass: 2
Flags: W
LayerCount: 2
Fore
SplineSet
342 652 m 1,0,1
 341 641 341 641 331.5 631.5 c 128,-1,2
 322 622 322 622 310 619 c 1,3,4
 274 664 274 664 217.5 708 c 128,-1,5
 161 752 161 752 103 770 c 1,6,7
 105 822 105 822 151 852 c 1,8,9
 204 831 204 831 260.5 769.5 c 128,-1,10
 317 708 317 708 342 652 c 1,0,1
EndSplineSet
EndChar

StartChar: a
Encoding: 97 97 68
Width: 635
GlyphClass: 2
Flags: W
LayerCount: 2
Fore
SplineSet
176.5 288.5 m 128,-1,1
 161 236 161 236 161 188 c 128,-1,2
 161 140 161 140 182.5 106.5 c 128,-1,3
 204 73 204 73 244 73 c 0,4,5
 300 73 300 73 349 134.5 c 128,-1,6
 398 196 398 196 424.5 283.5 c 128,-1,7
 451 371 451 371 451 445.5 c 128,-1,8
 451 520 451 520 445 568 c 1,9,10
 469 570 469 570 475 570 c 0,11,12
 560 570 560 570 560 483 c 0,13,14
 560 464 560 464 536 328.5 c 128,-1,15
 512 193 512 193 512 111.5 c 128,-1,16
 512 30 512 30 543 -33 c 1,17,18
 480 -20 480 -20 451.5 22.5 c 128,-1,19
 423 65 423 65 423 145 c 0,20,21
 423 159 423 159 427 199 c 1,22,23
 400 104 400 104 332 46 c 128,-1,24
 264 -12 264 -12 198.5 -12 c 128,-1,25
 133 -12 133 -12 93 37.5 c 128,-1,26
 53 87 53 87 53 174.5 c 128,-1,27
 53 262 53 262 85.5 345.5 c 128,-1,28
 118 429 118 429 183.5 490 c 128,-1,29
 249 551 249 551 330 551 c 0,30,31
 365 551 365 551 407 537 c 1,32,33
 348 522 348 522 299 482 c 128,-1,34
 250 442 250 442 221 391.5 c 128,-1,0
 192 341 192 341 176.5 288.5 c 128,-1,1
EndSplineSet
EndChar

StartChar: b
Encoding: 98 98 69
Width: 641
GlyphClass: 2
Flags: W
LayerCount: 2
Fore
SplineSet
258 764 m 0,0,1
 258 719 258 719 238.5 577 c 128,-1,2
 219 435 219 435 212 357 c 1,3,4
 241 462 241 462 295.5 519.5 c 128,-1,5
 350 577 350 577 414 577 c 128,-1,6
 478 577 478 577 524 516 c 128,-1,7
 570 455 570 455 570 360 c 0,8,9
 570 211 570 211 496.5 109 c 128,-1,10
 423 7 423 7 316 7 c 0,11,12
 287 7 287 7 257 16 c 1,13,14
 321 32 321 32 369.5 90.5 c 128,-1,15
 418 149 418 149 440 217.5 c 128,-1,16
 462 286 462 286 462 345 c 128,-1,17
 462 404 462 404 441 443.5 c 128,-1,18
 420 483 420 483 376 483 c 128,-1,19
 332 483 332 483 290.5 431 c 128,-1,20
 249 379 249 379 222.5 294 c 128,-1,21
 196 209 196 209 196 128.5 c 128,-1,22
 196 48 196 48 215 -18 c 1,23,24
 162 -1 162 -1 131.5 54 c 128,-1,25
 101 109 101 109 101 184.5 c 128,-1,26
 101 260 101 260 134.5 475 c 128,-1,27
 168 690 168 690 168 789 c 128,-1,28
 168 888 168 888 159 957 c 1,29,30
 258 921 258 921 258 764 c 0,0,1
EndSplineSet
EndChar

StartChar: c
Encoding: 99 99 70
Width: 545
GlyphClass: 2
Flags: W
LayerCount: 2
Fore
SplineSet
192.5 364.5 m 128,-1,1
 173 297 173 297 173 220 c 128,-1,2
 173 143 173 143 199 96 c 128,-1,3
 225 49 225 49 268.5 49 c 128,-1,4
 312 49 312 49 354 75 c 128,-1,5
 396 101 396 101 425 147 c 1,6,7
 462 142 462 142 462 120 c 1,8,9
 435 70 435 70 394.5 38 c 128,-1,10
 354 6 354 6 319 -4.5 c 128,-1,11
 284 -15 284 -15 248 -15 c 0,12,13
 171 -15 171 -15 118 45.5 c 128,-1,14
 65 106 65 106 65 221 c 0,15,16
 65 367 65 367 144 472 c 128,-1,17
 223 577 223 577 354 577 c 0,18,19
 426 577 426 577 463 539.5 c 128,-1,20
 500 502 500 502 500 452.5 c 128,-1,21
 500 403 500 403 472.5 368 c 128,-1,22
 445 333 445 333 402 333 c 0,23,24
 375 333 375 333 356 342 c 1,25,26
 372 360 372 360 383.5 392.5 c 128,-1,27
 395 425 395 425 395 456 c 0,28,29
 395 525 395 525 338 525 c 0,30,31
 290 525 290 525 251 478.5 c 128,-1,0
 212 432 212 432 192.5 364.5 c 128,-1,1
EndSplineSet
EndChar

StartChar: d
Encoding: 100 100 71
Width: 616
GlyphClass: 2
Flags: W
LayerCount: 2
Fore
SplineSet
181 109 m 128,-1,1
 203 73 203 73 249.5 73 c 128,-1,2
 296 73 296 73 334.5 114.5 c 128,-1,3
 373 156 373 156 396.5 226.5 c 128,-1,4
 420 297 420 297 437.5 376.5 c 128,-1,5
 455 456 455 456 463 546 c 0,6,7
 478 713 478 713 478 811 c 128,-1,8
 478 909 478 909 470 957 c 1,9,10
 573 924 573 924 573 750 c 0,11,12
 573 679 573 679 539.5 464 c 128,-1,13
 506 249 506 249 506 150 c 128,-1,14
 506 51 506 51 515 -18 c 1,15,16
 458 1 458 1 437 50 c 128,-1,17
 416 99 416 99 416 175 c 1,18,19
 385 89 385 89 324 39 c 128,-1,20
 263 -11 263 -11 197.5 -11 c 128,-1,21
 132 -11 132 -11 91.5 39.5 c 128,-1,22
 51 90 51 90 51 188 c 0,23,24
 51 351 51 351 136.5 456 c 128,-1,25
 222 561 222 561 349 561 c 0,26,27
 385 561 385 561 426 550 c 1,28,29
 358 539 358 539 304 500.5 c 128,-1,30
 250 462 250 462 220 410 c 0,31,32
 159 304 159 304 159 202 c 0,33,0
 159 145 159 145 181 109 c 128,-1,1
EndSplineSet
EndChar

StartChar: e
Encoding: 101 101 72
Width: 542
GlyphClass: 2
Flags: W
LayerCount: 2
Fore
SplineSet
333 525 m 0,0,1
 273 525 273 525 231.5 456 c 128,-1,2
 190 387 190 387 176 294 c 1,3,-1
 204 294 l 2,4,5
 257 294 257 294 296 309 c 128,-1,6
 335 324 335 324 356 348 c 0,7,8
 396 394 396 394 396 452 c 0,9,10
 396 485 396 485 380.5 505 c 128,-1,11
 365 525 365 525 333 525 c 0,0,1
373 15 m 128,-1,13
 318 -15 318 -15 245.5 -15 c 128,-1,14
 173 -15 173 -15 119 49 c 128,-1,15
 65 113 65 113 65 229 c 0,16,17
 65 361 65 361 136 465 c 0,18,19
 171 515 171 515 227.5 546 c 128,-1,20
 284 577 284 577 352 577 c 0,21,22
 502 577 502 577 502 432 c 0,23,24
 502 345 502 345 434.5 295.5 c 128,-1,25
 367 246 367 246 278 246 c 0,26,27
 219 246 219 246 172 257 c 1,28,29
 171 247 171 247 171 226 c 0,30,31
 171 49 171 49 276 49 c 0,32,33
 375 49 375 49 437 147 c 1,34,35
 474 142 474 142 474 120 c 1,36,12
 428 45 428 45 373 15 c 128,-1,13
EndSplineSet
EndChar

StartChar: f
Encoding: 102 102 73
Width: 408
GlyphClass: 2
Flags: W
LayerCount: 2
Fore
SplineSet
396 548 m 0,0,1
 396 506 396 506 380 490 c 128,-1,2
 364 474 364 474 333 474 c 2,3,-1
 249 474 l 1,4,5
 215 258 215 258 215 63 c 0,6,7
 215 4 215 4 217.5 -22.5 c 128,-1,8
 220 -49 220 -49 231 -113 c 1,9,10
 118 -68 118 -68 118 93 c 0,11,12
 118 274 118 274 155 468 c 1,13,14
 105 460 105 460 52 438 c 1,15,16
 50 454 50 454 50 467 c 0,17,18
 50 515 50 515 81.5 531.5 c 128,-1,19
 113 548 113 548 172 548 c 1,20,21
 258 900 258 900 437 900 c 0,22,23
 496 900 496 900 534 867 c 128,-1,24
 572 834 572 834 572 788 c 128,-1,25
 572 742 572 742 545 710.5 c 128,-1,26
 518 679 518 679 474 679 c 0,27,28
 456 679 456 679 441 686 c 1,29,30
 453 697 453 697 465.5 722.5 c 128,-1,31
 478 748 478 748 478 775.5 c 128,-1,32
 478 803 478 803 463.5 822 c 128,-1,33
 449 841 449 841 426 841 c 0,34,35
 320 841 320 841 261 545 c 1,36,37
 358 545 358 545 394 574 c 1,38,39
 396 560 396 560 396 548 c 0,0,1
EndSplineSet
Substitution2: "Single Substitution lookup 2 subtable" f.alt
EndChar

StartChar: g
Encoding: 103 103 74
Width: 619
GlyphClass: 2
Flags: W
LayerCount: 2
Fore
SplineSet
379 567 m 0,0,1
 417 567 417 567 421 538 c 1,2,3
 311 515 311 515 238 414.5 c 128,-1,4
 165 314 165 314 165 212 c 0,5,6
 165 156 165 156 186.5 119 c 128,-1,7
 208 82 208 82 254.5 82 c 128,-1,8
 301 82 301 82 342 132 c 0,9,10
 415 221 415 221 441 412 c 0,11,12
 457 535 457 535 478 572 c 1,13,14
 506 618 506 618 547 633 c 1,15,16
 533 527 533 527 533 473 c 0,17,18
 533 73 533 73 451 -128 c 128,-1,19
 369 -329 369 -329 184 -329 c 0,20,21
 111 -329 111 -329 69.5 -293.5 c 128,-1,22
 28 -258 28 -258 28 -213 c 128,-1,23
 28 -168 28 -168 52.5 -136 c 128,-1,24
 77 -104 77 -104 117 -104 c 0,25,26
 139 -104 139 -104 163 -114 c 1,27,28
 147 -125 147 -125 136 -148 c 128,-1,29
 125 -171 125 -171 125 -199.5 c 128,-1,30
 125 -228 125 -228 146.5 -247.5 c 128,-1,31
 168 -267 168 -267 206 -267 c 128,-1,32
 244 -267 244 -267 278 -244.5 c 128,-1,33
 312 -222 312 -222 343 -174 c 0,34,35
 409 -70 409 -70 415 183 c 1,36,37
 387 97 387 97 328.5 45 c 128,-1,38
 270 -7 270 -7 210 -7 c 0,39,40
 133 -7 133 -7 93.5 51.5 c 128,-1,41
 54 110 54 110 54 201 c 0,42,43
 54 328 54 328 138 443 c 0,44,45
 178 498 178 498 241 532.5 c 128,-1,46
 304 567 304 567 379 567 c 0,0,1
EndSplineSet
EndChar

StartChar: h
Encoding: 104 104 75
Width: 621
GlyphClass: 2
Flags: W
LayerCount: 2
Fore
SplineSet
299.5 499.5 m 128,-1,1
 368 577 368 577 428 577 c 128,-1,2
 488 577 488 577 513 540.5 c 128,-1,3
 538 504 538 504 538 441.5 c 128,-1,4
 538 379 538 379 518.5 266 c 128,-1,5
 499 153 499 153 499 101.5 c 128,-1,6
 499 50 499 50 512 26.5 c 128,-1,7
 525 3 525 3 556 -14 c 1,8,9
 543 -15 543 -15 519 -15 c 0,10,11
 455 -15 455 -15 424.5 11.5 c 128,-1,12
 394 38 394 38 394 102 c 0,13,14
 394 139 394 139 414 251.5 c 128,-1,15
 434 364 434 364 434 417 c 0,16,17
 434 483 434 483 388 483 c 0,18,19
 361 483 361 483 328 454.5 c 128,-1,20
 295 426 295 426 264.5 377.5 c 128,-1,21
 234 329 234 329 213.5 254.5 c 128,-1,22
 193 180 193 180 193 107.5 c 128,-1,23
 193 35 193 35 199 0 c 1,24,25
 175 -2 175 -2 172 -2 c 0,26,27
 125 -2 125 -2 102.5 18 c 128,-1,28
 80 38 80 38 80 80.5 c 128,-1,29
 80 123 80 123 98 244 c 0,30,31
 151 616 151 616 151 809 c 0,32,33
 151 896 151 896 139 926 c 1,34,35
 197 905 197 905 220.5 864 c 128,-1,36
 244 823 244 823 244 751 c 0,37,38
 244 701 244 701 224.5 541 c 128,-1,39
 205 381 205 381 198 309 c 1,40,0
 231 422 231 422 299.5 499.5 c 128,-1,1
EndSplineSet
EndChar

StartChar: i
Encoding: 105 105 76
Width: 321
GlyphClass: 2
Flags: W
LayerCount: 2
Fore
SplineSet
124.5 46.5 m 128,-1,1
 102 88 102 88 102 147 c 128,-1,2
 102 206 102 206 118 316 c 128,-1,3
 134 426 134 426 134 487 c 128,-1,4
 134 548 134 548 128 581 c 1,5,6
 146 583 146 583 157 583 c 0,7,8
 202 583 202 583 222 563 c 128,-1,9
 242 543 242 543 242 497 c 0,10,11
 242 482 242 482 217.5 339.5 c 128,-1,12
 193 197 193 197 192.5 104.5 c 128,-1,13
 192 12 192 12 204 -15 c 1,14,0
 147 5 147 5 124.5 46.5 c 128,-1,1
219 682 m 0,15,16
 135 682 135 682 135 739 c 0,17,18
 135 759 135 759 150 795 c 1,19,20
 172 799 172 799 188 799 c 0,21,22
 272 799 272 799 272 742 c 0,23,24
 272 722 272 722 257 686 c 1,25,26
 235 682 235 682 219 682 c 0,15,16
EndSplineSet
EndChar

StartChar: j
Encoding: 106 106 77
Width: 331
GlyphClass: 2
Flags: W
LayerCount: 2
Fore
SplineSet
214 564.5 m 128,-1,1
 232 546 232 546 232 493 c 128,-1,2
 232 440 232 440 229.5 375.5 c 128,-1,3
 227 311 227 311 218.5 225.5 c 128,-1,4
 210 140 210 140 196.5 65 c 128,-1,5
 183 -10 183 -10 158.5 -85 c 128,-1,6
 134 -160 134 -160 102 -213.5 c 128,-1,7
 70 -267 70 -267 22 -300.5 c 128,-1,8
 -26 -334 -26 -334 -81.5 -334 c 128,-1,9
 -137 -334 -137 -334 -173.5 -300.5 c 128,-1,10
 -210 -267 -210 -267 -210 -220.5 c 128,-1,11
 -210 -174 -210 -174 -183 -141 c 128,-1,12
 -156 -108 -156 -108 -112 -108 c 0,13,14
 -94 -108 -94 -108 -79 -115 c 1,15,16
 -116 -150 -116 -150 -116 -207 c 0,17,18
 -116 -237 -116 -237 -103 -253.5 c 128,-1,19
 -90 -270 -90 -270 -69 -270 c 0,20,21
 -15 -270 -15 -270 25 -205.5 c 128,-1,22
 65 -141 65 -141 86 -36 c 0,23,24
 127 163 127 163 127 412 c 0,25,26
 127 483 127 483 121 581 c 1,27,28
 139 583 139 583 155 583 c 0,29,0
 196 583 196 583 214 564.5 c 128,-1,1
201 683 m 0,30,31
 117 683 117 683 117 740 c 0,32,33
 117 760 117 760 132 796 c 1,34,35
 154 800 154 800 170 800 c 0,36,37
 254 800 254 800 254 743 c 0,38,39
 254 723 254 723 239 687 c 1,40,41
 217 683 217 683 201 683 c 0,30,31
EndSplineSet
EndChar

StartChar: k
Encoding: 107 107 78
Width: 574
GlyphClass: 2
Flags: W
LayerCount: 2
Fore
SplineSet
283 515.5 m 128,-1,1
 342 579 342 579 398 579 c 128,-1,2
 454 579 454 579 485.5 545 c 128,-1,3
 517 511 517 511 517 449.5 c 128,-1,4
 517 388 517 388 482 339.5 c 128,-1,5
 447 291 447 291 386 268 c 1,6,-1
 398 231 l 2,7,8
 431 128 431 128 494 27 c 128,-1,9
 557 -74 557 -74 596 -111 c 1,10,11
 569 -120 569 -120 544.5 -120 c 128,-1,12
 520 -120 520 -120 495 -107.5 c 128,-1,13
 470 -95 470 -95 451.5 -79.5 c 128,-1,14
 433 -64 433 -64 412.5 -30.5 c 128,-1,15
 392 3 392 3 380 26 c 128,-1,16
 368 49 368 49 350 96 c 0,17,18
 331 145 331 145 297 244 c 1,19,20
 284 243 284 243 259 243 c 1,21,22
 253 248 253 248 253 275 c 1,23,24
 298 276 298 276 333 293 c 128,-1,25
 368 310 368 310 386 336 c 0,26,27
 424 389 424 389 424 443 c 0,28,29
 424 470 424 470 411.5 487.5 c 128,-1,30
 399 505 399 505 375 505 c 0,31,32
 333 505 333 505 290 449.5 c 128,-1,33
 247 394 247 394 217.5 297 c 128,-1,34
 188 200 188 200 188 94 c 0,35,36
 188 35 188 35 194 0 c 1,37,38
 170 -2 170 -2 167 -2 c 0,39,40
 120 -2 120 -2 97.5 18 c 128,-1,41
 75 38 75 38 75 80.5 c 128,-1,42
 75 123 75 123 92 244 c 0,43,44
 146 616 146 616 146 809 c 0,45,46
 146 896 146 896 134 926 c 1,47,48
 192 905 192 905 215.5 864 c 128,-1,49
 239 823 239 823 239 751 c 0,50,51
 239 701 239 701 219.5 541 c 128,-1,52
 200 381 200 381 193 309 c 1,53,0
 224 452 224 452 283 515.5 c 128,-1,1
EndSplineSet
EndChar

StartChar: l
Encoding: 108 108 79
Width: 299
GlyphClass: 2
Flags: W
LayerCount: 2
Fore
SplineSet
82 73 m 0,0,1
 81 89 81 89 81 124.5 c 128,-1,2
 81 160 81 160 114.5 428 c 128,-1,3
 148 696 148 696 148 796 c 128,-1,4
 148 896 148 896 136 926 c 1,5,6
 192 905 192 905 215 864 c 128,-1,7
 238 823 238 823 238 765 c 128,-1,8
 238 707 238 707 209 465 c 128,-1,9
 180 223 180 223 180 75 c 0,10,11
 180 43 180 43 184 -15 c 1,12,13
 129 -11 129 -11 106 11 c 0,14,15
 87 29 87 29 82 73 c 0,0,1
EndSplineSet
EndChar

StartChar: m
Encoding: 109 109 80
Width: 895
GlyphClass: 2
Flags: W
LayerCount: 2
Fore
SplineSet
505 259 m 128,-1,1
 487 186 487 186 487 121 c 128,-1,2
 487 56 487 56 493 0 c 1,3,4
 467 -2 467 -2 462 -2 c 0,5,6
 375 -2 375 -2 375 83 c 0,7,8
 375 114 375 114 396.5 237 c 128,-1,9
 418 360 418 360 418 421.5 c 128,-1,10
 418 483 418 483 372 483 c 0,11,12
 315 483 315 483 256 373 c 128,-1,13
 197 263 197 263 197 106 c 0,14,15
 197 56 197 56 203 0 c 1,16,17
 177 -2 177 -2 172 -2 c 0,18,19
 85 -2 85 -2 85 83 c 0,20,21
 85 94 85 94 105.5 232 c 128,-1,22
 126 370 126 370 126 450.5 c 128,-1,23
 126 531 126 531 109 598 c 1,24,25
 169 575 169 575 192.5 532 c 128,-1,26
 216 489 216 489 216 426 c 0,27,28
 216 394 216 394 209 345 c 1,29,30
 243 445 243 445 303 511 c 128,-1,31
 363 577 363 577 413 577 c 0,32,33
 525 577 525 577 525 404 c 1,34,35
 562 484 562 484 610.5 530.5 c 128,-1,36
 659 577 659 577 701 577 c 0,37,38
 762 577 762 577 787 540.5 c 128,-1,39
 812 504 812 504 812 441.5 c 128,-1,40
 812 379 812 379 792.5 266 c 128,-1,41
 773 153 773 153 773 101.5 c 128,-1,42
 773 50 773 50 786 26.5 c 128,-1,43
 799 3 799 3 830 -14 c 1,44,45
 817 -15 817 -15 793 -15 c 0,46,47
 729 -15 729 -15 698.5 11.5 c 128,-1,48
 668 38 668 38 668 102 c 0,49,50
 668 139 668 139 688 251.5 c 128,-1,51
 708 364 708 364 708 417 c 0,52,53
 708 483 708 483 662 483 c 0,54,55
 636 483 636 483 606 455 c 128,-1,56
 576 427 576 427 549.5 379.5 c 128,-1,0
 523 332 523 332 505 259 c 128,-1,1
EndSplineSet
EndChar

StartChar: n
Encoding: 110 110 81
Width: 626
GlyphClass: 2
Flags: W
LayerCount: 2
Fore
SplineSet
543 435 m 0,0,1
 543 389 543 389 523.5 272.5 c 128,-1,2
 504 156 504 156 504 103 c 128,-1,3
 504 50 504 50 517 26.5 c 128,-1,4
 530 3 530 3 561 -14 c 1,5,6
 548 -15 548 -15 524 -15 c 0,7,8
 456 -15 456 -15 427.5 10.5 c 128,-1,9
 399 36 399 36 399 102 c 0,10,11
 399 139 399 139 419 251.5 c 128,-1,12
 439 364 439 364 439 417 c 0,13,14
 439 483 439 483 399 483 c 0,15,16
 335 483 335 483 266.5 370 c 128,-1,17
 198 257 198 257 198 98 c 0,18,19
 198 35 198 35 204 0 c 1,20,21
 178 -2 178 -2 173 -2 c 0,22,23
 85 -2 85 -2 85 84 c 0,24,25
 85 104 85 104 106 238 c 128,-1,26
 127 372 127 372 127 451.5 c 128,-1,27
 127 531 127 531 110 598 c 1,28,29
 169 575 169 575 192.5 532.5 c 128,-1,30
 216 490 216 490 216 435.5 c 128,-1,31
 216 381 216 381 204 309 c 1,32,33
 237 422 237 422 307.5 499.5 c 128,-1,34
 378 577 378 577 439 577 c 0,35,36
 543 577 543 577 543 435 c 0,0,1
EndSplineSet
EndChar

StartChar: o
Encoding: 111 111 82
Width: 617
GlyphClass: 2
Flags: W
LayerCount: 2
Fore
SplineSet
429.5 468.5 m 128,-1,1
 405 511 405 511 359.5 511 c 128,-1,2
 314 511 314 511 268 466.5 c 128,-1,3
 222 422 222 422 195.5 356.5 c 128,-1,4
 169 291 169 291 169 220.5 c 128,-1,5
 169 150 169 150 196 98.5 c 128,-1,6
 223 47 223 47 278 47 c 0,7,8
 356 47 356 47 405 139 c 128,-1,9
 454 231 454 231 454 328.5 c 128,-1,0
 454 426 454 426 429.5 468.5 c 128,-1,1
266.5 524.5 m 128,-1,11
 331 574 331 574 397.5 574 c 128,-1,12
 464 574 464 574 508 515.5 c 128,-1,13
 552 457 552 457 552 357 c 0,14,15
 552 247 552 247 510 153 c 0,16,17
 463 49 463 49 374 8 c 0,18,19
 326 -15 326 -15 268 -15 c 0,20,21
 187 -15 187 -15 126 52.5 c 128,-1,22
 65 120 65 120 65 245.5 c 128,-1,23
 65 371 65 371 119 463 c 128,-1,24
 173 555 173 555 266 591 c 1,25,26
 286 591 286 591 286 571 c 1,27,28
 187 506 187 506 164 367 c 1,29,10
 202 475 202 475 266.5 524.5 c 128,-1,11
EndSplineSet
EndChar

StartChar: p
Encoding: 112 112 83
Width: 649
GlyphClass: 2
Flags: W
LayerCount: 2
Fore
SplineSet
318.5 503.5 m 128,-1,1
 381 553 381 553 442.5 553 c 128,-1,2
 504 553 504 553 544 503.5 c 128,-1,3
 584 454 584 454 584 360 c 0,4,5
 584 211 584 211 505.5 105.5 c 128,-1,6
 427 0 427 0 317 0 c 0,7,8
 278 0 278 0 237 16 c 1,9,10
 312 31 312 31 368.5 92.5 c 128,-1,11
 425 154 425 154 450.5 224.5 c 128,-1,12
 476 295 476 295 476 351.5 c 128,-1,13
 476 408 476 408 456 438 c 128,-1,14
 436 468 436 468 399 468 c 0,15,16
 330 468 330 468 276 391.5 c 128,-1,17
 222 315 222 315 193 184 c 128,-1,18
 164 53 164 53 164 -86.5 c 128,-1,19
 164 -226 164 -226 184 -329 c 1,20,21
 123 -326 123 -326 88 -302 c 128,-1,22
 53 -278 53 -278 53 -213 c 0,23,24
 53 -189 53 -189 83.5 40.5 c 128,-1,25
 114 270 114 270 114 394 c 128,-1,26
 114 518 114 518 99 603 c 1,27,28
 165 584 165 584 190 525.5 c 128,-1,29
 215 467 215 467 215 361 c 1,30,0
 256 454 256 454 318.5 503.5 c 128,-1,1
EndSplineSet
EndChar

StartChar: q
Encoding: 113 113 84
Width: 637
GlyphClass: 2
Flags: W
LayerCount: 2
Fore
SplineSet
193 0 m 0,0,1
 131 0 131 0 91 48 c 128,-1,2
 51 96 51 96 51 187 c 0,3,4
 51 312 51 312 120 428 c 0,5,6
 152 483 152 483 205 518.5 c 128,-1,7
 258 554 258 554 321 554 c 0,8,9
 359 554 359 554 399 541 c 1,10,11
 290 510 290 510 224.5 414.5 c 128,-1,12
 159 319 159 319 159 202 c 0,13,14
 159 151 159 151 178.5 117 c 128,-1,15
 198 83 198 83 236 83 c 0,16,17
 291 83 291 83 340 134 c 128,-1,18
 389 185 389 185 418.5 271.5 c 128,-1,19
 448 358 448 358 448 439 c 128,-1,20
 448 520 448 520 442 568 c 1,21,22
 464 570 464 570 467 570 c 0,23,24
 552 570 552 570 552 483 c 0,25,26
 552 460 552 460 524.5 288 c 128,-1,27
 497 116 497 116 487 -13 c 1,28,29
 556 12 556 12 575 43 c 1,30,31
 594 22 594 22 594 -2 c 0,32,33
 594 -35 594 -35 554.5 -50 c 128,-1,34
 515 -65 515 -65 483 -75 c 1,35,36
 481 -135 481 -135 481 -195 c 128,-1,37
 481 -255 481 -255 492 -329 c 1,38,39
 433 -326 433 -326 399.5 -302.5 c 128,-1,40
 366 -279 366 -279 366 -217 c 0,41,42
 366 -186 366 -186 380 -113 c 1,43,44
 352 -127 352 -127 316 -154 c 1,45,46
 307 -136 307 -136 307 -122 c 0,47,48
 307 -76 307 -76 393 -44 c 1,49,50
 425 134 425 134 434 216 c 1,51,52
 341 0 341 0 193 0 c 0,0,1
EndSplineSet
EndChar

StartChar: r
Encoding: 114 114 85
Width: 463
GlyphClass: 2
Flags: W
LayerCount: 2
Fore
SplineSet
293.5 516.5 m 128,-1,1
 344 578 344 578 387.5 578 c 128,-1,2
 431 578 431 578 453 545.5 c 128,-1,3
 475 513 475 513 475 463 c 128,-1,4
 475 413 475 413 449 376.5 c 128,-1,5
 423 340 423 340 373 340 c 0,6,7
 357 340 357 340 348 342 c 1,8,9
 382 391 382 391 382 442 c 0,10,11
 382 478 382 478 353 478 c 0,12,13
 330 478 330 478 304 451 c 128,-1,14
 278 424 278 424 254 376 c 128,-1,15
 230 328 230 328 214 251 c 128,-1,16
 198 174 198 174 198 85 c 0,17,18
 198 75 198 75 203 0 c 1,19,20
 177 -2 177 -2 173 -2 c 0,21,22
 85 -2 85 -2 85 84 c 0,23,24
 85 104 85 104 106 238 c 128,-1,25
 127 372 127 372 127 451.5 c 128,-1,26
 127 531 127 531 110 598 c 1,27,28
 169 575 169 575 192.5 532.5 c 128,-1,29
 216 490 216 490 216 433.5 c 128,-1,30
 216 377 216 377 207 325 c 1,31,0
 243 455 243 455 293.5 516.5 c 128,-1,1
EndSplineSet
PairPos2: "'kern' Horizontal Kerning in Latin lookup 2 per glyph data 1" quotedblright dx=0 dy=0 dh=30 dv=0 dx=0 dy=0 dh=0 dv=0
PairPos2: "'kern' Horizontal Kerning in Latin lookup 2 per glyph data 1" quotedblleft dx=0 dy=0 dh=30 dv=0 dx=0 dy=0 dh=0 dv=0
PairPos2: "'kern' Horizontal Kerning in Latin lookup 2 per glyph data 1" quoteright dx=0 dy=0 dh=30 dv=0 dx=0 dy=0 dh=0 dv=0
PairPos2: "'kern' Horizontal Kerning in Latin lookup 2 per glyph data 1" quoteleft dx=0 dy=0 dh=30 dv=0 dx=0 dy=0 dh=0 dv=0
PairPos2: "'kern' Horizontal Kerning in Latin lookup 2 per glyph data 1" registered dx=0 dy=0 dh=50 dv=0 dx=0 dy=0 dh=0 dv=0
PairPos2: "'kern' Horizontal Kerning in Latin lookup 2 per glyph data 1" copyright dx=0 dy=0 dh=50 dv=0 dx=0 dy=0 dh=0 dv=0
PairPos2: "'kern' Horizontal Kerning in Latin lookup 2 per glyph data 1" asterisk dx=0 dy=0 dh=30 dv=0 dx=0 dy=0 dh=0 dv=0
PairPos2: "'kern' Horizontal Kerning in Latin lookup 2 per glyph data 1" quotesingle dx=0 dy=0 dh=30 dv=0 dx=0 dy=0 dh=0 dv=0
PairPos2: "'kern' Horizontal Kerning in Latin lookup 2 per glyph data 1" quotedbl dx=0 dy=0 dh=30 dv=0 dx=0 dy=0 dh=0 dv=0
EndChar

StartChar: s
Encoding: 115 115 86
Width: 502
GlyphClass: 2
Flags: W
LayerCount: 2
Fore
SplineSet
223.5 507 m 128,-1,1
 197 486 197 486 197 449.5 c 128,-1,2
 197 413 197 413 221.5 381 c 128,-1,3
 246 349 246 349 281 324 c 128,-1,4
 316 299 316 299 352 273 c 0,5,6
 436 211 436 211 436 140 c 128,-1,7
 436 69 436 69 379 24.5 c 128,-1,8
 322 -20 322 -20 233.5 -20 c 128,-1,9
 145 -20 145 -20 96.5 15 c 128,-1,10
 48 50 48 50 48 97.5 c 128,-1,11
 48 145 48 145 72 172 c 128,-1,12
 96 199 96 199 130 199 c 0,13,14
 148 199 148 199 164 191 c 1,15,16
 142 163 142 163 142 125 c 128,-1,17
 142 87 142 87 165.5 61 c 128,-1,18
 189 35 189 35 230.5 35 c 128,-1,19
 272 35 272 35 301 56.5 c 128,-1,20
 330 78 330 78 330 111 c 128,-1,21
 330 144 330 144 313 169 c 128,-1,22
 296 194 296 194 270.5 212 c 128,-1,23
 245 230 245 230 215 252 c 128,-1,24
 185 274 185 274 159.5 295.5 c 128,-1,25
 134 317 134 317 117 349.5 c 128,-1,26
 100 382 100 382 100 421 c 0,27,28
 100 492 100 492 154 537.5 c 128,-1,29
 208 583 208 583 290 583 c 128,-1,30
 372 583 372 583 410 549 c 128,-1,31
 448 515 448 515 448 472.5 c 128,-1,32
 448 430 448 430 427 402.5 c 128,-1,33
 406 375 406 375 373 375 c 0,34,35
 357 375 357 375 336 384 c 1,36,37
 362 416 362 416 362 453 c 128,-1,38
 362 490 362 490 339.5 509 c 128,-1,39
 317 528 317 528 283.5 528 c 128,-1,0
 250 528 250 528 223.5 507 c 128,-1,1
EndSplineSet
EndChar

StartChar: t
Encoding: 116 116 87
Width: 386
GlyphClass: 2
Flags: W
LayerCount: 2
Fore
SplineSet
396 548 m 0,0,1
 396 506 396 506 380 490 c 128,-1,2
 364 474 364 474 333 474 c 2,3,-1
 261 474 l 1,4,5
 257 448 257 448 240 350 c 0,6,7
 206 164 206 164 206 69 c 128,-1,8
 206 -26 206 -26 220 -57 c 1,9,10
 163 -36 163 -36 139 6.5 c 128,-1,11
 115 49 115 49 115 110 c 128,-1,12
 115 171 115 171 122.5 225.5 c 128,-1,13
 130 280 130 280 144 353 c 128,-1,14
 158 426 158 426 164 470 c 1,15,16
 107 462 107 462 52 438 c 1,17,18
 50 454 50 454 50 467 c 0,19,20
 50 515 50 515 82 531.5 c 128,-1,21
 114 548 114 548 174 548 c 1,22,23
 181 622 181 622 181 658.5 c 128,-1,24
 181 695 181 695 180.5 717 c 128,-1,25
 180 739 180 739 180 750 c 1,26,27
 226 743 226 743 251 709.5 c 128,-1,28
 276 676 276 676 276 618 c 0,29,30
 276 588 276 588 271 545 c 1,31,32
 358 545 358 545 394 574 c 1,33,34
 396 560 396 560 396 548 c 0,0,1
EndSplineSet
EndChar

StartChar: u
Encoding: 117 117 88
Width: 606
GlyphClass: 2
Flags: W
LayerCount: 2
Fore
SplineSet
440 579 m 0,0,1
 526 579 526 579 526 490 c 0,2,3
 526 474 526 474 507 349.5 c 128,-1,4
 488 225 488 225 488 136 c 128,-1,5
 488 47 488 47 507 -21 c 1,6,7
 446 3 446 3 422.5 47 c 128,-1,8
 399 91 399 91 399 156 c 0,9,10
 399 181 399 181 410 269 c 1,11,12
 380 155 380 155 317 77.5 c 128,-1,13
 254 0 254 0 200 0 c 0,14,15
 86 0 86 0 86 166 c 0,16,17
 86 221 86 221 102.5 319.5 c 128,-1,18
 119 418 119 418 119 469 c 128,-1,19
 119 520 119 520 105 572 c 1,20,21
 169 572 169 572 201 550 c 128,-1,22
 233 528 233 528 233 465 c 0,23,24
 233 431 233 431 212 325 c 128,-1,25
 191 219 191 219 191 168 c 0,26,27
 191 94 191 94 237 94 c 0,28,29
 275 94 275 94 316.5 153.5 c 128,-1,30
 358 213 358 213 386 308 c 128,-1,31
 414 403 414 403 414 496 c 0,32,33
 414 538 414 538 408 577 c 1,34,35
 430 579 430 579 440 579 c 0,0,1
EndSplineSet
EndChar

StartChar: v
Encoding: 118 118 89
Width: 516
GlyphClass: 2
Flags: W
LayerCount: 2
Fore
SplineSet
256 0 m 1,0,1
 232 -14 232 -14 202.5 -14 c 128,-1,2
 173 -14 173 -14 170 1 c 0,3,4
 154 65 154 65 133 192.5 c 128,-1,5
 112 320 112 320 90.5 415.5 c 128,-1,6
 69 511 69 511 39 560 c 1,7,8
 75 586 75 586 110 586 c 0,9,10
 155 586 155 586 174 534.5 c 128,-1,11
 193 483 193 483 210 318.5 c 128,-1,12
 227 154 227 154 240 105 c 1,13,14
 434 479 434 479 434 599 c 1,15,16
 496 557 496 557 496 512.5 c 128,-1,17
 496 468 496 468 454.5 389.5 c 128,-1,18
 413 311 413 311 350.5 199.5 c 128,-1,19
 288 88 288 88 256 0 c 1,0,1
EndSplineSet
EndChar

StartChar: w
Encoding: 119 119 90
Width: 769
GlyphClass: 2
Flags: W
LayerCount: 2
Fore
SplineSet
521.5 -8.5 m 128,-1,1
 500 -14 500 -14 481.5 -14 c 128,-1,2
 463 -14 463 -14 460 1 c 0,3,4
 446 63 446 63 427 195 c 128,-1,5
 408 327 408 327 401 367 c 1,6,7
 381 322 381 322 316.5 190 c 128,-1,8
 252 58 252 58 229 0 c 1,9,10
 224 -4 224 -4 207.5 -9 c 128,-1,11
 191 -14 191 -14 173 -14 c 128,-1,12
 155 -14 155 -14 152 1 c 0,13,14
 137 65 137 65 120 192.5 c 128,-1,15
 103 320 103 320 84 415.5 c 128,-1,16
 65 511 65 511 36 560 c 1,17,18
 74 586 74 586 99.5 586 c 128,-1,19
 125 586 125 586 141.5 574.5 c 128,-1,20
 158 563 158 563 168.5 538.5 c 128,-1,21
 179 514 179 514 185 484.5 c 128,-1,22
 191 455 191 455 195 409.5 c 128,-1,23
 199 364 199 364 202 322 c 0,24,25
 211 188 211 188 221 105 c 1,26,27
 336 372 336 372 370 500 c 1,28,29
 359 532 359 532 344 560 c 1,30,31
 382 586 382 586 407 586 c 128,-1,32
 432 586 432 586 448 574.5 c 128,-1,33
 464 563 464 563 474 538.5 c 128,-1,34
 484 514 484 514 490.5 484.5 c 128,-1,35
 497 455 497 455 501.5 409.5 c 128,-1,36
 506 364 506 364 509 322 c 0,37,38
 517 205 517 205 529 105 c 1,39,40
 579 222 579 222 605 284.5 c 128,-1,41
 631 347 631 347 661 444 c 128,-1,42
 691 541 691 541 692 599 c 1,43,44
 754 569 754 569 754 502 c 0,45,46
 754 457 754 457 718.5 379 c 128,-1,47
 683 301 683 301 629 192.5 c 128,-1,48
 575 84 575 84 547 0 c 1,49,0
 543 -3 543 -3 521.5 -8.5 c 128,-1,1
EndSplineSet
EndChar

StartChar: x
Encoding: 120 120 91
Width: 555
GlyphClass: 2
Flags: W
LayerCount: 2
Fore
SplineSet
458 -30 m 0,0,1
 387 -30 387 -30 337.5 35 c 128,-1,2
 288 100 288 100 242 219 c 1,3,4
 141 104 141 104 98 -42 c 1,5,6
 43 19 43 19 43 68 c 0,7,8
 43 104 43 104 86 154 c 128,-1,9
 129 204 129 204 217 287 c 1,10,11
 207 317 207 317 199 337 c 128,-1,12
 191 357 191 357 183 378.5 c 128,-1,13
 175 400 175 400 171 409 c 128,-1,14
 167 418 167 418 159.5 437 c 128,-1,15
 152 456 152 456 147 465.5 c 128,-1,16
 142 475 142 475 134.5 490.5 c 128,-1,17
 127 506 127 506 121 516 c 0,18,19
 110 536 110 536 93 560 c 1,20,21
 106 571 106 571 127 578.5 c 128,-1,22
 148 586 148 586 162 586 c 0,23,24
 209 586 209 586 242 514 c 0,25,26
 256 482 256 482 295 360 c 1,27,28
 453 514 453 514 468 595 c 1,29,30
 507 546 507 546 507 514.5 c 128,-1,31
 507 483 507 483 489 455.5 c 128,-1,32
 471 428 471 428 451 409.5 c 128,-1,33
 431 391 431 391 386 353.5 c 128,-1,34
 341 316 341 316 317 294 c 1,35,36
 401 57 401 57 507 -21 c 1,37,38
 480 -30 480 -30 458 -30 c 0,0,1
EndSplineSet
EndChar

StartChar: y
Encoding: 121 121 92
Width: 516
GlyphClass: 2
Flags: W
LayerCount: 2
Fore
SplineSet
496 508 m 0,0,1
 496 473 496 473 466 411 c 128,-1,2
 436 349 436 349 393 275 c 128,-1,3
 350 201 350 201 307 117.5 c 128,-1,4
 264 34 264 34 234 -65.5 c 128,-1,5
 204 -165 204 -165 204 -256 c 0,6,7
 204 -301 204 -301 211 -342 c 1,8,9
 147 -327 147 -327 124.5 -297.5 c 128,-1,10
 102 -268 102 -268 102 -228 c 0,11,12
 102 -171 102 -171 172 -11 c 1,13,14
 157 51 157 51 135 183.5 c 128,-1,15
 113 316 113 316 90.5 414 c 128,-1,16
 68 512 68 512 39 560 c 1,17,18
 77 586 77 586 104 586 c 0,19,20
 156 586 156 586 175 532.5 c 128,-1,21
 194 479 194 479 208.5 328 c 128,-1,22
 223 177 223 177 238 106 c 1,23,24
 434 475 434 475 434 599 c 1,25,26
 496 557 496 557 496 508 c 0,0,1
EndSplineSet
EndChar

StartChar: z
Encoding: 122 122 93
Width: 495
GlyphClass: 2
Flags: W
LayerCount: 2
Fore
SplineSet
98 566 m 1,0,1
 194 552 194 552 276.5 552 c 128,-1,2
 359 552 359 552 413 557 c 1,3,4
 428 588 428 588 435 614 c 1,5,6
 480 576 480 576 480 531 c 128,-1,7
 480 486 480 486 439.5 425 c 128,-1,8
 399 364 399 364 310 259.5 c 128,-1,9
 221 155 221 155 176 94 c 1,10,11
 296 91 296 91 339.5 91 c 128,-1,12
 383 91 383 91 445 100 c 1,13,14
 450 75 450 75 450 48 c 0,15,16
 450 -7 450 -7 374 -7 c 0,17,18
 356 -7 356 -7 269.5 1 c 128,-1,19
 183 9 183 9 120 9 c 128,-1,20
 57 9 57 9 -5 -8 c 1,21,22
 9 67 9 67 62 86 c 1,23,24
 260 291 260 291 373 481 c 1,25,26
 321 479 321 479 245.5 469.5 c 128,-1,27
 170 460 170 460 155 460 c 0,28,29
 90 460 90 460 90 525 c 0,30,31
 90 544 90 544 98 566 c 1,0,1
EndSplineSet
EndChar

StartChar: braceleft
Encoding: 123 123 94
Width: 372
GlyphClass: 2
Flags: W
LayerCount: 2
Fore
SplineSet
213 277 m 128,-1,1
 237 230 237 230 237 184.5 c 128,-1,2
 237 139 237 139 230.5 83.5 c 128,-1,3
 224 28 224 28 224 -1.5 c 128,-1,4
 224 -31 224 -31 238.5 -50 c 128,-1,5
 253 -69 253 -69 283.5 -69 c 128,-1,6
 314 -69 314 -69 335 -65 c 1,7,8
 335 -108 335 -108 320 -123.5 c 128,-1,9
 305 -139 305 -139 262 -139 c 0,10,11
 180 -139 180 -139 147 -106.5 c 128,-1,12
 114 -74 114 -74 114 -10 c 0,13,14
 114 13 114 13 121 72.5 c 128,-1,15
 128 132 128 132 128 168 c 0,16,17
 128 309 128 309 60 312 c 1,18,-1
 62 348 l 1,19,20
 116 357 116 357 136 418 c 0,21,22
 153 471 153 471 153 548 c 2,23,-1
 153 595 l 2,24,25
 153 695 153 695 190 739 c 128,-1,26
 227 783 227 783 321 783 c 0,27,28
 357 783 357 783 372 765 c 128,-1,29
 387 747 387 747 387 709 c 1,30,31
 363 712 363 712 345 712 c 0,32,33
 297 712 297 712 282 689 c 128,-1,34
 267 666 267 666 267 610 c 0,35,36
 267 503 267 503 241 425.5 c 128,-1,37
 215 348 215 348 159 330 c 1,38,0
 189 324 189 324 213 277 c 128,-1,1
EndSplineSet
Position2: "'case' Case-Sensitive Forms in Latin lookup 1 per glyph data 0" dx=0 dy=80 dh=0 dv=0
EndChar

StartChar: bar
Encoding: 124 124 95
Width: 456
GlyphClass: 2
Flags: W
LayerCount: 2
Fore
SplineSet
171 -122 m 0,0,1
 171 -65 171 -65 178.5 105.5 c 128,-1,2
 186 276 186 276 186 383 c 0,3,4
 186 751 186 751 172 867 c 1,5,6
 285 867 285 867 285 803 c 0,7,8
 285 747 285 747 277.5 619 c 128,-1,9
 270 491 270 491 270 383 c 0,10,11
 270 -78 270 -78 284 -186 c 1,12,13
 171 -186 171 -186 171 -122 c 0,0,1
EndSplineSet
Position2: "'case' Case-Sensitive Forms in Latin lookup 1 per glyph data 0" dx=0 dy=80 dh=0 dv=0
EndChar

StartChar: braceright
Encoding: 125 125 96
Width: 372
GlyphClass: 2
Flags: W
LayerCount: 2
Fore
SplineSet
159 367 m 128,-1,1
 135 414 135 414 135 459.5 c 128,-1,2
 135 505 135 505 141.5 560.5 c 128,-1,3
 148 616 148 616 148 645.5 c 128,-1,4
 148 675 148 675 133.5 694 c 128,-1,5
 119 713 119 713 88.5 713 c 128,-1,6
 58 713 58 713 37 709 c 1,7,8
 37 752 37 752 52 767.5 c 128,-1,9
 67 783 67 783 110 783 c 0,10,11
 192 783 192 783 227.5 750 c 128,-1,12
 263 717 263 717 263 654 c 0,13,14
 263 631 263 631 253.5 571.5 c 128,-1,15
 244 512 244 512 244 476 c 0,16,17
 244 335 244 335 312 332 c 1,18,-1
 310 296 l 1,19,20
 256 287 256 287 236 226 c 0,21,22
 219 173 219 173 219 96 c 2,23,-1
 219 49 l 2,24,25
 219 -51 219 -51 182 -95 c 128,-1,26
 145 -139 145 -139 51 -139 c 0,27,28
 15 -139 15 -139 0 -121 c 128,-1,29
 -15 -103 -15 -103 -15 -65 c 1,30,31
 9 -68 9 -68 27 -68 c 0,32,33
 75 -68 75 -68 90 -45 c 128,-1,34
 105 -22 105 -22 105 34 c 0,35,36
 105 141 105 141 131 218.5 c 128,-1,37
 157 296 157 296 213 314 c 1,38,0
 183 320 183 320 159 367 c 128,-1,1
EndSplineSet
Position2: "'case' Case-Sensitive Forms in Latin lookup 1 per glyph data 0" dx=0 dy=80 dh=0 dv=0
EndChar

StartChar: asciitilde
Encoding: 126 126 97
Width: 620
GlyphClass: 2
Flags: W
LayerCount: 2
Fore
SplineSet
414 294 m 0,0,1
 373 294 373 294 297 307 c 128,-1,2
 221 320 221 320 193 320 c 0,3,4
 101 320 101 320 59 284 c 1,5,6
 59 374 59 374 93 402 c 0,7,8
 128 432 128 432 205 432 c 0,9,10
 247 432 247 432 323 419 c 128,-1,11
 399 406 399 406 427 406 c 0,12,13
 519 406 519 406 561 442 c 1,14,15
 561 352 561 352 527 324 c 0,16,17
 492 294 492 294 414 294 c 0,0,1
EndSplineSet
EndChar

StartChar: exclamdown
Encoding: 161 161 99
Width: 286
GlyphClass: 2
Flags: W
LayerCount: 2
Fore
SplineSet
41 -160 m 0,0,1
 41 -129 41 -129 58 -62 c 0,2,3
 112 143 112 143 112 256 c 0,4,5
 112 306 112 306 104 325 c 1,6,7
 153 307 153 307 174 272 c 128,-1,8
 195 237 195 237 195 177.5 c 128,-1,9
 195 118 195 118 170 -7 c 128,-1,10
 145 -132 145 -132 145 -185.5 c 128,-1,11
 145 -239 145 -239 148 -255 c 1,12,13
 115 -255 115 -255 78 -230.5 c 128,-1,14
 41 -206 41 -206 41 -160 c 0,0,1
223 437 m 1,15,16
 196 427 196 427 170 427 c 128,-1,17
 144 427 144 427 126 439 c 128,-1,18
 108 451 108 451 108 471.5 c 128,-1,19
 108 492 108 492 126 544 c 1,20,21
 153 554 153 554 179 554 c 128,-1,22
 205 554 205 554 223 542 c 128,-1,23
 241 530 241 530 241 509.5 c 128,-1,24
 241 489 241 489 223 437 c 1,15,16
EndSplineSet
Position2: "'case' Case-Sensitive Forms in Latin lookup 1 per glyph data 1" dx=0 dy=260 dh=0 dv=0
EndChar

StartChar: cent
Encoding: 162 162 100
Width: 620
GlyphClass: 2
Flags: W
LayerCount: 2
Fore
SplineSet
259.5 515 m 128,-1,1
 212 423 212 423 212 326 c 0,2,3
 212 141 212 141 316 141 c 0,4,5
 405 141 405 141 470 239 c 1,6,7
 506 231 506 231 506 207 c 1,8,9
 447 105 447 105 342 79 c 1,10,11
 322 -28 322 -28 322 -98 c 1,12,13
 305 -98 305 -98 284 -90 c 0,14,15
 241 -75 241 -75 241 -21 c 0,16,17
 241 12 241 12 255 73 c 1,18,19
 188 83 188 83 146 142.5 c 128,-1,20
 104 202 104 202 104 308 c 0,21,22
 104 444 104 444 172 545.5 c 128,-1,23
 240 647 240 647 358 661 c 1,24,25
 384 775 384 775 389 832 c 1,26,27
 408 832 408 832 425.5 810 c 128,-1,28
 443 788 443 788 443 754.5 c 128,-1,29
 443 721 443 721 430 661 c 1,30,31
 484 651 484 651 509.5 616 c 128,-1,32
 535 581 535 581 535 536.5 c 128,-1,33
 535 492 535 492 511 458.5 c 128,-1,34
 487 425 487 425 450 425 c 0,35,36
 430 425 430 425 401 433 c 1,37,38
 417 450 417 450 430.5 481 c 128,-1,39
 444 512 444 512 444 541 c 128,-1,40
 444 570 444 570 429 588.5 c 128,-1,41
 414 607 414 607 382 607 c 0,42,0
 307 607 307 607 259.5 515 c 128,-1,1
EndSplineSet
EndChar

StartChar: sterling
Encoding: 163 163 101
Width: 620
GlyphClass: 2
Flags: W
LayerCount: 2
Fore
SplineSet
43 330 m 1,0,-1
 77 329 l 2,1,2
 90 329 90 329 98.5 329 c 128,-1,3
 107 329 107 329 115.5 329.5 c 128,-1,4
 124 330 124 330 129.5 331 c 128,-1,5
 135 332 135 332 140 334 c 0,6,7
 152 338 152 338 154 348 c 0,8,9
 185 544 185 544 243.5 631.5 c 128,-1,10
 302 719 302 719 395 719 c 0,11,12
 466 719 466 719 500 686 c 128,-1,13
 534 653 534 653 534 608 c 128,-1,14
 534 563 534 563 506 533 c 128,-1,15
 478 503 478 503 430 503 c 0,16,17
 411 503 411 503 393 510 c 1,18,19
 414 524 414 524 428.5 548.5 c 128,-1,20
 443 573 443 573 443 596.5 c 128,-1,21
 443 620 443 620 430 635.5 c 128,-1,22
 417 651 417 651 391 651 c 128,-1,23
 365 651 365 651 346.5 638 c 128,-1,24
 328 625 328 625 315.5 604.5 c 128,-1,25
 303 584 303 584 292 543 c 0,26,27
 275 474 275 474 259 354 c 1,28,29
 328 367 328 367 366 367 c 128,-1,30
 404 367 404 367 425.5 351 c 128,-1,31
 447 335 447 335 457 298 c 1,32,33
 442 304 442 304 392.5 304 c 128,-1,34
 343 304 343 304 250 287 c 1,35,36
 227 138 227 138 184 89 c 1,37,-1
 344 83 l 1,38,39
 434 83 434 83 501 110 c 1,40,41
 497 45 497 45 472 13 c 128,-1,42
 447 -19 447 -19 394 -19 c 0,43,44
 382 -19 382 -19 310.5 -10.5 c 128,-1,45
 239 -2 239 -2 166 -2 c 128,-1,46
 93 -2 93 -2 30 -21 c 1,47,48
 30 18 30 18 72 54 c 0,49,50
 88 67 88 67 109 75 c 1,51,52
 127 125 127 125 143 268 c 1,53,54
 119 266 119 266 111 266 c 0,55,56
 51 266 51 266 43 330 c 1,0,-1
EndSplineSet
EndChar

StartChar: yen
Encoding: 165 165 102
Width: 620
GlyphClass: 2
Flags: W
LayerCount: 2
Fore
SplineSet
105 395 m 1,0,-1
 139 394 l 2,1,2
 172 394 172 394 207 397 c 1,3,4
 151 565 151 565 70 693 c 1,5,6
 98 719 98 719 132 719 c 0,7,8
 185 719 185 719 218 638 c 0,9,10
 244 572 244 572 292 398 c 2,11,-1
 310 332 l 2,12,13
 310 333 310 333 313 336 c 0,14,15
 413 482 413 482 451.5 568 c 128,-1,16
 490 654 490 654 503 735 c 1,17,18
 555 690 555 690 555 627 c 0,19,20
 555 590 555 590 531 544.5 c 128,-1,21
 507 499 507 499 454 423 c 1,22,23
 513 419 513 419 531 355 c 1,24,25
 516 361 516 361 478 361 c 128,-1,26
 440 361 440 361 408 358 c 1,27,-1
 357 286 l 1,28,29
 390 292 390 292 425 292 c 128,-1,30
 460 292 460 292 481.5 276 c 128,-1,31
 503 260 503 260 513 223 c 1,32,33
 498 229 498 229 455 229 c 128,-1,34
 412 229 412 229 340 218 c 1,35,36
 324 95 324 95 324 56 c 128,-1,37
 324 17 324 17 327 -15 c 1,38,39
 266 -12 266 -12 247.5 14.5 c 128,-1,40
 229 41 229 41 229 90.5 c 128,-1,41
 229 140 229 140 237 199 c 1,42,43
 191 191 191 191 167 191 c 0,44,45
 107 191 107 191 99 255 c 1,46,-1
 133 254 l 1,47,48
 181 254 181 254 246 266 c 1,49,50
 241 286 241 286 227 335 c 1,51,52
 183 331 183 331 173 331 c 0,53,54
 113 331 113 331 105 395 c 1,0,-1
EndSplineSet
EndChar

StartChar: brokenbar
Encoding: 166 166 103
Width: 456
GlyphClass: 2
Flags: W
LayerCount: 2
Fore
SplineSet
274 450 m 1,0,1
 226 450 226 450 206 474 c 128,-1,2
 186 498 186 498 186 547 c 0,3,4
 186 751 186 751 172 867 c 1,5,6
 232 867 232 867 258.5 851.5 c 128,-1,7
 285 836 285 836 285 802 c 128,-1,8
 285 768 285 768 279.5 638 c 128,-1,9
 274 508 274 508 274 450 c 1,0,1
182 231 m 1,10,11
 230 231 230 231 250 207 c 128,-1,12
 270 183 270 183 270 134 c 0,13,14
 270 -70 270 -70 284 -186 c 1,15,16
 224 -186 224 -186 197.5 -170.5 c 128,-1,17
 171 -155 171 -155 171 -121 c 128,-1,18
 171 -87 171 -87 176.5 43 c 128,-1,19
 182 173 182 173 182 231 c 1,10,11
EndSplineSet
Position2: "'case' Case-Sensitive Forms in Latin lookup 1 per glyph data 0" dx=0 dy=80 dh=0 dv=0
EndChar

StartChar: section
Encoding: 167 167 104
Width: 620
GlyphClass: 2
Flags: W
LayerCount: 2
Fore
SplineSet
529 270 m 0,0,1
 529 197 529 197 470.5 142 c 128,-1,2
 412 87 412 87 317 77 c 1,3,4
 325 71 325 71 350.5 52.5 c 128,-1,5
 376 34 376 34 386.5 25.5 c 128,-1,6
 397 17 397 17 418 -0.5 c 128,-1,7
 439 -18 439 -18 448.5 -30.5 c 128,-1,8
 458 -43 458 -43 470 -62 c 0,9,10
 491 -96 491 -96 491 -140 c 0,11,12
 491 -222 491 -222 427 -279 c 128,-1,13
 363 -336 363 -336 261 -336 c 128,-1,14
 159 -336 159 -336 101 -289 c 128,-1,15
 43 -242 43 -242 43 -178 c 0,16,17
 43 -131 43 -131 70.5 -100 c 128,-1,18
 98 -69 98 -69 143 -69 c 0,19,20
 158 -69 158 -69 172 -72 c 1,21,22
 146 -115 146 -115 146 -158 c 128,-1,23
 146 -201 146 -201 178 -237.5 c 128,-1,24
 210 -274 210 -274 263 -274 c 128,-1,25
 316 -274 316 -274 350.5 -247.5 c 128,-1,26
 385 -221 385 -221 385 -169 c 0,27,28
 385 -138 385 -138 364 -108 c 128,-1,29
 343 -78 343 -78 312 -54.5 c 128,-1,30
 281 -31 281 -31 244 -1 c 128,-1,31
 207 29 207 29 176 58 c 128,-1,32
 145 87 145 87 124 129.5 c 128,-1,33
 103 172 103 172 103 219 c 0,34,35
 103 292 103 292 150.5 340 c 128,-1,36
 198 388 198 388 287 399 c 1,37,38
 219 447 219 447 180 500.5 c 128,-1,39
 141 554 141 554 141 634 c 128,-1,40
 141 714 141 714 196 763.5 c 128,-1,41
 251 813 251 813 347 813 c 128,-1,42
 443 813 443 813 490.5 767 c 128,-1,43
 538 721 538 721 538 666 c 0,44,45
 538 631 538 631 512.5 599 c 128,-1,46
 487 567 487 567 443 567 c 0,47,48
 420 567 420 567 403 575 c 1,49,50
 424 589 424 589 438.5 613.5 c 128,-1,51
 453 638 453 638 453 662 c 0,52,53
 453 709 453 709 421 733 c 128,-1,54
 389 757 389 757 345 757 c 128,-1,55
 301 757 301 757 272.5 729 c 128,-1,56
 244 701 244 701 244 652.5 c 128,-1,57
 244 604 244 604 273.5 563 c 128,-1,58
 303 522 303 522 344.5 490 c 128,-1,59
 386 458 386 458 428 426.5 c 128,-1,60
 470 395 470 395 499.5 354.5 c 128,-1,61
 529 314 529 314 529 270 c 0,0,1
235.5 317.5 m 128,-1,63
 202 286 202 286 202 241.5 c 128,-1,64
 202 197 202 197 235.5 165.5 c 128,-1,65
 269 134 269 134 315 134 c 128,-1,66
 361 134 361 134 393 165 c 128,-1,67
 425 196 425 196 425 241 c 128,-1,68
 425 286 425 286 393 317.5 c 128,-1,69
 361 349 361 349 315 349 c 128,-1,62
 269 349 269 349 235.5 317.5 c 128,-1,63
EndSplineSet
EndChar

StartChar: dieresis
Encoding: 168 168 105
Width: 450
GlyphClass: 2
Flags: W
LayerCount: 2
Fore
SplineSet
164 682 m 0,0,1
 80 682 80 682 80 739 c 0,2,3
 80 759 80 759 95 795 c 1,4,5
 117 799 117 799 133 799 c 0,6,7
 217 799 217 799 217 742 c 0,8,9
 217 722 217 722 202 686 c 1,10,11
 180 682 180 682 164 682 c 0,0,1
374 682 m 0,12,13
 290 682 290 682 290 739 c 0,14,15
 290 759 290 759 305 795 c 1,16,17
 327 799 327 799 343 799 c 0,18,19
 427 799 427 799 427 742 c 0,20,21
 427 722 427 722 412 686 c 1,22,23
 390 682 390 682 374 682 c 0,12,13
EndSplineSet
EndChar

StartChar: copyright
Encoding: 169 169 106
Width: 803
GlyphClass: 2
Flags: W
LayerCount: 2
Fore
SplineSet
380 378 m 0,0,1
 323 378 323 378 284.5 420 c 128,-1,2
 246 462 246 462 246 547.5 c 128,-1,3
 246 633 246 633 295 695.5 c 128,-1,4
 344 758 344 758 432 758 c 0,5,6
 483 758 483 758 509 732.5 c 128,-1,7
 535 707 535 707 535 672 c 128,-1,8
 535 637 535 637 515 614.5 c 128,-1,9
 495 592 495 592 462 592 c 0,10,11
 452 592 452 592 428 599 c 1,12,13
 439 611 439 611 447 634.5 c 128,-1,14
 455 658 455 658 455 677 c 0,15,16
 455 715 455 715 426 715 c 0,17,18
 385 715 385 715 359.5 661.5 c 128,-1,19
 334 608 334 608 334 547.5 c 128,-1,20
 334 487 334 487 354 459 c 128,-1,21
 374 431 374 431 405 431 c 0,22,23
 452 431 452 431 489 485 c 1,24,25
 521 485 521 485 521 465 c 1,26,27
 473 378 473 378 380 378 c 0,0,1
438 861 m 0,28,29
 540 861 540 861 618 800 c 1,30,31
 657 768 657 768 680 711.5 c 128,-1,32
 703 655 703 655 703 579 c 0,33,34
 703 454 703 454 613 363.5 c 128,-1,35
 523 273 523 273 365 273 c 0,36,37
 263 273 263 273 186 334 c 0,38,39
 146 366 146 366 123 422.5 c 128,-1,40
 100 479 100 479 100 555 c 0,41,42
 100 680 100 680 190 770.5 c 128,-1,43
 280 861 280 861 438 861 c 0,28,29
436 814 m 0,44,45
 309 814 309 814 237 737.5 c 128,-1,46
 165 661 165 661 165 555 c 0,47,48
 165 492 165 492 182.5 444.5 c 128,-1,49
 200 397 200 397 230 371 c 0,50,51
 289 320 289 320 367 320 c 0,52,53
 494 320 494 320 566 396.5 c 128,-1,54
 638 473 638 473 638 579 c 0,55,56
 638 642 638 642 620.5 689.5 c 128,-1,57
 603 737 603 737 573 763 c 0,58,59
 514 814 514 814 436 814 c 0,44,45
EndSplineSet
EndChar

StartChar: ordfeminine
Encoding: 170 170 107
Width: 391
GlyphClass: 2
Flags: W
LayerCount: 2
Fore
SplineSet
201 777 m 0,0,1
 232 777 232 777 258 763 c 1,2,-1
 256 784 l 1,3,-1
 284 784 l 2,4,5
 345 784 345 784 345 726 c 0,6,7
 345 704 345 704 330.5 628 c 128,-1,8
 316 552 316 552 316 507 c 128,-1,9
 316 462 316 462 350 414 c 1,10,11
 254 433 254 433 245 522 c 1,12,13
 220 478 220 478 184.5 453.5 c 128,-1,14
 149 429 149 429 113 429 c 128,-1,15
 77 429 77 429 53 459.5 c 128,-1,16
 29 490 29 490 29 549 c 0,17,18
 29 633 29 633 77.5 705 c 128,-1,19
 126 777 126 777 201 777 c 0,0,1
147.5 682.5 m 128,-1,21
 107 626 107 626 107 557 c 128,-1,22
 107 488 107 488 156 488 c 0,23,24
 202 488 202 488 232 555.5 c 128,-1,25
 262 623 262 623 262 708 c 0,26,27
 262 721 262 721 260 749 c 1,28,20
 188 739 188 739 147.5 682.5 c 128,-1,21
EndSplineSet
EndChar

StartChar: guillemotleft
Encoding: 171 171 108
Width: 638
GlyphClass: 2
Flags: W
LayerCount: 2
Fore
SplineSet
222.5 531.5 m 128,-1,1
 251 564 251 564 284 564 c 128,-1,2
 317 564 317 564 352 519 c 1,3,4
 322 509 322 509 292.5 476 c 128,-1,5
 263 443 263 443 226.5 389 c 128,-1,6
 190 335 190 335 176 317 c 1,7,8
 187 298 187 298 212 244.5 c 128,-1,9
 237 191 237 191 259.5 158 c 128,-1,10
 282 125 282 125 309 115 c 1,11,12
 265 70 265 70 224 70 c 0,13,14
 196 70 196 70 175 102.5 c 128,-1,15
 154 135 154 135 143.5 175.5 c 128,-1,16
 133 216 133 216 115 256 c 128,-1,17
 97 296 97 296 75 307 c 1,18,-1
 78 327 l 1,19,20
 121 347 121 347 174 458 c 0,21,0
 194 499 194 499 222.5 531.5 c 128,-1,1
463.5 531.5 m 128,-1,23
 492 564 492 564 525 564 c 128,-1,24
 558 564 558 564 593 519 c 1,25,26
 563 509 563 509 533.5 476 c 128,-1,27
 504 443 504 443 467.5 389 c 128,-1,28
 431 335 431 335 417 317 c 1,29,30
 428 298 428 298 453 244.5 c 128,-1,31
 478 191 478 191 500.5 158 c 128,-1,32
 523 125 523 125 550 115 c 1,33,34
 506 70 506 70 465 70 c 0,35,36
 437 70 437 70 416 102.5 c 128,-1,37
 395 135 395 135 384.5 175.5 c 128,-1,38
 374 216 374 216 356 256 c 128,-1,39
 338 296 338 296 316 307 c 1,40,-1
 319 327 l 1,41,42
 362 347 362 347 416 458 c 0,43,22
 435 499 435 499 463.5 531.5 c 128,-1,23
EndSplineSet
Position2: "'case' Case-Sensitive Forms in Latin lookup 1 per glyph data 0" dx=0 dy=80 dh=0 dv=0
EndChar

StartChar: logicalnot
Encoding: 172 172 109
Width: 620
GlyphClass: 2
Flags: W
LayerCount: 2
Fore
SplineSet
560 311 m 1,0,-1
 552 141 l 1,1,2
 532 136 532 136 518 136 c 0,3,4
 461 136 461 136 461 204 c 0,5,6
 461 234 461 234 484 320 c 1,7,8
 470 321 470 321 435 321 c 128,-1,9
 400 321 400 321 309 312.5 c 128,-1,10
 218 304 218 304 161 304 c 128,-1,11
 104 304 104 304 82 325 c 128,-1,12
 60 346 60 346 60 388 c 0,13,14
 60 391 60 391 60.5 397 c 128,-1,15
 61 403 61 403 61 406 c 1,16,17
 141 396 141 396 197.5 396 c 128,-1,18
 254 396 254 396 331 402.5 c 128,-1,19
 408 409 408 409 463 409 c 128,-1,20
 518 409 518 409 539 384 c 128,-1,21
 560 359 560 359 560 311 c 1,0,-1
EndSplineSet
EndChar

StartChar: registered
Encoding: 174 174 110
Width: 803
GlyphClass: 2
Flags: W
LayerCount: 2
Fore
SplineSet
413 752 m 0,0,1
 528 752 528 752 528 671 c 0,2,3
 528 639 528 639 507 607 c 128,-1,4
 486 575 486 575 443 558 c 1,5,6
 473 444 473 444 531 386 c 1,7,8
 502 380 502 380 483.5 380 c 128,-1,9
 465 380 465 380 447 390.5 c 128,-1,10
 429 401 429 401 416.5 422.5 c 128,-1,11
 404 444 404 444 397 460.5 c 128,-1,12
 390 477 390 477 380.5 506.5 c 128,-1,13
 371 536 371 536 368 545 c 1,14,-1
 346 543 l 1,15,16
 335 463 335 463 335 383 c 1,17,18
 323 381 323 381 308 381 c 0,19,20
 253 381 253 381 253 419 c 0,21,22
 253 439 253 439 273 554.5 c 128,-1,23
 293 670 293 670 295 731 c 1,24,25
 354 752 354 752 413 752 c 0,0,1
422.5 603 m 128,-1,27
 450 628 450 628 450 653 c 0,28,29
 450 706 450 706 403 706 c 0,30,31
 386 706 386 706 366 699 c 1,32,33
 359 633 359 633 350 575 c 1,34,26
 395 578 395 578 422.5 603 c 128,-1,27
436 814 m 0,35,36
 309 814 309 814 237 737.5 c 128,-1,37
 165 661 165 661 165 555 c 0,38,39
 165 492 165 492 182.5 444.5 c 128,-1,40
 200 397 200 397 230 371 c 0,41,42
 289 320 289 320 367 320 c 0,43,44
 494 320 494 320 566 396.5 c 128,-1,45
 638 473 638 473 638 579 c 0,46,47
 638 642 638 642 620.5 689.5 c 128,-1,48
 603 737 603 737 573 763 c 0,49,50
 514 814 514 814 436 814 c 0,35,36
438 861 m 0,51,52
 540 861 540 861 618 800 c 1,53,54
 657 768 657 768 680 711.5 c 128,-1,55
 703 655 703 655 703 579 c 0,56,57
 703 454 703 454 613 363.5 c 128,-1,58
 523 273 523 273 365 273 c 0,59,60
 263 273 263 273 186 334 c 0,61,62
 146 366 146 366 123 422.5 c 128,-1,63
 100 479 100 479 100 555 c 0,64,65
 100 680 100 680 190 770.5 c 128,-1,66
 280 861 280 861 438 861 c 0,51,52
EndSplineSet
EndChar

StartChar: macron
Encoding: 175 175 111
Width: 424
GlyphClass: 2
Flags: W
LayerCount: 2
Fore
SplineSet
224 772 m 128,-1,1
 269 778 269 778 301.5 778 c 128,-1,2
 334 778 334 778 346.5 760 c 128,-1,3
 359 742 359 742 359 700 c 0,4,5
 359 697 359 697 358.5 691.5 c 128,-1,6
 358 686 358 686 358 682 c 1,7,8
 316 691 316 691 280.5 691 c 128,-1,9
 245 691 245 691 200 685 c 128,-1,10
 155 679 155 679 122.5 679 c 128,-1,11
 90 679 90 679 77.5 697 c 128,-1,12
 65 715 65 715 65 757 c 0,13,14
 65 760 65 760 65.5 765.5 c 128,-1,15
 66 771 66 771 66 775 c 1,16,17
 108 766 108 766 143.5 766 c 128,-1,0
 179 766 179 766 224 772 c 128,-1,1
EndSplineSet
EndChar

StartChar: degree
Encoding: 176 176 112
Width: 404
GlyphClass: 2
Flags: W
LayerCount: 2
Fore
SplineSet
229 784 m 0,0,1
 286 784 286 784 326 748.5 c 128,-1,2
 366 713 366 713 366 637 c 128,-1,3
 366 561 366 561 315 505.5 c 128,-1,4
 264 450 264 450 175 450 c 0,5,6
 118 450 118 450 78 485.5 c 128,-1,7
 38 521 38 521 38 596.5 c 128,-1,8
 38 672 38 672 89 728 c 128,-1,9
 140 784 140 784 229 784 c 0,0,1
212 729 m 0,10,11
 170 729 170 729 147.5 694.5 c 128,-1,12
 125 660 125 660 125 608 c 128,-1,13
 125 556 125 556 144.5 530.5 c 128,-1,14
 164 505 164 505 193 505 c 0,15,16
 235 505 235 505 257.5 539.5 c 128,-1,17
 280 574 280 574 280 625 c 128,-1,18
 280 676 280 676 260.5 702.5 c 128,-1,19
 241 729 241 729 212 729 c 0,10,11
EndSplineSet
EndChar

StartChar: plusminus
Encoding: 177 177 113
Width: 620
GlyphClass: 2
Flags: W
LayerCount: 2
Fore
SplineSet
401 408 m 1,0,-1
 356 407 l 1,1,2
 354 337 354 337 351 292.5 c 128,-1,3
 348 248 348 248 331.5 225 c 128,-1,4
 315 202 315 202 285.5 202 c 128,-1,5
 256 202 256 202 243 204 c 1,6,7
 257 274 257 274 261 400 c 1,8,9
 216 397 216 397 158.5 397 c 128,-1,10
 101 397 101 397 80.5 418 c 128,-1,11
 60 439 60 439 60 481 c 0,12,13
 60 484 60 484 60.5 490 c 128,-1,14
 61 496 61 496 61 499 c 1,15,16
 122 491 122 491 185 491 c 128,-1,17
 248 491 248 491 263 492 c 1,18,19
 263 549 263 549 267 599.5 c 128,-1,20
 271 650 271 650 288 673 c 128,-1,21
 305 696 305 696 335 696 c 128,-1,22
 365 696 365 696 376 694 c 1,23,24
 360 614 360 614 358 498 c 1,25,26
 418 502 418 502 468.5 502 c 128,-1,27
 519 502 519 502 539.5 481 c 128,-1,28
 560 460 560 460 560 418 c 0,29,30
 560 415 560 415 559.5 409 c 128,-1,31
 559 403 559 403 559 400 c 1,32,33
 498 408 498 408 401 408 c 1,0,-1
308 108.5 m 128,-1,35
 385 114 385 114 440.5 114 c 128,-1,36
 496 114 496 114 516.5 93 c 128,-1,37
 537 72 537 72 537 30 c 0,38,39
 537 27 537 27 536.5 21 c 128,-1,40
 536 15 536 15 536 12 c 1,41,42
 475 20 475 20 409 20 c 128,-1,43
 343 20 343 20 266 14.5 c 128,-1,44
 189 9 189 9 133.5 9 c 128,-1,45
 78 9 78 9 57.5 30 c 128,-1,46
 37 51 37 51 37 93 c 0,47,48
 37 96 37 96 37.5 102 c 128,-1,49
 38 108 38 108 38 111 c 1,50,51
 99 103 99 103 165 103 c 128,-1,34
 231 103 231 103 308 108.5 c 128,-1,35
EndSplineSet
EndChar

StartChar: twosuperior
Encoding: 178 178 114
Width: 353
GlyphClass: 2
Flags: W
LayerCount: 2
Fore
SplineSet
240 278 m 1,0,-1
 97 288 l 1,1,2
 40 288 40 288 -7 269 c 1,3,4
 -7 303 -7 303 14 327 c 128,-1,5
 35 351 35 351 63 357 c 1,6,7
 227 501 227 501 227 598 c 0,8,9
 227 631 227 631 209.5 647.5 c 128,-1,10
 192 664 192 664 168 664 c 128,-1,11
 144 664 144 664 129 649.5 c 128,-1,12
 114 635 114 635 114 605 c 128,-1,13
 114 575 114 575 134 550 c 1,14,15
 123 546 123 546 103 546 c 128,-1,16
 83 546 83 546 63.5 564.5 c 128,-1,17
 44 583 44 583 44 621 c 128,-1,18
 44 659 44 659 78 691 c 128,-1,19
 112 723 112 723 171.5 723 c 128,-1,20
 231 723 231 723 272 692.5 c 128,-1,21
 313 662 313 662 313 605.5 c 128,-1,22
 313 549 313 549 265 485 c 128,-1,23
 217 421 217 421 125 359 c 1,24,25
 177 357 177 357 202 357 c 0,26,27
 263 357 263 357 313 378 c 1,28,29
 310 324 310 324 294.5 301 c 128,-1,30
 279 278 279 278 240 278 c 1,0,-1
EndSplineSet
EndChar

StartChar: threesuperior
Encoding: 179 179 115
Width: 360
GlyphClass: 2
Flags: W
LayerCount: 2
Fore
SplineSet
294 615 m 0,0,1
 294 582 294 582 274.5 553.5 c 128,-1,2
 255 525 255 525 218 511 c 1,3,4
 253 502 253 502 276.5 470 c 128,-1,5
 300 438 300 438 300 403 c 0,6,7
 300 350 300 350 259 308.5 c 128,-1,8
 218 267 218 267 152 267 c 128,-1,9
 86 267 86 267 50.5 292.5 c 128,-1,10
 15 318 15 318 15 354.5 c 128,-1,11
 15 391 15 391 31 412 c 128,-1,12
 47 433 47 433 76 433 c 0,13,14
 88 433 88 433 102 428 c 1,15,16
 85 408 85 408 85 382 c 128,-1,17
 85 356 85 356 101 338.5 c 128,-1,18
 117 321 117 321 146 321 c 128,-1,19
 175 321 175 321 197 341 c 128,-1,20
 219 361 219 361 219 392.5 c 128,-1,21
 219 424 219 424 196.5 447 c 128,-1,22
 174 470 174 470 131 475 c 1,23,24
 120 473 120 473 102 471 c 1,25,-1
 97 503 l 1,26,27
 223 520 223 520 223 604 c 0,28,29
 223 633 223 633 206 649 c 128,-1,30
 189 665 189 665 166.5 665 c 128,-1,31
 144 665 144 665 129 651 c 128,-1,32
 114 637 114 637 114 612 c 128,-1,33
 114 587 114 587 131 566 c 1,34,35
 122 562 122 562 104 562 c 128,-1,36
 86 562 86 562 69 578 c 128,-1,37
 52 594 52 594 52 627.5 c 128,-1,38
 52 661 52 661 83 691.5 c 128,-1,39
 114 722 114 722 168 722 c 128,-1,40
 222 722 222 722 258 694.5 c 128,-1,41
 294 667 294 667 294 615 c 0,0,1
EndSplineSet
EndChar

StartChar: acute
Encoding: 180 180 116
Width: 372
GlyphClass: 2
Flags: W
LayerCount: 2
Fore
SplineSet
98 652 m 1,0,1
 123 708 123 708 179.5 769.5 c 128,-1,2
 236 831 236 831 289 852 c 1,3,4
 335 822 335 822 337 770 c 1,5,6
 279 752 279 752 222.5 708 c 128,-1,7
 166 664 166 664 130 619 c 1,8,9
 118 622 118 622 108.5 631.5 c 128,-1,10
 99 641 99 641 98 652 c 1,0,1
EndSplineSet
EndChar

StartChar: mu
Encoding: 181 181 117
Width: 606
GlyphClass: 2
Flags: W
LayerCount: 2
Fore
SplineSet
442 579 m 0,0,1
 483 579 483 579 504.5 560 c 128,-1,2
 526 541 526 541 526 490 c 0,3,4
 526 474 526 474 507 349.5 c 128,-1,5
 488 225 488 225 488 136 c 128,-1,6
 488 47 488 47 507 -21 c 1,7,8
 447 3 447 3 423 47 c 128,-1,9
 399 91 399 91 399 156 c 0,10,11
 399 181 399 181 410 269 c 1,12,13
 373 144 373 144 308 72.5 c 128,-1,14
 243 1 243 1 148 1 c 1,15,16
 120 -139 120 -139 120 -213.5 c 128,-1,17
 120 -288 120 -288 128 -307 c 1,18,19
 76 -289 76 -289 56.5 -255 c 128,-1,20
 37 -221 37 -221 37 -163.5 c 128,-1,21
 37 -106 37 -106 78 112.5 c 128,-1,22
 119 331 119 331 119 462 c 0,23,24
 119 520 119 520 105 572 c 1,25,26
 173 572 173 572 203 550.5 c 128,-1,27
 233 529 233 529 233 465 c 0,28,29
 233 431 233 431 212 325 c 128,-1,30
 191 219 191 219 191 168 c 0,31,32
 191 94 191 94 237 94 c 0,33,34
 271 94 271 94 312.5 149 c 128,-1,35
 354 204 354 204 384 296 c 128,-1,36
 414 388 414 388 414 480 c 0,37,38
 414 528 414 528 408 577 c 1,39,40
 432 579 432 579 442 579 c 0,0,1
EndSplineSet
EndChar

StartChar: paragraph
Encoding: 182 182 118
Width: 620
GlyphClass: 2
Flags: W
LayerCount: 2
Fore
SplineSet
377 -299 m 128,-1,1
 353 -273 353 -273 353 -211 c 128,-1,2
 353 -149 353 -149 394 211 c 1,3,4
 243 268 243 268 162.5 361 c 128,-1,5
 82 454 82 454 82 561.5 c 128,-1,6
 82 669 82 669 146 740.5 c 128,-1,7
 210 812 210 812 330 812 c 0,8,9
 428 812 428 812 481 759.5 c 128,-1,10
 534 707 534 707 534 602 c 0,11,12
 534 558 534 558 497 233.5 c 128,-1,13
 460 -91 460 -91 460 -239 c 0,14,15
 460 -271 460 -271 464 -329 c 1,16,0
 401 -325 401 -325 377 -299 c 128,-1,1
333 742 m 0,17,18
 266 742 266 742 234 696.5 c 128,-1,19
 202 651 202 651 202 574 c 128,-1,20
 202 497 202 497 260 421.5 c 128,-1,21
 318 346 318 346 406 306 c 1,22,23
 436 617 436 617 436 682 c 1,24,25
 420 711 420 711 392 726.5 c 128,-1,26
 364 742 364 742 333 742 c 0,17,18
206.5 23.5 m 128,-1,28
 227 171 227 171 232 208 c 1,29,30
 265 182 265 182 316 160 c 1,31,32
 311 121 311 121 303 61 c 128,-1,33
 295 1 295 1 292 -30 c 0,34,35
 281 -125 281 -125 281 -205.5 c 128,-1,36
 281 -286 281 -286 309 -319 c 1,37,38
 249 -315 249 -315 217.5 -292 c 128,-1,39
 186 -269 186 -269 186 -196.5 c 128,-1,27
 186 -124 186 -124 206.5 23.5 c 128,-1,28
EndSplineSet
EndChar

StartChar: periodcentered
Encoding: 183 183 119
Width: 303
GlyphClass: 2
Flags: W
LayerCount: 2
Fore
SplineSet
155 249 m 0,0,1
 90 249 90 249 90 303 c 0,2,3
 90 322 90 322 108 376 c 1,4,5
 138 386 138 386 168 386 c 0,6,7
 233 386 233 386 233 332 c 0,8,9
 233 313 233 313 215 259 c 1,10,11
 185 249 185 249 155 249 c 0,0,1
EndSplineSet
EndChar

StartChar: cedilla
Encoding: 184 184 120
Width: 292
GlyphClass: 2
Flags: W
LayerCount: 2
Fore
SplineSet
202.5 -74.5 m 128,-1,1
 232 -105 232 -105 232 -155.5 c 128,-1,2
 232 -206 232 -206 197.5 -250.5 c 128,-1,3
 163 -295 163 -295 104 -313 c 1,4,5
 65 -296 65 -296 65 -243 c 1,6,7
 108 -234 108 -234 133 -207.5 c 128,-1,8
 158 -181 158 -181 158 -146 c 0,9,10
 158 -91 158 -91 104 -67 c 1,11,12
 104 -54 104 -54 110 -40 c 1,13,0
 173 -44 173 -44 202.5 -74.5 c 128,-1,1
EndSplineSet
EndChar

StartChar: onesuperior
Encoding: 185 185 121
Width: 286
GlyphClass: 2
Flags: W
LayerCount: 2
Fore
SplineSet
226 724 m 1,0,1
 198 500 198 500 198 404 c 128,-1,2
 198 308 198 308 200 278 c 1,3,4
 182 275 182 275 165 275 c 0,5,6
 111 275 111 275 111 340 c 0,7,8
 111 401 111 401 123.5 498 c 128,-1,9
 136 595 136 595 138 618 c 1,10,11
 88 590 88 590 62 590 c 0,12,13
 47 590 47 590 33.5 613.5 c 128,-1,14
 20 637 20 637 20 654 c 1,15,16
 135 681 135 681 226 724 c 1,0,1
EndSplineSet
EndChar

StartChar: ordmasculine
Encoding: 186 186 122
Width: 380
GlyphClass: 2
Flags: W
LayerCount: 2
Fore
SplineSet
219 740 m 0,0,1
 177 740 177 740 144 687.5 c 128,-1,2
 111 635 111 635 111 582 c 0,3,4
 111 473 111 473 176 473 c 0,5,6
 220 473 220 473 246.5 525 c 128,-1,7
 273 577 273 577 273 643 c 0,8,9
 273 740 273 740 219 740 c 0,0,1
197 772 m 1,10,11
 222 786 222 786 255 786 c 128,-1,12
 288 786 288 786 314 749.5 c 128,-1,13
 340 713 340 713 340 655 c 128,-1,14
 340 597 340 597 323 547.5 c 128,-1,15
 306 498 306 498 264.5 462.5 c 128,-1,16
 223 427 223 427 168 427 c 128,-1,17
 113 427 113 427 74.5 468 c 128,-1,18
 36 509 36 509 36 586.5 c 128,-1,19
 36 664 36 664 72 722 c 128,-1,20
 108 780 108 780 167 796 c 1,21,22
 179 796 179 796 188 789 c 128,-1,23
 197 782 197 782 197 772 c 1,10,11
EndSplineSet
EndChar

StartChar: guillemotright
Encoding: 187 187 123
Width: 638
GlyphClass: 2
Flags: W
LayerCount: 2
Fore
SplineSet
415.5 102.5 m 128,-1,1
 387 70 387 70 354 70 c 128,-1,2
 321 70 321 70 286 115 c 1,3,4
 316 125 316 125 345.5 158 c 128,-1,5
 375 191 375 191 411.5 245 c 128,-1,6
 448 299 448 299 462 317 c 1,7,8
 451 336 451 336 426 389.5 c 128,-1,9
 401 443 401 443 378.5 476 c 128,-1,10
 356 509 356 509 329 519 c 1,11,12
 373 564 373 564 414 564 c 0,13,14
 442 564 442 564 463 531.5 c 128,-1,15
 484 499 484 499 494.5 458.5 c 128,-1,16
 505 418 505 418 523 378 c 128,-1,17
 541 338 541 338 563 327 c 1,18,-1
 560 307 l 1,19,20
 517 287 517 287 464 176 c 0,21,0
 444 135 444 135 415.5 102.5 c 128,-1,1
174.5 102.5 m 128,-1,23
 146 70 146 70 113 70 c 128,-1,24
 80 70 80 70 45 115 c 1,25,26
 75 125 75 125 104.5 158 c 128,-1,27
 134 191 134 191 170.5 245 c 128,-1,28
 207 299 207 299 221 317 c 1,29,30
 210 336 210 336 185 389.5 c 128,-1,31
 160 443 160 443 137.5 476 c 128,-1,32
 115 509 115 509 88 519 c 1,33,34
 132 564 132 564 173 564 c 0,35,36
 201 564 201 564 222 531.5 c 128,-1,37
 243 499 243 499 253.5 458.5 c 128,-1,38
 264 418 264 418 282 378 c 128,-1,39
 300 338 300 338 322 327 c 1,40,-1
 319 307 l 1,41,42
 276 287 276 287 222 176 c 0,43,22
 203 135 203 135 174.5 102.5 c 128,-1,23
EndSplineSet
Position2: "'case' Case-Sensitive Forms in Latin lookup 1 per glyph data 0" dx=0 dy=80 dh=0 dv=0
EndChar

StartChar: onequarter
Encoding: 188 188 124
Width: 880
GlyphClass: 2
Flags: W
LayerCount: 2
Fore
SplineSet
566 661 m 128,-1,1
 566 626 566 626 518.5 491 c 128,-1,2
 471 356 471 356 416 188 c 128,-1,3
 361 20 361 20 347 -82 c 1,4,5
 340 -82 340 -82 326 -74 c 128,-1,6
 312 -66 312 -66 303 -57 c 0,7,8
 279 -33 279 -33 279 13 c 128,-1,9
 279 59 279 59 333.5 201.5 c 128,-1,10
 388 344 388 344 451 512 c 128,-1,11
 514 680 514 680 529 768 c 1,12,13
 543 754 543 754 554.5 725 c 128,-1,0
 566 696 566 696 566 661 c 128,-1,1
272 672 m 1,14,15
 244 448 244 448 244 352 c 128,-1,16
 244 256 244 256 246 226 c 1,17,18
 228 223 228 223 211 223 c 0,19,20
 157 223 157 223 157 288 c 0,21,22
 157 349 157 349 169.5 446 c 128,-1,23
 182 543 182 543 184 566 c 1,24,25
 134 538 134 538 108 538 c 0,26,27
 93 538 93 538 79.5 561.5 c 128,-1,28
 66 585 66 585 66 602 c 1,29,30
 181 629 181 629 272 672 c 1,14,15
518 78 m 1,31,32
 500 97 500 97 500 116 c 128,-1,33
 500 135 500 135 529 180 c 0,34,35
 630 337 630 337 654 450 c 1,36,37
 675 441 675 441 694 418 c 128,-1,38
 713 395 713 395 713 375.5 c 128,-1,39
 713 356 713 356 697 325 c 128,-1,40
 681 294 681 294 663 267.5 c 128,-1,41
 645 241 645 241 613 197.5 c 128,-1,42
 581 154 581 154 567 133 c 1,43,44
 648 135 648 135 696 138 c 1,45,46
 701 180 701 180 701 231 c 1,47,48
 715 235 715 235 734 235 c 0,49,50
 771 235 771 235 771 194 c 0,51,52
 771 182 771 182 765 146 c 1,53,-1
 804 150 l 1,54,55
 811 125 811 125 811 114 c 0,56,57
 811 72 811 72 759 69 c 1,58,59
 759 10 759 10 765 -22 c 1,60,61
 749 -25 749 -25 726 -25 c 0,62,63
 680 -25 680 -25 680 25 c 0,64,65
 680 51 680 51 684 70 c 1,66,67
 540 72 540 72 518 78 c 1,31,32
EndSplineSet
EndChar

StartChar: onehalf
Encoding: 189 189 125
Width: 880
GlyphClass: 2
Flags: W
LayerCount: 2
Fore
SplineSet
555 661 m 128,-1,1
 555 626 555 626 507.5 491 c 128,-1,2
 460 356 460 356 405 188 c 128,-1,3
 350 20 350 20 336 -82 c 1,4,5
 329 -82 329 -82 315 -74 c 128,-1,6
 301 -66 301 -66 292 -57 c 0,7,8
 268 -33 268 -33 268 13 c 128,-1,9
 268 59 268 59 322.5 201.5 c 128,-1,10
 377 344 377 344 440 512 c 128,-1,11
 503 680 503 680 518 768 c 1,12,13
 532 754 532 754 543.5 725 c 128,-1,0
 555 696 555 696 555 661 c 128,-1,1
272 672 m 1,14,15
 244 448 244 448 244 352 c 128,-1,16
 244 256 244 256 246 226 c 1,17,18
 228 223 228 223 211 223 c 0,19,20
 157 223 157 223 157 288 c 0,21,22
 157 349 157 349 169.5 446 c 128,-1,23
 182 543 182 543 184 566 c 1,24,25
 134 538 134 538 108 538 c 0,26,27
 93 538 93 538 79.5 561.5 c 128,-1,28
 66 585 66 585 66 602 c 1,29,30
 181 629 181 629 272 672 c 1,14,15
714 -22 m 1,31,-1
 571 -12 l 1,32,33
 514 -12 514 -12 467 -31 c 1,34,35
 467 3 467 3 488 27 c 128,-1,36
 509 51 509 51 537 57 c 1,37,38
 701 201 701 201 701 298 c 0,39,40
 701 331 701 331 683.5 347.5 c 128,-1,41
 666 364 666 364 642 364 c 128,-1,42
 618 364 618 364 603 349.5 c 128,-1,43
 588 335 588 335 588 305 c 128,-1,44
 588 275 588 275 608 250 c 1,45,46
 597 246 597 246 577 246 c 128,-1,47
 557 246 557 246 537.5 264.5 c 128,-1,48
 518 283 518 283 518 321 c 128,-1,49
 518 359 518 359 552 391 c 128,-1,50
 586 423 586 423 645.5 423 c 128,-1,51
 705 423 705 423 746 392.5 c 128,-1,52
 787 362 787 362 787 305.5 c 128,-1,53
 787 249 787 249 739 185 c 128,-1,54
 691 121 691 121 599 59 c 1,55,56
 651 57 651 57 676 57 c 0,57,58
 737 57 737 57 787 78 c 1,59,60
 784 24 784 24 768.5 1 c 128,-1,61
 753 -22 753 -22 714 -22 c 1,31,-1
EndSplineSet
EndChar

StartChar: threequarters
Encoding: 190 190 126
Width: 880
GlyphClass: 2
Flags: W
LayerCount: 2
Fore
SplineSet
592 661 m 128,-1,1
 592 626 592 626 544.5 491 c 128,-1,2
 497 356 497 356 442 188 c 128,-1,3
 387 20 387 20 373 -82 c 1,4,5
 366 -82 366 -82 352 -74 c 128,-1,6
 338 -66 338 -66 329 -57 c 0,7,8
 305 -33 305 -33 305 13 c 128,-1,9
 305 59 305 59 359.5 201.5 c 128,-1,10
 414 344 414 344 477 512 c 128,-1,11
 540 680 540 680 555 768 c 1,12,13
 569 754 569 754 580.5 725 c 128,-1,0
 592 696 592 696 592 661 c 128,-1,1
334 563 m 0,14,15
 334 530 334 530 314.5 501.5 c 128,-1,16
 295 473 295 473 258 459 c 1,17,18
 293 450 293 450 316.5 418 c 128,-1,19
 340 386 340 386 340 351 c 0,20,21
 340 298 340 298 299 256.5 c 128,-1,22
 258 215 258 215 192 215 c 128,-1,23
 126 215 126 215 90.5 240.5 c 128,-1,24
 55 266 55 266 55 302.5 c 128,-1,25
 55 339 55 339 71 360 c 128,-1,26
 87 381 87 381 116 381 c 0,27,28
 128 381 128 381 142 376 c 1,29,30
 125 356 125 356 125 330 c 128,-1,31
 125 304 125 304 141 286.5 c 128,-1,32
 157 269 157 269 186 269 c 128,-1,33
 215 269 215 269 237 289 c 128,-1,34
 259 309 259 309 259 340.5 c 128,-1,35
 259 372 259 372 236.5 395 c 128,-1,36
 214 418 214 418 171 423 c 1,37,38
 160 421 160 421 142 419 c 1,39,-1
 137 451 l 1,40,41
 263 468 263 468 263 552 c 0,42,43
 263 581 263 581 246 597 c 128,-1,44
 229 613 229 613 206.5 613 c 128,-1,45
 184 613 184 613 169 599 c 128,-1,46
 154 585 154 585 154 560 c 128,-1,47
 154 535 154 535 171 514 c 1,48,49
 162 510 162 510 144 510 c 128,-1,50
 126 510 126 510 109 526 c 128,-1,51
 92 542 92 542 92 575.5 c 128,-1,52
 92 609 92 609 123 639.5 c 128,-1,53
 154 670 154 670 208 670 c 128,-1,54
 262 670 262 670 298 642.5 c 128,-1,55
 334 615 334 615 334 563 c 0,14,15
518 78 m 1,56,57
 500 97 500 97 500 116 c 128,-1,58
 500 135 500 135 529 180 c 0,59,60
 630 337 630 337 654 450 c 1,61,62
 675 441 675 441 694 418 c 128,-1,63
 713 395 713 395 713 375.5 c 128,-1,64
 713 356 713 356 697 325 c 128,-1,65
 681 294 681 294 663 267.5 c 128,-1,66
 645 241 645 241 613 197.5 c 128,-1,67
 581 154 581 154 567 133 c 1,68,69
 648 135 648 135 696 138 c 1,70,71
 701 180 701 180 701 231 c 1,72,73
 715 235 715 235 734 235 c 0,74,75
 771 235 771 235 771 194 c 0,76,77
 771 182 771 182 765 146 c 1,78,-1
 804 150 l 1,79,80
 811 125 811 125 811 114 c 0,81,82
 811 72 811 72 759 69 c 1,83,84
 759 10 759 10 765 -22 c 1,85,86
 749 -25 749 -25 726 -25 c 0,87,88
 680 -25 680 -25 680 25 c 0,89,90
 680 51 680 51 684 70 c 1,91,92
 540 72 540 72 518 78 c 1,56,57
EndSplineSet
EndChar

StartChar: questiondown
Encoding: 191 191 127
Width: 373
GlyphClass: 2
Flags: W
LayerCount: 2
Fore
SplineSet
264 292.5 m 128,-1,1
 283 266 283 266 283 228.5 c 128,-1,2
 283 191 283 191 259.5 159 c 128,-1,3
 236 127 236 127 202.5 100.5 c 128,-1,4
 169 74 169 74 135.5 47 c 128,-1,5
 102 20 102 20 78.5 -15.5 c 128,-1,6
 55 -51 55 -51 55 -91.5 c 128,-1,7
 55 -132 55 -132 82 -155 c 128,-1,8
 109 -178 109 -178 152.5 -178 c 128,-1,9
 196 -178 196 -178 222 -151 c 128,-1,10
 248 -124 248 -124 248 -85.5 c 128,-1,11
 248 -47 248 -47 223 -17 c 1,12,13
 240 -9 240 -9 267 -9 c 128,-1,14
 294 -9 294 -9 316 -31.5 c 128,-1,15
 338 -54 338 -54 338 -89 c 0,16,17
 338 -153 338 -153 278 -193 c 128,-1,18
 218 -233 218 -233 140 -233 c 128,-1,19
 62 -233 62 -233 8.5 -194.5 c 128,-1,20
 -45 -156 -45 -156 -45 -73 c 0,21,22
 -45 -28 -45 -28 -19.5 11.5 c 128,-1,23
 6 51 6 51 42 80 c 128,-1,24
 78 109 78 109 114 137 c 0,25,26
 202 204 202 204 202 275 c 0,27,28
 202 311 202 311 191 337 c 1,29,0
 245 319 245 319 264 292.5 c 128,-1,1
284 437 m 1,30,31
 257 427 257 427 231 427 c 128,-1,32
 205 427 205 427 187 439 c 128,-1,33
 169 451 169 451 169 471.5 c 128,-1,34
 169 492 169 492 187 544 c 1,35,36
 214 554 214 554 240 554 c 128,-1,37
 266 554 266 554 284 542 c 128,-1,38
 302 530 302 530 302 509.5 c 128,-1,39
 302 489 302 489 284 437 c 1,30,31
EndSplineSet
Position2: "'case' Case-Sensitive Forms in Latin lookup 1 per glyph data 1" dx=0 dy=260 dh=0 dv=0
EndChar

StartChar: Agrave
Encoding: 192 192 128
Width: 645
GlyphClass: 2
Flags: W
LayerCount: 2
Fore
SplineSet
-5 44 m 0,0,1
 -5 63 -5 63 50 185.5 c 128,-1,2
 105 308 105 308 177.5 466.5 c 128,-1,3
 250 625 250 625 276 693 c 2,4,-1
 298 750 l 1,5,6
 282 774 282 774 263 793 c 1,7,8
 294 805 294 805 322 805 c 0,9,10
 385 805 385 805 420 725 c 0,11,12
 442 674 442 674 479 497 c 0,13,14
 480 495 480 495 482 484 c 128,-1,15
 484 473 484 473 502.5 382.5 c 128,-1,16
 521 292 521 292 528 262.5 c 128,-1,17
 535 233 535 233 552 172 c 0,18,19
 579 69 579 69 620 12 c 1,20,21
 573 -16 573 -16 542.5 -16 c 128,-1,22
 512 -16 512 -16 498.5 2.5 c 128,-1,23
 485 21 485 21 473.5 59.5 c 128,-1,24
 462 98 462 98 425 274 c 1,25,26
 403 240 403 240 337 238 c 2,27,-1
 159 231 l 1,28,29
 102 77 102 77 76 -33 c 1,30,31
 -5 1 -5 1 -5 44 c 0,0,1
333 661 m 1,32,33
 218 388 218 388 186 306 c 1,34,-1
 418 306 l 1,35,36
 371 535 371 535 333 661 c 1,32,33
491 881 m 1,37,38
 490 870 490 870 480.5 860.5 c 128,-1,39
 471 851 471 851 459 848 c 1,40,41
 423 893 423 893 366.5 937 c 128,-1,42
 310 981 310 981 252 999 c 1,43,44
 254 1051 254 1051 300 1081 c 1,45,46
 353 1060 353 1060 409.5 998.5 c 128,-1,47
 466 937 466 937 491 881 c 1,37,38
EndSplineSet
Position2: "'cpsp' Capital Spacing in Latin lookup 0 subtable" dx=7 dy=0 dh=20 dv=0
EndChar

StartChar: Aacute
Encoding: 193 193 129
Width: 645
GlyphClass: 2
Flags: W
LayerCount: 2
Fore
SplineSet
-5 44 m 0,0,1
 -5 63 -5 63 50 185.5 c 128,-1,2
 105 308 105 308 177.5 466.5 c 128,-1,3
 250 625 250 625 276 693 c 2,4,-1
 298 750 l 1,5,6
 282 774 282 774 263 793 c 1,7,8
 294 805 294 805 322 805 c 0,9,10
 385 805 385 805 420 725 c 0,11,12
 442 674 442 674 479 497 c 0,13,14
 480 495 480 495 482 484 c 128,-1,15
 484 473 484 473 502.5 382.5 c 128,-1,16
 521 292 521 292 528 262.5 c 128,-1,17
 535 233 535 233 552 172 c 0,18,19
 579 69 579 69 620 12 c 1,20,21
 573 -16 573 -16 542.5 -16 c 128,-1,22
 512 -16 512 -16 498.5 2.5 c 128,-1,23
 485 21 485 21 473.5 59.5 c 128,-1,24
 462 98 462 98 425 274 c 1,25,26
 403 240 403 240 337 238 c 2,27,-1
 159 231 l 1,28,29
 102 77 102 77 76 -33 c 1,30,31
 -5 1 -5 1 -5 44 c 0,0,1
333 661 m 1,32,33
 218 388 218 388 186 306 c 1,34,-1
 418 306 l 1,35,36
 371 535 371 535 333 661 c 1,32,33
241 881 m 1,37,38
 266 937 266 937 322.5 998.5 c 128,-1,39
 379 1060 379 1060 432 1081 c 1,40,41
 478 1051 478 1051 480 999 c 1,42,43
 422 981 422 981 365.5 937 c 128,-1,44
 309 893 309 893 273 848 c 1,45,46
 261 851 261 851 251.5 860.5 c 128,-1,47
 242 870 242 870 241 881 c 1,37,38
EndSplineSet
Position2: "'cpsp' Capital Spacing in Latin lookup 0 subtable" dx=7 dy=0 dh=20 dv=0
EndChar

StartChar: Acircumflex
Encoding: 194 194 130
Width: 645
GlyphClass: 2
Flags: W
LayerCount: 2
Fore
SplineSet
-5 44 m 0,0,1
 -5 63 -5 63 50 185.5 c 128,-1,2
 105 308 105 308 177.5 466.5 c 128,-1,3
 250 625 250 625 276 693 c 2,4,-1
 298 750 l 1,5,6
 282 774 282 774 263 793 c 1,7,8
 294 805 294 805 322 805 c 0,9,10
 385 805 385 805 420 725 c 0,11,12
 442 674 442 674 479 497 c 0,13,14
 480 495 480 495 482 484 c 128,-1,15
 484 473 484 473 502.5 382.5 c 128,-1,16
 521 292 521 292 528 262.5 c 128,-1,17
 535 233 535 233 552 172 c 0,18,19
 579 69 579 69 620 12 c 1,20,21
 573 -16 573 -16 542.5 -16 c 128,-1,22
 512 -16 512 -16 498.5 2.5 c 128,-1,23
 485 21 485 21 473.5 59.5 c 128,-1,24
 462 98 462 98 425 274 c 1,25,26
 403 240 403 240 337 238 c 2,27,-1
 159 231 l 1,28,29
 102 77 102 77 76 -33 c 1,30,31
 -5 1 -5 1 -5 44 c 0,0,1
333 661 m 1,32,33
 218 388 218 388 186 306 c 1,34,-1
 418 306 l 1,35,36
 371 535 371 535 333 661 c 1,32,33
526 881 m 1,37,38
 502 870 502 870 468 870 c 128,-1,39
 434 870 434 870 414.5 897 c 128,-1,40
 395 924 395 924 380 1001 c 1,41,42
 329 908 329 908 247 854 c 1,43,44
 209 884 209 884 208 930 c 1,45,46
 277 975 277 975 300.5 997 c 128,-1,47
 324 1019 324 1019 332 1027 c 128,-1,48
 340 1035 340 1035 357.5 1056.5 c 128,-1,49
 375 1078 375 1078 379 1082 c 1,50,51
 439 1082 439 1082 448 1021 c 0,52,53
 452 995 452 995 471 955 c 128,-1,54
 490 915 490 915 526 881 c 1,37,38
EndSplineSet
Position2: "'cpsp' Capital Spacing in Latin lookup 0 subtable" dx=7 dy=0 dh=20 dv=0
EndChar

StartChar: Atilde
Encoding: 195 195 131
Width: 645
GlyphClass: 2
Flags: W
LayerCount: 2
Fore
SplineSet
-5 44 m 0,0,1
 -5 63 -5 63 50 185.5 c 128,-1,2
 105 308 105 308 177.5 466.5 c 128,-1,3
 250 625 250 625 276 693 c 2,4,-1
 298 750 l 1,5,6
 282 774 282 774 263 793 c 1,7,8
 294 805 294 805 322 805 c 0,9,10
 385 805 385 805 420 725 c 0,11,12
 442 674 442 674 479 497 c 0,13,14
 480 495 480 495 482 484 c 128,-1,15
 484 473 484 473 502.5 382.5 c 128,-1,16
 521 292 521 292 528 262.5 c 128,-1,17
 535 233 535 233 552 172 c 0,18,19
 579 69 579 69 620 12 c 1,20,21
 573 -16 573 -16 542.5 -16 c 128,-1,22
 512 -16 512 -16 498.5 2.5 c 128,-1,23
 485 21 485 21 473.5 59.5 c 128,-1,24
 462 98 462 98 425 274 c 1,25,26
 403 240 403 240 337 238 c 2,27,-1
 159 231 l 1,28,29
 102 77 102 77 76 -33 c 1,30,31
 -5 1 -5 1 -5 44 c 0,0,1
333 661 m 1,32,33
 218 388 218 388 186 306 c 1,34,-1
 418 306 l 1,35,36
 371 535 371 535 333 661 c 1,32,33
495.5 930 m 128,-1,38
 470 906 470 906 440.5 906 c 128,-1,39
 411 906 411 906 367 920.5 c 128,-1,40
 323 935 323 935 306 935 c 0,41,42
 262 935 262 935 238 901 c 1,43,44
 217 901 217 901 212 918 c 1,45,46
 220 972 220 972 245.5 996 c 128,-1,47
 271 1020 271 1020 300.5 1020 c 128,-1,48
 330 1020 330 1020 374 1005.5 c 128,-1,49
 418 991 418 991 435 991 c 0,50,51
 479 991 479 991 503 1025 c 1,52,53
 524 1025 524 1025 529 1008 c 1,54,37
 521 954 521 954 495.5 930 c 128,-1,38
EndSplineSet
Position2: "'cpsp' Capital Spacing in Latin lookup 0 subtable" dx=7 dy=0 dh=20 dv=0
EndChar

StartChar: Adieresis
Encoding: 196 196 132
Width: 645
GlyphClass: 2
Flags: W
LayerCount: 2
Fore
SplineSet
-5 44 m 0,0,1
 -5 63 -5 63 50 185.5 c 128,-1,2
 105 308 105 308 177.5 466.5 c 128,-1,3
 250 625 250 625 276 693 c 2,4,-1
 298 750 l 1,5,6
 282 774 282 774 263 793 c 1,7,8
 294 805 294 805 322 805 c 0,9,10
 385 805 385 805 420 725 c 0,11,12
 442 674 442 674 479 497 c 0,13,14
 480 495 480 495 482 484 c 128,-1,15
 484 473 484 473 502.5 382.5 c 128,-1,16
 521 292 521 292 528 262.5 c 128,-1,17
 535 233 535 233 552 172 c 0,18,19
 579 69 579 69 620 12 c 1,20,21
 573 -16 573 -16 542.5 -16 c 128,-1,22
 512 -16 512 -16 498.5 2.5 c 128,-1,23
 485 21 485 21 473.5 59.5 c 128,-1,24
 462 98 462 98 425 274 c 1,25,26
 403 240 403 240 337 238 c 2,27,-1
 159 231 l 1,28,29
 102 77 102 77 76 -33 c 1,30,31
 -5 1 -5 1 -5 44 c 0,0,1
333 661 m 1,32,33
 218 388 218 388 186 306 c 1,34,-1
 418 306 l 1,35,36
 371 535 371 535 333 661 c 1,32,33
282 911 m 0,37,38
 198 911 198 911 198 968 c 0,39,40
 198 988 198 988 213 1024 c 1,41,42
 235 1028 235 1028 251 1028 c 0,43,44
 335 1028 335 1028 335 971 c 0,45,46
 335 951 335 951 320 915 c 1,47,48
 298 911 298 911 282 911 c 0,37,38
492 911 m 0,49,50
 408 911 408 911 408 968 c 0,51,52
 408 988 408 988 423 1024 c 1,53,54
 445 1028 445 1028 461 1028 c 0,55,56
 545 1028 545 1028 545 971 c 0,57,58
 545 951 545 951 530 915 c 1,59,60
 508 911 508 911 492 911 c 0,49,50
EndSplineSet
Position2: "'cpsp' Capital Spacing in Latin lookup 0 subtable" dx=7 dy=0 dh=20 dv=0
EndChar

StartChar: Aring
Encoding: 197 197 133
Width: 645
GlyphClass: 2
Flags: W
LayerCount: 2
Fore
SplineSet
-5 44 m 0,0,1
 -5 63 -5 63 50 185.5 c 128,-1,2
 105 308 105 308 177.5 466.5 c 128,-1,3
 250 625 250 625 276 693 c 2,4,-1
 298 750 l 1,5,6
 282 774 282 774 263 793 c 1,7,8
 294 805 294 805 322 805 c 0,9,10
 385 805 385 805 420 725 c 0,11,12
 442 674 442 674 479 497 c 0,13,14
 480 495 480 495 482 484 c 128,-1,15
 484 473 484 473 502.5 382.5 c 128,-1,16
 521 292 521 292 528 262.5 c 128,-1,17
 535 233 535 233 552 172 c 0,18,19
 579 69 579 69 620 12 c 1,20,21
 573 -16 573 -16 542.5 -16 c 128,-1,22
 512 -16 512 -16 498.5 2.5 c 128,-1,23
 485 21 485 21 473.5 59.5 c 128,-1,24
 462 98 462 98 425 274 c 1,25,26
 403 240 403 240 337 238 c 2,27,-1
 159 231 l 1,28,29
 102 77 102 77 76 -33 c 1,30,31
 -5 1 -5 1 -5 44 c 0,0,1
333 661 m 1,32,33
 218 388 218 388 186 306 c 1,34,-1
 418 306 l 1,35,36
 371 535 371 535 333 661 c 1,32,33
425 979 m 0,37,38
 425 1020 425 1020 377 1020 c 0,39,40
 354 1020 354 1020 332 1015 c 1,41,42
 320 981 320 981 320 958 c 0,43,44
 320 917 320 917 368 917 c 0,45,46
 391 917 391 917 413 922 c 1,47,48
 425 956 425 956 425 979 c 0,37,38
361 853 m 128,-1,50
 316 853 316 853 285 874.5 c 128,-1,51
 254 896 254 896 254 942.5 c 128,-1,52
 254 989 254 989 282 1067 c 1,53,54
 339 1084 339 1084 384 1084 c 128,-1,55
 429 1084 429 1084 460 1062.5 c 128,-1,56
 491 1041 491 1041 491 994.5 c 128,-1,57
 491 948 491 948 463 870 c 1,58,49
 406 853 406 853 361 853 c 128,-1,50
EndSplineSet
Position2: "'cpsp' Capital Spacing in Latin lookup 0 subtable" dx=7 dy=0 dh=20 dv=0
EndChar

StartChar: AE
Encoding: 198 198 134
Width: 941
GlyphClass: 2
Flags: W
LayerCount: 2
Fore
SplineSet
587 683 m 2,0,1
 587 634 587 634 556 417 c 1,2,3
 597 416 597 416 646 416 c 0,4,5
 734 416 734 416 771 445 c 1,6,7
 773 429 773 429 773 419 c 0,8,9
 773 340 773 340 710 340 c 0,10,11
 601 340 601 340 546 341 c 1,12,13
 530 197 530 197 530 84 c 1,14,15
 761 84 761 84 864 114 c 1,16,17
 857 56 857 56 824.5 24 c 128,-1,18
 792 -8 792 -8 743 -8 c 0,19,20
 729 -8 729 -8 656.5 -1.5 c 128,-1,21
 584 5 584 5 516 5 c 128,-1,22
 448 5 448 5 380 -8 c 1,23,24
 388 25 388 25 418 49 c 1,25,26
 417 55 417 55 417 88 c 128,-1,27
 417 121 417 121 448 340 c 1,28,29
 339 338 339 338 268 309 c 1,30,31
 266 327 266 327 266 338 c 0,32,33
 266 386 266 386 298 402.5 c 128,-1,34
 330 419 330 419 378.5 419 c 128,-1,35
 427 419 427 419 459 418 c 1,36,37
 481 579 481 579 484 698 c 1,38,39
 437 706 437 706 408 709 c 1,40,41
 383 648 383 648 310 508 c 0,42,43
 114 136 114 136 61 -33 c 1,44,45
 -15 -14 -15 -14 -15 44 c 0,46,47
 -15 64 -15 64 48.5 183.5 c 128,-1,48
 112 303 112 303 198.5 459.5 c 128,-1,49
 285 616 285 616 316 681 c 2,50,-1
 368 790 l 1,51,52
 507 771 507 771 648 771 c 128,-1,53
 789 771 789 771 899 793 c 1,54,55
 891 741 891 741 849 719 c 0,56,57
 804 695 804 695 766 692 c 0,58,59
 718 687 718 687 666 687 c 128,-1,60
 614 687 614 687 587 689 c 1,61,-1
 587 683 l 2,0,1
EndSplineSet
Position2: "'cpsp' Capital Spacing in Latin lookup 0 subtable" dx=7 dy=0 dh=20 dv=0
EndChar

StartChar: Ccedilla
Encoding: 199 199 135
Width: 687
GlyphClass: 2
Flags: W
LayerCount: 2
Fore
SplineSet
323 -15 m 0,0,1
 212 -15 212 -15 136 75 c 128,-1,2
 60 165 60 165 60 337 c 0,3,4
 60 464 60 464 101 568.5 c 128,-1,5
 142 673 142 673 229.5 739.5 c 128,-1,6
 317 806 317 806 427 806 c 128,-1,7
 537 806 537 806 587 752.5 c 128,-1,8
 637 699 637 699 637 630 c 128,-1,9
 637 561 637 561 602 519.5 c 128,-1,10
 567 478 567 478 511 478 c 0,11,12
 493 478 493 478 467 486 c 1,13,14
 490 510 490 510 507.5 553.5 c 128,-1,15
 525 597 525 597 525 641 c 128,-1,16
 525 685 525 685 501.5 716.5 c 128,-1,17
 478 748 478 748 427 748 c 0,18,19
 350 748 350 748 289.5 684.5 c 128,-1,20
 229 621 229 621 198.5 528.5 c 128,-1,21
 168 436 168 436 168 338 c 0,22,23
 168 200 168 200 221 131.5 c 128,-1,24
 274 63 274 63 358 63 c 0,25,26
 414 63 414 63 473 97 c 128,-1,27
 532 131 532 131 570 195 c 1,28,29
 585 195 585 195 598 186 c 128,-1,30
 611 177 611 177 611 168 c 1,31,32
 555 62 555 62 470 21 c 0,33,34
 396 -15 396 -15 323 -15 c 0,0,1
342.5 -74.5 m 128,-1,36
 372 -105 372 -105 372 -155.5 c 128,-1,37
 372 -206 372 -206 337.5 -250.5 c 128,-1,38
 303 -295 303 -295 244 -313 c 1,39,40
 205 -296 205 -296 205 -243 c 1,41,42
 248 -234 248 -234 273 -207.5 c 128,-1,43
 298 -181 298 -181 298 -146 c 0,44,45
 298 -91 298 -91 244 -67 c 1,46,47
 244 -54 244 -54 250 -40 c 1,48,35
 313 -44 313 -44 342.5 -74.5 c 128,-1,36
EndSplineSet
Position2: "'cpsp' Capital Spacing in Latin lookup 0 subtable" dx=7 dy=0 dh=20 dv=0
EndChar

StartChar: Egrave
Encoding: 200 200 136
Width: 631
GlyphClass: 2
Flags: W
LayerCount: 2
Fore
SplineSet
400 340 m 2,0,-1
 311 341 l 2,1,2
 262 341 262 341 236 339 c 1,3,4
 220 197 220 197 220 84 c 1,5,6
 451 84 451 84 554 114 c 1,7,8
 547 56 547 56 514.5 24 c 128,-1,9
 482 -8 482 -8 433 -8 c 0,10,11
 419 -8 419 -8 346.5 -1.5 c 128,-1,12
 274 5 274 5 206 5 c 128,-1,13
 138 5 138 5 70 -8 c 1,14,15
 78 25 78 25 108 49 c 1,16,17
 107 55 107 55 107 87 c 128,-1,18
 107 119 107 119 136 324 c 1,19,20
 108 317 108 317 88 309 c 1,21,22
 86 327 86 327 86 338 c 0,23,24
 86 399 86 399 148 414 c 1,25,26
 171 582 171 582 173 682 c 1,27,28
 147 684 147 684 136.5 695 c 128,-1,29
 126 706 126 706 126 734.5 c 128,-1,30
 126 763 126 763 134 785 c 1,31,32
 237 771 237 771 358 771 c 128,-1,33
 479 771 479 771 589 793 c 1,34,35
 583 755 583 755 561.5 731.5 c 128,-1,36
 540 708 540 708 493 698 c 128,-1,37
 446 688 446 688 415 686 c 0,38,39
 359 681 359 681 277 681 c 1,40,41
 276 645 276 645 246 418 c 1,42,43
 308 416 308 416 336 416 c 0,44,45
 424 416 424 416 461 445 c 1,46,47
 463 429 463 429 463 419 c 0,48,49
 463 340 463 340 400 340 c 2,0,-1
496 881 m 1,50,51
 495 870 495 870 485.5 860.5 c 128,-1,52
 476 851 476 851 464 848 c 1,53,54
 428 893 428 893 371.5 937 c 128,-1,55
 315 981 315 981 257 999 c 1,56,57
 259 1051 259 1051 305 1081 c 1,58,59
 358 1060 358 1060 414.5 998.5 c 128,-1,60
 471 937 471 937 496 881 c 1,50,51
EndSplineSet
Position2: "'cpsp' Capital Spacing in Latin lookup 0 subtable" dx=7 dy=0 dh=20 dv=0
EndChar

StartChar: Eacute
Encoding: 201 201 137
Width: 631
GlyphClass: 2
Flags: W
LayerCount: 2
Fore
SplineSet
400 340 m 2,0,-1
 311 341 l 2,1,2
 262 341 262 341 236 339 c 1,3,4
 220 197 220 197 220 84 c 1,5,6
 451 84 451 84 554 114 c 1,7,8
 547 56 547 56 514.5 24 c 128,-1,9
 482 -8 482 -8 433 -8 c 0,10,11
 419 -8 419 -8 346.5 -1.5 c 128,-1,12
 274 5 274 5 206 5 c 128,-1,13
 138 5 138 5 70 -8 c 1,14,15
 78 25 78 25 108 49 c 1,16,17
 107 55 107 55 107 87 c 128,-1,18
 107 119 107 119 136 324 c 1,19,20
 108 317 108 317 88 309 c 1,21,22
 86 327 86 327 86 338 c 0,23,24
 86 399 86 399 148 414 c 1,25,26
 171 582 171 582 173 682 c 1,27,28
 147 684 147 684 136.5 695 c 128,-1,29
 126 706 126 706 126 734.5 c 128,-1,30
 126 763 126 763 134 785 c 1,31,32
 237 771 237 771 358 771 c 128,-1,33
 479 771 479 771 589 793 c 1,34,35
 583 755 583 755 561.5 731.5 c 128,-1,36
 540 708 540 708 493 698 c 128,-1,37
 446 688 446 688 415 686 c 0,38,39
 359 681 359 681 277 681 c 1,40,41
 276 645 276 645 246 418 c 1,42,43
 308 416 308 416 336 416 c 0,44,45
 424 416 424 416 461 445 c 1,46,47
 463 429 463 429 463 419 c 0,48,49
 463 340 463 340 400 340 c 2,0,-1
296 881 m 1,50,51
 321 937 321 937 377.5 998.5 c 128,-1,52
 434 1060 434 1060 487 1081 c 1,53,54
 533 1051 533 1051 535 999 c 1,55,56
 477 981 477 981 420.5 937 c 128,-1,57
 364 893 364 893 328 848 c 1,58,59
 316 851 316 851 306.5 860.5 c 128,-1,60
 297 870 297 870 296 881 c 1,50,51
EndSplineSet
Position2: "'cpsp' Capital Spacing in Latin lookup 0 subtable" dx=7 dy=0 dh=20 dv=0
EndChar

StartChar: Ecircumflex
Encoding: 202 202 138
Width: 631
GlyphClass: 2
Flags: W
LayerCount: 2
Fore
SplineSet
400 340 m 2,0,-1
 311 341 l 2,1,2
 262 341 262 341 236 339 c 1,3,4
 220 197 220 197 220 84 c 1,5,6
 451 84 451 84 554 114 c 1,7,8
 547 56 547 56 514.5 24 c 128,-1,9
 482 -8 482 -8 433 -8 c 0,10,11
 419 -8 419 -8 346.5 -1.5 c 128,-1,12
 274 5 274 5 206 5 c 128,-1,13
 138 5 138 5 70 -8 c 1,14,15
 78 25 78 25 108 49 c 1,16,17
 107 55 107 55 107 87 c 128,-1,18
 107 119 107 119 136 324 c 1,19,20
 108 317 108 317 88 309 c 1,21,22
 86 327 86 327 86 338 c 0,23,24
 86 399 86 399 148 414 c 1,25,26
 171 582 171 582 173 682 c 1,27,28
 147 684 147 684 136.5 695 c 128,-1,29
 126 706 126 706 126 734.5 c 128,-1,30
 126 763 126 763 134 785 c 1,31,32
 237 771 237 771 358 771 c 128,-1,33
 479 771 479 771 589 793 c 1,34,35
 583 755 583 755 561.5 731.5 c 128,-1,36
 540 708 540 708 493 698 c 128,-1,37
 446 688 446 688 415 686 c 0,38,39
 359 681 359 681 277 681 c 1,40,41
 276 645 276 645 246 418 c 1,42,43
 308 416 308 416 336 416 c 0,44,45
 424 416 424 416 461 445 c 1,46,47
 463 429 463 429 463 419 c 0,48,49
 463 340 463 340 400 340 c 2,0,-1
533 881 m 1,50,51
 509 870 509 870 475 870 c 128,-1,52
 441 870 441 870 421.5 897 c 128,-1,53
 402 924 402 924 387 1001 c 1,54,55
 336 908 336 908 254 854 c 1,56,57
 216 884 216 884 215 930 c 1,58,59
 284 975 284 975 307.5 997 c 128,-1,60
 331 1019 331 1019 339 1027 c 128,-1,61
 347 1035 347 1035 364.5 1056.5 c 128,-1,62
 382 1078 382 1078 386 1082 c 1,63,64
 446 1082 446 1082 455 1021 c 0,65,66
 459 995 459 995 478 955 c 128,-1,67
 497 915 497 915 533 881 c 1,50,51
EndSplineSet
Position2: "'cpsp' Capital Spacing in Latin lookup 0 subtable" dx=7 dy=0 dh=20 dv=0
EndChar

StartChar: Edieresis
Encoding: 203 203 139
Width: 631
GlyphClass: 2
Flags: W
LayerCount: 2
Fore
SplineSet
400 340 m 2,0,-1
 311 341 l 2,1,2
 262 341 262 341 236 339 c 1,3,4
 220 197 220 197 220 84 c 1,5,6
 451 84 451 84 554 114 c 1,7,8
 547 56 547 56 514.5 24 c 128,-1,9
 482 -8 482 -8 433 -8 c 0,10,11
 419 -8 419 -8 346.5 -1.5 c 128,-1,12
 274 5 274 5 206 5 c 128,-1,13
 138 5 138 5 70 -8 c 1,14,15
 78 25 78 25 108 49 c 1,16,17
 107 55 107 55 107 87 c 128,-1,18
 107 119 107 119 136 324 c 1,19,20
 108 317 108 317 88 309 c 1,21,22
 86 327 86 327 86 338 c 0,23,24
 86 399 86 399 148 414 c 1,25,26
 171 582 171 582 173 682 c 1,27,28
 147 684 147 684 136.5 695 c 128,-1,29
 126 706 126 706 126 734.5 c 128,-1,30
 126 763 126 763 134 785 c 1,31,32
 237 771 237 771 358 771 c 128,-1,33
 479 771 479 771 589 793 c 1,34,35
 583 755 583 755 561.5 731.5 c 128,-1,36
 540 708 540 708 493 698 c 128,-1,37
 446 688 446 688 415 686 c 0,38,39
 359 681 359 681 277 681 c 1,40,41
 276 645 276 645 246 418 c 1,42,43
 308 416 308 416 336 416 c 0,44,45
 424 416 424 416 461 445 c 1,46,47
 463 429 463 429 463 419 c 0,48,49
 463 340 463 340 400 340 c 2,0,-1
294 911 m 0,50,51
 210 911 210 911 210 968 c 0,52,53
 210 988 210 988 225 1024 c 1,54,55
 247 1028 247 1028 263 1028 c 0,56,57
 347 1028 347 1028 347 971 c 0,58,59
 347 951 347 951 332 915 c 1,60,61
 310 911 310 911 294 911 c 0,50,51
504 911 m 0,62,63
 420 911 420 911 420 968 c 0,64,65
 420 988 420 988 435 1024 c 1,66,67
 457 1028 457 1028 473 1028 c 0,68,69
 557 1028 557 1028 557 971 c 0,70,71
 557 951 557 951 542 915 c 1,72,73
 520 911 520 911 504 911 c 0,62,63
EndSplineSet
Position2: "'cpsp' Capital Spacing in Latin lookup 0 subtable" dx=7 dy=0 dh=20 dv=0
EndChar

StartChar: Igrave
Encoding: 204 204 140
Width: 344
GlyphClass: 2
Flags: W
LayerCount: 2
Fore
SplineSet
254 731.5 m 128,-1,1
 257 715 257 715 257 675 c 128,-1,2
 257 635 257 635 224 409 c 128,-1,3
 191 183 191 183 191 92.5 c 128,-1,4
 191 2 191 2 205 -31 c 1,5,6
 143 -9 143 -9 117.5 28.5 c 128,-1,7
 92 66 92 66 92 116.5 c 128,-1,8
 92 167 92 167 113 322 c 1,9,10
 150 579 150 579 150 720 c 0,11,12
 150 750 150 750 146 802 c 1,13,14
 222 798 222 798 241 766 c 0,15,0
 251 748 251 748 254 731.5 c 128,-1,1
330 881 m 1,16,17
 329 870 329 870 319.5 860.5 c 128,-1,18
 310 851 310 851 298 848 c 1,19,20
 262 893 262 893 205.5 937 c 128,-1,21
 149 981 149 981 91 999 c 1,22,23
 93 1051 93 1051 139 1081 c 1,24,25
 192 1060 192 1060 248.5 998.5 c 128,-1,26
 305 937 305 937 330 881 c 1,16,17
EndSplineSet
Position2: "'cpsp' Capital Spacing in Latin lookup 0 subtable" dx=7 dy=0 dh=20 dv=0
EndChar

StartChar: Iacute
Encoding: 205 205 141
Width: 344
GlyphClass: 2
Flags: W
LayerCount: 2
Fore
SplineSet
254 731.5 m 128,-1,1
 257 715 257 715 257 675 c 128,-1,2
 257 635 257 635 224 409 c 128,-1,3
 191 183 191 183 191 92.5 c 128,-1,4
 191 2 191 2 205 -31 c 1,5,6
 143 -9 143 -9 117.5 28.5 c 128,-1,7
 92 66 92 66 92 116.5 c 128,-1,8
 92 167 92 167 113 322 c 1,9,10
 150 579 150 579 150 720 c 0,11,12
 150 750 150 750 146 802 c 1,13,14
 222 798 222 798 241 766 c 0,15,0
 251 748 251 748 254 731.5 c 128,-1,1
99 881 m 1,16,17
 124 937 124 937 180.5 998.5 c 128,-1,18
 237 1060 237 1060 290 1081 c 1,19,20
 336 1051 336 1051 338 999 c 1,21,22
 280 981 280 981 223.5 937 c 128,-1,23
 167 893 167 893 131 848 c 1,24,25
 119 851 119 851 109.5 860.5 c 128,-1,26
 100 870 100 870 99 881 c 1,16,17
EndSplineSet
Position2: "'cpsp' Capital Spacing in Latin lookup 0 subtable" dx=7 dy=0 dh=20 dv=0
EndChar

StartChar: Icircumflex
Encoding: 206 206 142
Width: 344
GlyphClass: 2
Flags: W
LayerCount: 2
Fore
SplineSet
254 731.5 m 128,-1,1
 257 715 257 715 257 675 c 128,-1,2
 257 635 257 635 224 409 c 128,-1,3
 191 183 191 183 191 92.5 c 128,-1,4
 191 2 191 2 205 -31 c 1,5,6
 143 -9 143 -9 117.5 28.5 c 128,-1,7
 92 66 92 66 92 116.5 c 128,-1,8
 92 167 92 167 113 322 c 1,9,10
 150 579 150 579 150 720 c 0,11,12
 150 750 150 750 146 802 c 1,13,14
 222 798 222 798 241 766 c 0,15,0
 251 748 251 748 254 731.5 c 128,-1,1
367 881 m 1,16,17
 343 870 343 870 309 870 c 128,-1,18
 275 870 275 870 255.5 897 c 128,-1,19
 236 924 236 924 221 1001 c 1,20,21
 170 908 170 908 88 854 c 1,22,23
 50 884 50 884 49 930 c 1,24,25
 118 975 118 975 141.5 997 c 128,-1,26
 165 1019 165 1019 173 1027 c 128,-1,27
 181 1035 181 1035 198.5 1056.5 c 128,-1,28
 216 1078 216 1078 220 1082 c 1,29,30
 280 1082 280 1082 289 1021 c 0,31,32
 293 995 293 995 312 955 c 128,-1,33
 331 915 331 915 367 881 c 1,16,17
EndSplineSet
Position2: "'cpsp' Capital Spacing in Latin lookup 0 subtable" dx=7 dy=0 dh=20 dv=0
EndChar

StartChar: Idieresis
Encoding: 207 207 143
Width: 344
GlyphClass: 2
Flags: W
LayerCount: 2
Fore
SplineSet
254 731.5 m 128,-1,1
 257 715 257 715 257 675 c 128,-1,2
 257 635 257 635 224 409 c 128,-1,3
 191 183 191 183 191 92.5 c 128,-1,4
 191 2 191 2 205 -31 c 1,5,6
 143 -9 143 -9 117.5 28.5 c 128,-1,7
 92 66 92 66 92 116.5 c 128,-1,8
 92 167 92 167 113 322 c 1,9,10
 150 579 150 579 150 720 c 0,11,12
 150 750 150 750 146 802 c 1,13,14
 222 798 222 798 241 766 c 0,15,0
 251 748 251 748 254 731.5 c 128,-1,1
134 911 m 0,16,17
 50 911 50 911 50 968 c 0,18,19
 50 988 50 988 65 1024 c 1,20,21
 87 1028 87 1028 103 1028 c 0,22,23
 187 1028 187 1028 187 971 c 0,24,25
 187 951 187 951 172 915 c 1,26,27
 150 911 150 911 134 911 c 0,16,17
344 911 m 0,28,29
 260 911 260 911 260 968 c 0,30,31
 260 988 260 988 275 1024 c 1,32,33
 297 1028 297 1028 313 1028 c 0,34,35
 397 1028 397 1028 397 971 c 0,36,37
 397 951 397 951 382 915 c 1,38,39
 360 911 360 911 344 911 c 0,28,29
EndSplineSet
Position2: "'cpsp' Capital Spacing in Latin lookup 0 subtable" dx=7 dy=0 dh=20 dv=0
EndChar

StartChar: Eth
Encoding: 208 208 144
Width: 760
GlyphClass: 2
Flags: W
LayerCount: 2
Fore
SplineSet
413 802 m 0,0,1
 551 802 551 802 630 693 c 128,-1,2
 709 584 709 584 709 419 c 0,3,4
 709 251 709 251 618 123 c 0,5,6
 574 60 574 60 499.5 22.5 c 128,-1,7
 425 -15 425 -15 345.5 -15 c 128,-1,8
 266 -15 266 -15 205.5 2 c 128,-1,9
 145 19 145 19 118 36 c 2,10,-1
 90 53 l 1,11,12
 93 77 93 77 107.5 175.5 c 128,-1,13
 122 274 122 274 130 344 c 1,14,-1
 121 344 l 2,15,16
 67 344 67 344 49.5 365 c 128,-1,17
 32 386 32 386 32 428 c 0,18,19
 32 431 32 431 32.5 437 c 128,-1,20
 33 443 33 443 33 446 c 1,21,22
 68 438 68 438 140 438 c 1,23,24
 156 600 156 600 156 707 c 128,-1,25
 156 814 156 814 142 847 c 1,26,27
 225 819 225 819 246 759 c 1,28,29
 335 802 335 802 413 802 c 0,0,1
206 70 m 1,30,31
 250 55 250 55 313 55 c 128,-1,32
 376 55 376 55 435 87.5 c 128,-1,33
 494 120 494 120 530 174 c 0,34,35
 604 283 604 283 604 420 c 128,-1,36
 604 557 604 557 543 641 c 128,-1,37
 482 725 482 725 379 725 c 0,38,39
 310 725 310 725 259 702 c 1,40,41
 259 643 259 643 238 441 c 1,42,43
 350 449 350 449 376 449 c 0,44,45
 430 449 430 449 447.5 428 c 128,-1,46
 465 407 465 407 465 365 c 0,47,48
 465 362 465 362 464.5 356 c 128,-1,49
 464 350 464 350 464 347 c 1,50,51
 427 355 427 355 361.5 355 c 128,-1,52
 296 355 296 355 228 349 c 1,53,54
 206 146 206 146 206 70 c 1,30,31
EndSplineSet
Position2: "'cpsp' Capital Spacing in Latin lookup 0 subtable" dx=7 dy=0 dh=20 dv=0
EndChar

StartChar: Ntilde
Encoding: 209 209 145
Width: 821
GlyphClass: 2
Flags: W
LayerCount: 2
Fore
SplineSet
185 78 m 0,0,1
 185 47 185 47 189 -5 c 1,2,3
 85 -5 85 -5 85 58 c 0,4,5
 85 68 85 68 123.5 330 c 128,-1,6
 162 592 162 592 162 694 c 1,7,-1
 156 703 l 2,8,9
 138 730 138 730 121.5 742 c 128,-1,10
 105 754 105 754 91 762.5 c 128,-1,11
 77 771 77 771 75 773 c 1,12,13
 116 802 116 802 155 802 c 0,14,15
 225 802 225 802 265 742 c 0,16,17
 322 655 322 655 458 375 c 0,18,19
 546 194 546 194 593 125 c 1,20,21
 595 187 595 187 621 393 c 128,-1,22
 647 599 647 599 647 720 c 0,23,24
 647 751 647 751 643 801 c 1,25,26
 746 801 746 801 746 740 c 0,27,28
 746 729 746 729 708 461 c 128,-1,29
 670 193 670 193 670 90 c 0,30,31
 670 53 670 53 672 36 c 1,32,33
 680 29 680 29 698 19 c 1,34,35
 646 -21 646 -21 602 -21 c 128,-1,36
 558 -21 558 -21 524 38 c 1,37,38
 507 63 507 63 459 154 c 0,39,40
 290 477 290 477 234 575 c 1,41,42
 232 551 232 551 208.5 370 c 128,-1,43
 185 189 185 189 185 78 c 0,0,1
598.5 930 m 128,-1,45
 573 906 573 906 543.5 906 c 128,-1,46
 514 906 514 906 470 920.5 c 128,-1,47
 426 935 426 935 409 935 c 0,48,49
 365 935 365 935 341 901 c 1,50,51
 320 901 320 901 315 918 c 1,52,53
 323 972 323 972 348.5 996 c 128,-1,54
 374 1020 374 1020 403.5 1020 c 128,-1,55
 433 1020 433 1020 477 1005.5 c 128,-1,56
 521 991 521 991 538 991 c 0,57,58
 582 991 582 991 606 1025 c 1,59,60
 627 1025 627 1025 632 1008 c 1,61,44
 624 954 624 954 598.5 930 c 128,-1,45
EndSplineSet
Position2: "'cpsp' Capital Spacing in Latin lookup 0 subtable" dx=7 dy=0 dh=20 dv=0
EndChar

StartChar: Ograve
Encoding: 210 210 146
Width: 802
GlyphClass: 2
Flags: W
LayerCount: 2
Fore
SplineSet
579 664 m 128,-1,1
 534 731 534 731 457 731 c 128,-1,2
 380 731 380 731 315 670 c 128,-1,3
 250 609 250 609 216 517.5 c 128,-1,4
 182 426 182 426 182 330 c 0,5,6
 182 201 182 201 229.5 118 c 128,-1,7
 277 35 277 35 372 35 c 0,8,9
 449 35 449 35 508 98 c 128,-1,10
 567 161 567 161 595.5 254 c 128,-1,11
 624 347 624 347 624 450 c 0,12,0
 624 597 624 597 579 664 c 128,-1,1
502.5 5 m 128,-1,14
 438 -25 438 -25 361.5 -25 c 128,-1,15
 285 -25 285 -25 226.5 11 c 128,-1,16
 168 47 168 47 134 107 c 0,17,18
 65 229 65 229 65 386 c 128,-1,19
 65 543 65 543 142 665.5 c 128,-1,20
 219 788 219 788 342 827 c 1,21,22
 359 823 359 823 361 811 c 1,23,24
 291 768 291 768 246.5 710 c 128,-1,25
 202 652 202 652 185 553 c 1,26,27
 227 670 227 670 316 737 c 128,-1,28
 405 804 405 804 502.5 804 c 128,-1,29
 600 804 600 804 668.5 720.5 c 128,-1,30
 737 637 737 637 737 479 c 0,31,32
 737 325 737 325 682 200 c 0,33,34
 653 134 653 134 610 84.5 c 128,-1,13
 567 35 567 35 502.5 5 c 128,-1,14
581 881 m 1,35,36
 580 870 580 870 570.5 860.5 c 128,-1,37
 561 851 561 851 549 848 c 1,38,39
 513 893 513 893 456.5 937 c 128,-1,40
 400 981 400 981 342 999 c 1,41,42
 344 1051 344 1051 390 1081 c 1,43,44
 443 1060 443 1060 499.5 998.5 c 128,-1,45
 556 937 556 937 581 881 c 1,35,36
EndSplineSet
Position2: "'cpsp' Capital Spacing in Latin lookup 0 subtable" dx=7 dy=0 dh=20 dv=0
EndChar

StartChar: Oacute
Encoding: 211 211 147
Width: 802
GlyphClass: 2
Flags: W
LayerCount: 2
Fore
SplineSet
579 664 m 128,-1,1
 534 731 534 731 457 731 c 128,-1,2
 380 731 380 731 315 670 c 128,-1,3
 250 609 250 609 216 517.5 c 128,-1,4
 182 426 182 426 182 330 c 0,5,6
 182 201 182 201 229.5 118 c 128,-1,7
 277 35 277 35 372 35 c 0,8,9
 449 35 449 35 508 98 c 128,-1,10
 567 161 567 161 595.5 254 c 128,-1,11
 624 347 624 347 624 450 c 0,12,0
 624 597 624 597 579 664 c 128,-1,1
502.5 5 m 128,-1,14
 438 -25 438 -25 361.5 -25 c 128,-1,15
 285 -25 285 -25 226.5 11 c 128,-1,16
 168 47 168 47 134 107 c 0,17,18
 65 229 65 229 65 386 c 128,-1,19
 65 543 65 543 142 665.5 c 128,-1,20
 219 788 219 788 342 827 c 1,21,22
 359 823 359 823 361 811 c 1,23,24
 291 768 291 768 246.5 710 c 128,-1,25
 202 652 202 652 185 553 c 1,26,27
 227 670 227 670 316 737 c 128,-1,28
 405 804 405 804 502.5 804 c 128,-1,29
 600 804 600 804 668.5 720.5 c 128,-1,30
 737 637 737 637 737 479 c 0,31,32
 737 325 737 325 682 200 c 0,33,34
 653 134 653 134 610 84.5 c 128,-1,13
 567 35 567 35 502.5 5 c 128,-1,14
391 881 m 1,35,36
 416 937 416 937 472.5 998.5 c 128,-1,37
 529 1060 529 1060 582 1081 c 1,38,39
 628 1051 628 1051 630 999 c 1,40,41
 572 981 572 981 515.5 937 c 128,-1,42
 459 893 459 893 423 848 c 1,43,44
 411 851 411 851 401.5 860.5 c 128,-1,45
 392 870 392 870 391 881 c 1,35,36
EndSplineSet
Position2: "'cpsp' Capital Spacing in Latin lookup 0 subtable" dx=7 dy=0 dh=20 dv=0
EndChar

StartChar: Ocircumflex
Encoding: 212 212 148
Width: 802
GlyphClass: 2
Flags: W
LayerCount: 2
Fore
SplineSet
579 664 m 128,-1,1
 534 731 534 731 457 731 c 128,-1,2
 380 731 380 731 315 670 c 128,-1,3
 250 609 250 609 216 517.5 c 128,-1,4
 182 426 182 426 182 330 c 0,5,6
 182 201 182 201 229.5 118 c 128,-1,7
 277 35 277 35 372 35 c 0,8,9
 449 35 449 35 508 98 c 128,-1,10
 567 161 567 161 595.5 254 c 128,-1,11
 624 347 624 347 624 450 c 0,12,0
 624 597 624 597 579 664 c 128,-1,1
502.5 5 m 128,-1,14
 438 -25 438 -25 361.5 -25 c 128,-1,15
 285 -25 285 -25 226.5 11 c 128,-1,16
 168 47 168 47 134 107 c 0,17,18
 65 229 65 229 65 386 c 128,-1,19
 65 543 65 543 142 665.5 c 128,-1,20
 219 788 219 788 342 827 c 1,21,22
 359 823 359 823 361 811 c 1,23,24
 291 768 291 768 246.5 710 c 128,-1,25
 202 652 202 652 185 553 c 1,26,27
 227 670 227 670 316 737 c 128,-1,28
 405 804 405 804 502.5 804 c 128,-1,29
 600 804 600 804 668.5 720.5 c 128,-1,30
 737 637 737 637 737 479 c 0,31,32
 737 325 737 325 682 200 c 0,33,34
 653 134 653 134 610 84.5 c 128,-1,13
 567 35 567 35 502.5 5 c 128,-1,14
679 881 m 1,35,36
 655 870 655 870 621 870 c 128,-1,37
 587 870 587 870 567.5 897 c 128,-1,38
 548 924 548 924 533 1001 c 1,39,40
 482 908 482 908 400 854 c 1,41,42
 362 884 362 884 361 930 c 1,43,44
 430 975 430 975 453.5 997 c 128,-1,45
 477 1019 477 1019 485 1027 c 128,-1,46
 493 1035 493 1035 510.5 1056.5 c 128,-1,47
 528 1078 528 1078 532 1082 c 1,48,49
 592 1082 592 1082 601 1021 c 0,50,51
 605 995 605 995 624 955 c 128,-1,52
 643 915 643 915 679 881 c 1,35,36
EndSplineSet
Position2: "'cpsp' Capital Spacing in Latin lookup 0 subtable" dx=7 dy=0 dh=20 dv=0
EndChar

StartChar: Otilde
Encoding: 213 213 149
Width: 802
GlyphClass: 2
Flags: W
LayerCount: 2
Fore
SplineSet
579 664 m 128,-1,1
 534 731 534 731 457 731 c 128,-1,2
 380 731 380 731 315 670 c 128,-1,3
 250 609 250 609 216 517.5 c 128,-1,4
 182 426 182 426 182 330 c 0,5,6
 182 201 182 201 229.5 118 c 128,-1,7
 277 35 277 35 372 35 c 0,8,9
 449 35 449 35 508 98 c 128,-1,10
 567 161 567 161 595.5 254 c 128,-1,11
 624 347 624 347 624 450 c 0,12,0
 624 597 624 597 579 664 c 128,-1,1
502.5 5 m 128,-1,14
 438 -25 438 -25 361.5 -25 c 128,-1,15
 285 -25 285 -25 226.5 11 c 128,-1,16
 168 47 168 47 134 107 c 0,17,18
 65 229 65 229 65 386 c 128,-1,19
 65 543 65 543 142 665.5 c 128,-1,20
 219 788 219 788 342 827 c 1,21,22
 359 823 359 823 361 811 c 1,23,24
 291 768 291 768 246.5 710 c 128,-1,25
 202 652 202 652 185 553 c 1,26,27
 227 670 227 670 316 737 c 128,-1,28
 405 804 405 804 502.5 804 c 128,-1,29
 600 804 600 804 668.5 720.5 c 128,-1,30
 737 637 737 637 737 479 c 0,31,32
 737 325 737 325 682 200 c 0,33,34
 653 134 653 134 610 84.5 c 128,-1,13
 567 35 567 35 502.5 5 c 128,-1,14
643.5 930 m 128,-1,36
 618 906 618 906 588.5 906 c 128,-1,37
 559 906 559 906 515 920.5 c 128,-1,38
 471 935 471 935 454 935 c 0,39,40
 410 935 410 935 386 901 c 1,41,42
 365 901 365 901 360 918 c 1,43,44
 368 972 368 972 393.5 996 c 128,-1,45
 419 1020 419 1020 448.5 1020 c 128,-1,46
 478 1020 478 1020 522 1005.5 c 128,-1,47
 566 991 566 991 583 991 c 0,48,49
 627 991 627 991 651 1025 c 1,50,51
 672 1025 672 1025 677 1008 c 1,52,35
 669 954 669 954 643.5 930 c 128,-1,36
EndSplineSet
Position2: "'cpsp' Capital Spacing in Latin lookup 0 subtable" dx=7 dy=0 dh=20 dv=0
EndChar

StartChar: Odieresis
Encoding: 214 214 150
Width: 802
GlyphClass: 2
Flags: W
LayerCount: 2
Fore
SplineSet
579 664 m 128,-1,1
 534 731 534 731 457 731 c 128,-1,2
 380 731 380 731 315 670 c 128,-1,3
 250 609 250 609 216 517.5 c 128,-1,4
 182 426 182 426 182 330 c 0,5,6
 182 201 182 201 229.5 118 c 128,-1,7
 277 35 277 35 372 35 c 0,8,9
 449 35 449 35 508 98 c 128,-1,10
 567 161 567 161 595.5 254 c 128,-1,11
 624 347 624 347 624 450 c 0,12,0
 624 597 624 597 579 664 c 128,-1,1
502.5 5 m 128,-1,14
 438 -25 438 -25 361.5 -25 c 128,-1,15
 285 -25 285 -25 226.5 11 c 128,-1,16
 168 47 168 47 134 107 c 0,17,18
 65 229 65 229 65 386 c 128,-1,19
 65 543 65 543 142 665.5 c 128,-1,20
 219 788 219 788 342 827 c 1,21,22
 359 823 359 823 361 811 c 1,23,24
 291 768 291 768 246.5 710 c 128,-1,25
 202 652 202 652 185 553 c 1,26,27
 227 670 227 670 316 737 c 128,-1,28
 405 804 405 804 502.5 804 c 128,-1,29
 600 804 600 804 668.5 720.5 c 128,-1,30
 737 637 737 637 737 479 c 0,31,32
 737 325 737 325 682 200 c 0,33,34
 653 134 653 134 610 84.5 c 128,-1,13
 567 35 567 35 502.5 5 c 128,-1,14
426 911 m 0,35,36
 342 911 342 911 342 968 c 0,37,38
 342 988 342 988 357 1024 c 1,39,40
 379 1028 379 1028 395 1028 c 0,41,42
 479 1028 479 1028 479 971 c 0,43,44
 479 951 479 951 464 915 c 1,45,46
 442 911 442 911 426 911 c 0,35,36
636 911 m 0,47,48
 552 911 552 911 552 968 c 0,49,50
 552 988 552 988 567 1024 c 1,51,52
 589 1028 589 1028 605 1028 c 0,53,54
 689 1028 689 1028 689 971 c 0,55,56
 689 951 689 951 674 915 c 1,57,58
 652 911 652 911 636 911 c 0,47,48
EndSplineSet
Position2: "'cpsp' Capital Spacing in Latin lookup 0 subtable" dx=7 dy=0 dh=20 dv=0
EndChar

StartChar: multiply
Encoding: 215 215 151
Width: 620
GlyphClass: 2
Flags: W
LayerCount: 2
Fore
SplineSet
223 176.5 m 128,-1,1
 190 145 190 145 160.5 145 c 128,-1,2
 131 145 131 145 91 172 c 1,3,4
 135 214 135 214 242 345 c 1,5,-1
 231 354 l 2,6,7
 181 394 181 394 160 412.5 c 128,-1,8
 139 431 139 431 119 457.5 c 128,-1,9
 99 484 99 484 99 508.5 c 128,-1,10
 99 533 99 533 126 573 c 1,11,12
 187 509 187 509 301 420 c 1,13,-1
 311 431 l 2,14,15
 322 444 322 444 339.5 465.5 c 128,-1,16
 357 487 357 487 365 496.5 c 128,-1,17
 373 506 373 506 385.5 520 c 128,-1,18
 398 534 398 534 405.5 540 c 128,-1,19
 413 546 413 546 424 553 c 0,20,21
 442 565 442 565 465 565 c 128,-1,22
 488 565 488 565 528 538 c 1,23,24
 483 495 483 495 376 364 c 1,25,-1
 387 355 l 1,26,27
 439 314 439 314 461 295 c 128,-1,28
 483 276 483 276 501 250.5 c 128,-1,29
 519 225 519 225 519 200.5 c 128,-1,30
 519 176 519 176 492 136 c 1,31,32
 429 200 429 200 316 289 c 1,33,-1
 308 279 l 1,34,0
 256 208 256 208 223 176.5 c 128,-1,1
EndSplineSet
EndChar

StartChar: Oslash
Encoding: 216 216 152
Width: 802
GlyphClass: 2
Flags: W
LayerCount: 2
Fore
SplineSet
498 804 m 1,0,-1
 516 803 l 1,1,2
 544 881 544 881 553 930 c 1,3,4
 558 926 558 926 566.5 918.5 c 128,-1,5
 575 911 575 911 588.5 884.5 c 128,-1,6
 602 858 602 858 602 838 c 128,-1,7
 602 818 602 818 593 782 c 1,8,9
 659 750 659 750 698 673 c 128,-1,10
 737 596 737 596 737 479 c 0,11,12
 737 325 737 325 682 200 c 0,13,14
 653 134 653 134 610 84.5 c 128,-1,15
 567 35 567 35 502.5 5 c 128,-1,16
 438 -25 438 -25 359 -25 c 0,17,18
 327 -25 327 -25 295 -17 c 1,19,20
 280 -71 280 -71 273 -120 c 1,21,22
 265 -120 265 -120 247 -112 c 128,-1,23
 229 -104 229 -104 218 -95 c 128,-1,24
 207 -86 207 -86 198 -67 c 128,-1,25
 189 -48 189 -48 189 -28 c 128,-1,26
 189 -8 189 -8 200 30 c 1,27,28
 133 84 133 84 99 179 c 128,-1,29
 65 274 65 274 65 379 c 0,30,31
 65 543 65 543 142 665.5 c 128,-1,32
 219 788 219 788 342 827 c 1,33,34
 359 823 359 823 361 811 c 1,35,36
 291 768 291 768 246.5 710 c 128,-1,37
 202 652 202 652 185 553 c 1,38,39
 227 670 227 670 316 737 c 128,-1,40
 405 804 405 804 498 804 c 1,0,-1
624 450 m 0,41,42
 624 617 624 617 561 687 c 1,43,44
 552 662 552 662 452 413 c 128,-1,45
 352 164 352 164 314 44 c 1,46,47
 341 35 341 35 372 35 c 0,48,49
 449 35 449 35 508 98 c 128,-1,50
 567 161 567 161 595.5 254 c 128,-1,51
 624 347 624 347 624 450 c 0,41,42
458 731 m 0,52,53
 380 731 380 731 315 670 c 128,-1,54
 250 609 250 609 216 517.5 c 128,-1,55
 182 426 182 426 182 330 c 0,56,57
 182 193 182 193 231 115 c 1,58,59
 261 192 261 192 355.5 409.5 c 128,-1,60
 450 627 450 627 489 728 c 1,61,62
 474 731 474 731 458 731 c 0,52,53
EndSplineSet
EndChar

StartChar: Ugrave
Encoding: 217 217 153
Width: 755
GlyphClass: 2
Flags: W
LayerCount: 2
Fore
SplineSet
665 731.5 m 128,-1,1
 668 715 668 715 668 675 c 128,-1,2
 668 635 668 635 635 409 c 128,-1,3
 602 183 602 183 602 92.5 c 128,-1,4
 602 2 602 2 616 -31 c 1,5,6
 554 -9 554 -9 528.5 28.5 c 128,-1,7
 503 66 503 66 503 129 c 0,8,9
 503 160 503 160 505 179 c 1,10,11
 420 -20 420 -20 254 -20 c 0,12,13
 171 -20 171 -20 129 37.5 c 128,-1,14
 87 95 87 95 87 220 c 0,15,16
 87 291 87 291 109.5 476 c 128,-1,17
 132 661 132 661 132 716.5 c 128,-1,18
 132 772 132 772 121 802 c 1,19,20
 181 780 181 780 207 745 c 128,-1,21
 233 710 233 710 233 648.5 c 128,-1,22
 233 587 233 587 211.5 450.5 c 128,-1,23
 190 314 190 314 190 226 c 128,-1,24
 190 138 190 138 218 100 c 128,-1,25
 246 62 246 62 298 62 c 0,26,27
 352 62 352 62 404 108 c 0,28,29
 470 167 470 167 510 300 c 0,30,31
 533 376 533 376 545 474 c 0,32,33
 545 477 545 477 547.5 477 c 128,-1,34
 550 477 550 477 560.5 464 c 128,-1,35
 571 451 571 451 573 451 c 1,36,-1
 564 388 l 1,37,38
 541 263 541 263 505 179 c 1,39,40
 509 219 509 219 524 322 c 0,41,42
 561 579 561 579 561 720 c 0,43,44
 561 750 561 750 557 802 c 1,45,46
 633 798 633 798 652 766 c 0,47,0
 662 748 662 748 665 731.5 c 128,-1,1
574 455 m 2,48,-1
 573 451 l 2,49,50
 574 451 574 451 574 455 c 2,48,-1
499 881 m 1,51,52
 498 870 498 870 488.5 860.5 c 128,-1,53
 479 851 479 851 467 848 c 1,54,55
 431 893 431 893 374.5 937 c 128,-1,56
 318 981 318 981 260 999 c 1,57,58
 262 1051 262 1051 308 1081 c 1,59,60
 361 1060 361 1060 417.5 998.5 c 128,-1,61
 474 937 474 937 499 881 c 1,51,52
EndSplineSet
Position2: "'cpsp' Capital Spacing in Latin lookup 0 subtable" dx=7 dy=0 dh=20 dv=0
EndChar

StartChar: Uacute
Encoding: 218 218 154
Width: 755
GlyphClass: 2
Flags: W
LayerCount: 2
Fore
SplineSet
665 731.5 m 128,-1,1
 668 715 668 715 668 675 c 128,-1,2
 668 635 668 635 635 409 c 128,-1,3
 602 183 602 183 602 92.5 c 128,-1,4
 602 2 602 2 616 -31 c 1,5,6
 554 -9 554 -9 528.5 28.5 c 128,-1,7
 503 66 503 66 503 129 c 0,8,9
 503 160 503 160 505 179 c 1,10,11
 420 -20 420 -20 254 -20 c 0,12,13
 171 -20 171 -20 129 37.5 c 128,-1,14
 87 95 87 95 87 220 c 0,15,16
 87 291 87 291 109.5 476 c 128,-1,17
 132 661 132 661 132 716.5 c 128,-1,18
 132 772 132 772 121 802 c 1,19,20
 181 780 181 780 207 745 c 128,-1,21
 233 710 233 710 233 648.5 c 128,-1,22
 233 587 233 587 211.5 450.5 c 128,-1,23
 190 314 190 314 190 226 c 128,-1,24
 190 138 190 138 218 100 c 128,-1,25
 246 62 246 62 298 62 c 0,26,27
 352 62 352 62 404 108 c 0,28,29
 470 167 470 167 510 300 c 0,30,31
 533 376 533 376 545 474 c 0,32,33
 545 477 545 477 547.5 477 c 128,-1,34
 550 477 550 477 560.5 464 c 128,-1,35
 571 451 571 451 573 451 c 1,36,-1
 564 388 l 1,37,38
 541 263 541 263 505 179 c 1,39,40
 509 219 509 219 524 322 c 0,41,42
 561 579 561 579 561 720 c 0,43,44
 561 750 561 750 557 802 c 1,45,46
 633 798 633 798 652 766 c 0,47,0
 662 748 662 748 665 731.5 c 128,-1,1
574 455 m 2,48,-1
 573 451 l 2,49,50
 574 451 574 451 574 455 c 2,48,-1
307 881 m 1,51,52
 332 937 332 937 388.5 998.5 c 128,-1,53
 445 1060 445 1060 498 1081 c 1,54,55
 544 1051 544 1051 546 999 c 1,56,57
 488 981 488 981 431.5 937 c 128,-1,58
 375 893 375 893 339 848 c 1,59,60
 327 851 327 851 317.5 860.5 c 128,-1,61
 308 870 308 870 307 881 c 1,51,52
EndSplineSet
Position2: "'cpsp' Capital Spacing in Latin lookup 0 subtable" dx=7 dy=0 dh=20 dv=0
EndChar

